%TF.GenerationSoftware,KiCad,Pcbnew,(6.0.0)*%
%TF.CreationDate,2021-12-27T13:21:06-08:00*%
%TF.ProjectId,Microtus-rp2040,4d696372-6f74-4757-932d-727032303430,rev?*%
%TF.SameCoordinates,Original*%
%TF.FileFunction,Copper,L1,Top*%
%TF.FilePolarity,Positive*%
%FSLAX46Y46*%
G04 Gerber Fmt 4.6, Leading zero omitted, Abs format (unit mm)*
G04 Created by KiCad (PCBNEW (6.0.0)) date 2021-12-27 13:21:06*
%MOMM*%
%LPD*%
G01*
G04 APERTURE LIST*
%TA.AperFunction,ComponentPad*%
%ADD10R,1.700000X1.700000*%
%TD*%
%TA.AperFunction,ComponentPad*%
%ADD11O,1.700000X1.700000*%
%TD*%
%TA.AperFunction,ComponentPad*%
%ADD12R,1.350000X1.350000*%
%TD*%
%TA.AperFunction,ComponentPad*%
%ADD13O,1.350000X1.350000*%
%TD*%
%TA.AperFunction,ComponentPad*%
%ADD14O,1.000000X1.600000*%
%TD*%
%TA.AperFunction,ComponentPad*%
%ADD15O,1.000000X2.100000*%
%TD*%
%TA.AperFunction,ComponentPad*%
%ADD16C,0.600000*%
%TD*%
%TA.AperFunction,ComponentPad*%
%ADD17C,1.500000*%
%TD*%
%TA.AperFunction,ComponentPad*%
%ADD18R,3.200000X2.000000*%
%TD*%
%TA.AperFunction,ComponentPad*%
%ADD19C,2.000000*%
%TD*%
%TA.AperFunction,ComponentPad*%
%ADD20R,2.000000X2.000000*%
%TD*%
%TA.AperFunction,ComponentPad*%
%ADD21C,1.778000*%
%TD*%
%TA.AperFunction,ComponentPad*%
%ADD22C,2.286000*%
%TD*%
%TA.AperFunction,ViaPad*%
%ADD23C,0.609600*%
%TD*%
%TA.AperFunction,ViaPad*%
%ADD24C,0.800000*%
%TD*%
%TA.AperFunction,Conductor*%
%ADD25C,0.152400*%
%TD*%
%TA.AperFunction,Conductor*%
%ADD26C,0.406400*%
%TD*%
%TA.AperFunction,Conductor*%
%ADD27C,0.889000*%
%TD*%
G04 APERTURE END LIST*
D10*
%TO.P,J3,1,Pin_1*%
%TO.N,/SWCLK*%
X38735000Y-48330000D03*
D11*
%TO.P,J3,2,Pin_2*%
%TO.N,GND*%
X36195000Y-48330000D03*
%TO.P,J3,3,Pin_3*%
%TO.N,/SWD*%
X33655000Y-48330000D03*
%TD*%
D12*
%TO.P,JP1,1,1*%
%TO.N,GND*%
X20066000Y-41656000D03*
D13*
%TO.P,JP1,2,2*%
%TO.N,Net-(JP1-Pad2)*%
X20066000Y-39656000D03*
%TD*%
D14*
%TO.P,J2,S1,SHIELD*%
%TO.N,unconnected-(J2-PadS1)*%
X57914000Y-3268000D03*
X49274000Y-3268000D03*
D15*
X49274000Y-7448000D03*
X57914000Y-7448000D03*
%TD*%
D16*
%TO.P,U4,57,GND*%
%TO.N,GND*%
X37841000Y-35809000D03*
X37841000Y-37084000D03*
X37841000Y-38359000D03*
X39116000Y-35809000D03*
X39116000Y-37084000D03*
X39116000Y-38359000D03*
X40391000Y-35809000D03*
X40391000Y-37084000D03*
X40391000Y-38359000D03*
%TD*%
D17*
%TO.P,SW5,*%
%TO.N,*%
X1510000Y-11764000D03*
X1510000Y-16764000D03*
D18*
%TO.P,SW5,MP*%
%TO.N,N/C*%
X8510000Y-8664000D03*
X8510000Y-19864000D03*
D19*
%TO.P,SW5,B,B*%
%TO.N,ENC_B*%
X16010000Y-11764000D03*
%TO.P,SW5,C,C*%
%TO.N,GND*%
X16010000Y-14264000D03*
D20*
%TO.P,SW5,A,A*%
%TO.N,ENC_A*%
X16010000Y-16764000D03*
%TD*%
D19*
%TO.P,SW3,1,1*%
%TO.N,+3V3*%
X59500000Y-38900000D03*
%TO.P,SW3,2,2*%
%TO.N,BUTTON_R*%
X54500000Y-36800000D03*
%TD*%
%TO.P,SW1,1,1*%
%TO.N,BUTTON_L*%
X9500000Y-38900000D03*
%TO.P,SW1,2,2*%
%TO.N,+3V3*%
X4500000Y-36800000D03*
%TD*%
D21*
%TO.P,S1,B1A,SEL+*%
%TO.N,GND*%
X31325000Y-1524000D03*
%TO.P,S1,B1B*%
%TO.N,N/C*%
X37675000Y-1524000D03*
%TO.P,S1,B2A,SEL-*%
%TO.N,BUTTON_C*%
X31325000Y-6604000D03*
%TO.P,S1,B2B*%
%TO.N,N/C*%
X37675000Y-6604000D03*
%TO.P,S1,H1,H+*%
%TO.N,+3V3*%
X31960000Y-24384000D03*
%TO.P,S1,H2,H*%
%TO.N,X_POS*%
X34500000Y-24384000D03*
%TO.P,S1,H3,H-*%
%TO.N,GND*%
X37040000Y-24384000D03*
D22*
%TO.P,S1,MOUN*%
%TO.N,N/C*%
X26880000Y-7556500D03*
X26880000Y-20891500D03*
X42120000Y-20891500D03*
X42120000Y-7556500D03*
D21*
%TO.P,S1,V1,V+*%
%TO.N,+3V3*%
X24340000Y-11684000D03*
%TO.P,S1,V2,V*%
%TO.N,Y_POS*%
X24340000Y-14224000D03*
%TO.P,S1,V3,V-*%
%TO.N,GND*%
X24340000Y-16764000D03*
%TD*%
D23*
%TO.N,GND*%
X24410000Y-30130000D03*
X41510000Y-43230000D03*
%TO.N,/SWD*%
X43810000Y-38830000D03*
%TO.N,/SWCLK*%
X44710000Y-39130000D03*
D24*
%TO.N,VBUS*%
X55880000Y-10160000D03*
D23*
%TO.N,GND*%
X47143000Y-33782000D03*
X49810000Y-38862000D03*
X53848000Y-11430000D03*
X59182000Y-9906000D03*
X47498000Y-9652000D03*
X30353000Y-35814000D03*
D24*
X57150000Y-12700000D03*
D23*
X21590000Y-30480000D03*
X15240000Y-6350000D03*
X27940000Y-1270000D03*
X43180000Y-1270000D03*
X41910000Y-30226000D03*
X34036000Y-30226000D03*
X19558000Y-14478000D03*
X22352000Y-41656000D03*
X30860996Y-37403040D03*
D24*
X31750000Y-41910000D03*
X30480000Y-40640000D03*
X35560000Y-45720000D03*
X36830000Y-45720000D03*
X38100000Y-45720000D03*
X40640000Y-48260000D03*
X53340000Y-48260000D03*
D23*
X46635000Y-35560000D03*
X34290000Y-21590000D03*
X46990000Y-44450000D03*
X27940000Y-34290000D03*
X22860000Y-7620000D03*
X35560000Y-33020000D03*
X38100000Y-22860000D03*
%TO.N,+3V3*%
X32385000Y-30861000D03*
%TO.N,Y_POS*%
X38100000Y-41910000D03*
%TO.N,X_POS*%
X36830030Y-41910000D03*
D24*
%TO.N,VBUS*%
X52070000Y-10160000D03*
D23*
%TO.N,+1V1*%
X41148000Y-37846000D03*
X36703000Y-36957000D03*
X33822874Y-39410874D03*
X44742000Y-38215000D03*
%TO.N,BUTTON_C*%
X43180000Y-30226000D03*
%TO.N,BUTTON_L*%
X40516000Y-43180028D03*
%TO.N,BUTTON_R*%
X43180000Y-41910000D03*
%TO.N,ENC_A*%
X38608000Y-31242000D03*
X38099984Y-28192410D03*
%TO.N,ENC_B*%
X39116000Y-32004000D03*
X39370000Y-27940000D03*
%TO.N,I2C_SCL*%
X38100000Y-30480000D03*
X38100000Y-26670000D03*
%TO.N,I2C_SDA*%
X36830000Y-30480000D03*
X35560000Y-26670000D03*
%TO.N,Net-(JP1-Pad2)*%
X20699000Y-35685000D03*
%TD*%
D25*
%TO.N,/SWD*%
X35255000Y-46730000D02*
X33655000Y-48330000D01*
X38910000Y-46730000D02*
X35255000Y-46730000D01*
X42210000Y-43430000D02*
X38910000Y-46730000D01*
X42210000Y-41030000D02*
X42210000Y-43430000D01*
X43810000Y-39430000D02*
X42210000Y-41030000D01*
X43810000Y-38830000D02*
X43810000Y-39430000D01*
%TO.N,/SWCLK*%
X42610000Y-41230000D02*
X44710000Y-39130000D01*
X42610000Y-45457400D02*
X42610000Y-41230000D01*
X39737400Y-48330000D02*
X42610000Y-45457400D01*
X38735000Y-48330000D02*
X39737400Y-48330000D01*
%TO.N,+1V1*%
X44119000Y-37592000D02*
X41402000Y-37592000D01*
X41402000Y-37592000D02*
X41148000Y-37846000D01*
X44742000Y-38215000D02*
X44119000Y-37592000D01*
%TO.N,unconnected-(J2-PadS1)*%
X57914000Y-7448000D02*
X57914000Y-3268000D01*
X49274000Y-3268000D02*
X57914000Y-3268000D01*
X49274000Y-7448000D02*
X49274000Y-3268000D01*
D26*
%TO.N,+3V3*%
X31960000Y-30436000D02*
X32385000Y-30861000D01*
X31960000Y-24384000D02*
X31960000Y-30436000D01*
D25*
%TO.N,Y_POS*%
X27940000Y-43180000D02*
X36830000Y-43180000D01*
X24340000Y-14224000D02*
X22860000Y-15704000D01*
X22860000Y-15704000D02*
X22860000Y-38100000D01*
X22860000Y-38100000D02*
X27940000Y-43180000D01*
X36830000Y-43180000D02*
X38100000Y-41910000D01*
%TO.N,X_POS*%
X34500000Y-24384000D02*
X33341873Y-25542127D01*
X33341873Y-25542127D02*
X33341873Y-39641755D01*
X35610118Y-41910000D02*
X36830030Y-41910000D01*
X33341873Y-39641755D02*
X35610118Y-41910000D01*
D27*
%TO.N,VBUS*%
X52070000Y-10160000D02*
X55880000Y-10160000D01*
D25*
%TO.N,+1V1*%
X36703000Y-36957000D02*
X34249126Y-39410874D01*
X34249126Y-39410874D02*
X33822874Y-39410874D01*
%TO.N,BUTTON_C*%
X40800799Y-27846799D02*
X40800799Y-23528799D01*
X43180000Y-30226000D02*
X40800799Y-27846799D01*
X31325000Y-14053000D02*
X31325000Y-6604000D01*
X40800799Y-23528799D02*
X31325000Y-14053000D01*
%TO.N,BUTTON_L*%
X39370138Y-44325890D02*
X40516000Y-43180028D01*
X9500000Y-38900000D02*
X14925890Y-44325890D01*
X14925890Y-44325890D02*
X39370138Y-44325890D01*
%TO.N,BUTTON_R*%
X54500000Y-36800000D02*
X54500000Y-39480000D01*
X54500000Y-39480000D02*
X52070000Y-41910000D01*
X52070000Y-41910000D02*
X43180000Y-41910000D01*
%TO.N,ENC_A*%
X38608000Y-31242000D02*
X38608000Y-28700426D01*
X38608000Y-28700426D02*
X38099984Y-28192410D01*
%TO.N,ENC_B*%
X39370000Y-31750000D02*
X39370000Y-27940000D01*
X39116000Y-32004000D02*
X39370000Y-31750000D01*
%TO.N,I2C_SCL*%
X38100000Y-30480000D02*
X37618982Y-29998982D01*
X37618982Y-29998982D02*
X37618982Y-27151018D01*
X37618982Y-27151018D02*
X38100000Y-26670000D01*
%TO.N,I2C_SDA*%
X36830000Y-30480000D02*
X36830000Y-27940000D01*
X36830000Y-27940000D02*
X35560000Y-26670000D01*
%TO.N,Net-(JP1-Pad2)*%
X20699000Y-39023000D02*
X20066000Y-39656000D01*
X20699000Y-35685000D02*
X20699000Y-39023000D01*
%TD*%
%TA.AperFunction,Conductor*%
%TO.N,GND*%
G36*
X30156542Y-528002D02*
G01*
X30203035Y-581658D01*
X30213139Y-651932D01*
X30192509Y-705005D01*
X30109068Y-827325D01*
X30103973Y-836293D01*
X30011611Y-1035270D01*
X30008048Y-1044957D01*
X29949424Y-1256347D01*
X29947493Y-1266468D01*
X29924178Y-1484619D01*
X29923927Y-1494907D01*
X29936557Y-1713932D01*
X29937990Y-1724134D01*
X29986219Y-1938143D01*
X29989302Y-1947983D01*
X30071837Y-2151240D01*
X30076490Y-2160451D01*
X30163098Y-2301780D01*
X30173555Y-2311241D01*
X30182331Y-2307458D01*
X31235905Y-1253885D01*
X31298217Y-1219859D01*
X31369033Y-1224924D01*
X31414095Y-1253885D01*
X32463421Y-2303210D01*
X32475432Y-2309769D01*
X32487170Y-2300802D01*
X32523549Y-2250174D01*
X32528860Y-2241335D01*
X32626056Y-2044675D01*
X32629854Y-2035082D01*
X32693628Y-1825177D01*
X32695805Y-1815107D01*
X32724677Y-1595799D01*
X32725196Y-1589124D01*
X32726706Y-1527364D01*
X32726512Y-1520646D01*
X32708389Y-1300203D01*
X32706706Y-1290041D01*
X32653261Y-1077263D01*
X32649943Y-1067516D01*
X32562461Y-866321D01*
X32557594Y-857246D01*
X32457446Y-702440D01*
X32437239Y-634380D01*
X32457035Y-566199D01*
X32510550Y-519545D01*
X32563238Y-508000D01*
X36437815Y-508000D01*
X36505936Y-528002D01*
X36552429Y-581658D01*
X36562533Y-651932D01*
X36541905Y-705002D01*
X36455716Y-831350D01*
X36358961Y-1039792D01*
X36297548Y-1261237D01*
X36273129Y-1489739D01*
X36286357Y-1719161D01*
X36287492Y-1724198D01*
X36287493Y-1724204D01*
X36310274Y-1825291D01*
X36336878Y-1943342D01*
X36423336Y-2156261D01*
X36426033Y-2160662D01*
X36426034Y-2160664D01*
X36475628Y-2241594D01*
X36543408Y-2352200D01*
X36693869Y-2525898D01*
X36697844Y-2529198D01*
X36697847Y-2529201D01*
X36745529Y-2568787D01*
X36870679Y-2672689D01*
X37069090Y-2788631D01*
X37073910Y-2790471D01*
X37073915Y-2790474D01*
X37179073Y-2830629D01*
X37283774Y-2870610D01*
X37288842Y-2871641D01*
X37288845Y-2871642D01*
X37399534Y-2894162D01*
X37508963Y-2916426D01*
X37514136Y-2916616D01*
X37514139Y-2916616D01*
X37733448Y-2924657D01*
X37733452Y-2924657D01*
X37738612Y-2924846D01*
X37743732Y-2924190D01*
X37743734Y-2924190D01*
X37961425Y-2896304D01*
X37961428Y-2896303D01*
X37966552Y-2895647D01*
X37973139Y-2893671D01*
X38181710Y-2831096D01*
X38186663Y-2829610D01*
X38393033Y-2728511D01*
X38397845Y-2725079D01*
X38575916Y-2598062D01*
X38580119Y-2595064D01*
X38600599Y-2574656D01*
X38739237Y-2436500D01*
X38742898Y-2432852D01*
X38773154Y-2390747D01*
X38873979Y-2250433D01*
X38876997Y-2246233D01*
X38978816Y-2040217D01*
X39003605Y-1958629D01*
X39044117Y-1825291D01*
X39044118Y-1825285D01*
X39045621Y-1820339D01*
X39075616Y-1592502D01*
X39077290Y-1524000D01*
X39066988Y-1398699D01*
X39058884Y-1300121D01*
X39058883Y-1300115D01*
X39058460Y-1294970D01*
X39002477Y-1072090D01*
X38910843Y-861347D01*
X38894475Y-836045D01*
X38835477Y-744849D01*
X38808041Y-702439D01*
X38787834Y-634380D01*
X38807630Y-566199D01*
X38861145Y-519545D01*
X38913833Y-508000D01*
X66950672Y-508000D01*
X66970056Y-509500D01*
X66972284Y-509847D01*
X66984859Y-511805D01*
X66984861Y-511805D01*
X66993730Y-513186D01*
X67002632Y-512022D01*
X67002634Y-512022D01*
X67008959Y-511195D01*
X67034282Y-510452D01*
X67198126Y-522170D01*
X67203343Y-522543D01*
X67221137Y-525101D01*
X67411540Y-566521D01*
X67428788Y-571586D01*
X67611358Y-639682D01*
X67627710Y-647149D01*
X67636470Y-651932D01*
X67798734Y-740534D01*
X67813848Y-750248D01*
X67953940Y-855119D01*
X67969842Y-867023D01*
X67983428Y-878796D01*
X68121204Y-1016572D01*
X68132977Y-1030158D01*
X68249752Y-1186152D01*
X68259466Y-1201266D01*
X68307940Y-1290041D01*
X68352851Y-1372290D01*
X68360318Y-1388642D01*
X68428414Y-1571212D01*
X68433480Y-1588462D01*
X68474899Y-1778863D01*
X68477457Y-1796658D01*
X68478784Y-1815210D01*
X68488280Y-1947983D01*
X68489041Y-1958629D01*
X68488297Y-1976533D01*
X68488195Y-1984858D01*
X68486814Y-1993730D01*
X68487978Y-2002632D01*
X68487978Y-2002635D01*
X68490936Y-2025251D01*
X68492000Y-2041589D01*
X68492000Y-48450672D01*
X68490500Y-48470056D01*
X68486814Y-48493730D01*
X68487978Y-48502632D01*
X68487978Y-48502634D01*
X68488805Y-48508959D01*
X68489548Y-48534287D01*
X68477457Y-48703343D01*
X68474899Y-48721137D01*
X68433480Y-48911538D01*
X68428414Y-48928788D01*
X68360318Y-49111358D01*
X68352851Y-49127710D01*
X68346851Y-49138699D01*
X68260023Y-49297715D01*
X68259469Y-49298729D01*
X68249752Y-49313848D01*
X68204879Y-49373792D01*
X68132977Y-49469842D01*
X68121204Y-49483428D01*
X67983428Y-49621204D01*
X67969841Y-49632977D01*
X67813848Y-49749752D01*
X67798734Y-49759466D01*
X67693020Y-49817190D01*
X67627710Y-49852851D01*
X67611358Y-49860318D01*
X67428788Y-49928414D01*
X67411540Y-49933479D01*
X67248022Y-49969051D01*
X67221137Y-49974899D01*
X67203342Y-49977457D01*
X67154443Y-49980954D01*
X67041369Y-49989041D01*
X67023467Y-49988297D01*
X67015142Y-49988195D01*
X67006270Y-49986814D01*
X66997368Y-49987978D01*
X66997365Y-49987978D01*
X66974749Y-49990936D01*
X66958411Y-49992000D01*
X2049328Y-49992000D01*
X2029943Y-49990500D01*
X2029661Y-49990456D01*
X2027117Y-49990060D01*
X2015141Y-49988195D01*
X2015139Y-49988195D01*
X2006270Y-49986814D01*
X1997368Y-49987978D01*
X1997366Y-49987978D01*
X1991041Y-49988805D01*
X1965718Y-49989548D01*
X1796657Y-49977457D01*
X1778863Y-49974899D01*
X1751978Y-49969051D01*
X1588460Y-49933479D01*
X1571212Y-49928414D01*
X1388642Y-49860318D01*
X1372290Y-49852851D01*
X1306980Y-49817190D01*
X1201266Y-49759466D01*
X1186152Y-49749752D01*
X1030159Y-49632977D01*
X1016572Y-49621204D01*
X878796Y-49483428D01*
X867023Y-49469842D01*
X795121Y-49373792D01*
X750248Y-49313848D01*
X740531Y-49298729D01*
X739978Y-49297715D01*
X653149Y-49138699D01*
X647149Y-49127710D01*
X639682Y-49111358D01*
X571586Y-48928788D01*
X566520Y-48911538D01*
X525101Y-48721137D01*
X522543Y-48703342D01*
X510959Y-48541371D01*
X511703Y-48523467D01*
X511805Y-48515142D01*
X513186Y-48506270D01*
X511547Y-48493730D01*
X509064Y-48474749D01*
X508000Y-48458411D01*
X508000Y-38900000D01*
X7986835Y-38900000D01*
X8005465Y-39136711D01*
X8006619Y-39141518D01*
X8006620Y-39141524D01*
X8020936Y-39201154D01*
X8060895Y-39367594D01*
X8062788Y-39372165D01*
X8062789Y-39372167D01*
X8127912Y-39529388D01*
X8151760Y-39586963D01*
X8154346Y-39591183D01*
X8273241Y-39785202D01*
X8273245Y-39785208D01*
X8275824Y-39789416D01*
X8430031Y-39969969D01*
X8610584Y-40124176D01*
X8614792Y-40126755D01*
X8614798Y-40126759D01*
X8807815Y-40245040D01*
X8813037Y-40248240D01*
X8817607Y-40250133D01*
X8817611Y-40250135D01*
X9008524Y-40329213D01*
X9032406Y-40339105D01*
X9103937Y-40356278D01*
X9258476Y-40393380D01*
X9258482Y-40393381D01*
X9263289Y-40394535D01*
X9500000Y-40413165D01*
X9736711Y-40394535D01*
X9741518Y-40393381D01*
X9741524Y-40393380D01*
X9962785Y-40340260D01*
X9962790Y-40340258D01*
X9967594Y-40339105D01*
X9972161Y-40337213D01*
X9972168Y-40337211D01*
X9986519Y-40331266D01*
X9992075Y-40328965D01*
X10062664Y-40321375D01*
X10129388Y-40356278D01*
X14479503Y-44706393D01*
X14490370Y-44718784D01*
X14508877Y-44742903D01*
X14586504Y-44802467D01*
X14631017Y-44836624D01*
X14638652Y-44839786D01*
X14638651Y-44839786D01*
X14689933Y-44861028D01*
X14765623Y-44892380D01*
X14765626Y-44892381D01*
X14773253Y-44895540D01*
X14781441Y-44896618D01*
X14887566Y-44910590D01*
X14887571Y-44910590D01*
X14925890Y-44915635D01*
X14934078Y-44914557D01*
X14956023Y-44911668D01*
X14972469Y-44910590D01*
X39323560Y-44910590D01*
X39340007Y-44911668D01*
X39370138Y-44915635D01*
X39408457Y-44910590D01*
X39408462Y-44910590D01*
X39514587Y-44896618D01*
X39522775Y-44895540D01*
X39611508Y-44858786D01*
X39682095Y-44851197D01*
X39745582Y-44882976D01*
X39781810Y-44944034D01*
X39779276Y-45014985D01*
X39748819Y-45064290D01*
X38704715Y-46108395D01*
X38642403Y-46142420D01*
X38615620Y-46145300D01*
X35301586Y-46145300D01*
X35285139Y-46144222D01*
X35263188Y-46141332D01*
X35255000Y-46140254D01*
X35102363Y-46160350D01*
X34960127Y-46219266D01*
X34868652Y-46289457D01*
X34837987Y-46312987D01*
X34832965Y-46319532D01*
X34819480Y-46337106D01*
X34808612Y-46349497D01*
X34164904Y-46993205D01*
X34102592Y-47027231D01*
X34033750Y-47022883D01*
X34008084Y-47013794D01*
X34008081Y-47013793D01*
X34003212Y-47012069D01*
X33998123Y-47011162D01*
X33998121Y-47011162D01*
X33788373Y-46973800D01*
X33788367Y-46973799D01*
X33783284Y-46972894D01*
X33709452Y-46971992D01*
X33565081Y-46970228D01*
X33565079Y-46970228D01*
X33559911Y-46970165D01*
X33339091Y-47003955D01*
X33126756Y-47073357D01*
X32928607Y-47176507D01*
X32924474Y-47179610D01*
X32924471Y-47179612D01*
X32874594Y-47217061D01*
X32749965Y-47310635D01*
X32595629Y-47472138D01*
X32469743Y-47656680D01*
X32375688Y-47859305D01*
X32315989Y-48074570D01*
X32292251Y-48296695D01*
X32305110Y-48519715D01*
X32306247Y-48524761D01*
X32306248Y-48524767D01*
X32308394Y-48534287D01*
X32354222Y-48737639D01*
X32415673Y-48888976D01*
X32424835Y-48911538D01*
X32438266Y-48944616D01*
X32440965Y-48949020D01*
X32550466Y-49127710D01*
X32554987Y-49135088D01*
X32701250Y-49303938D01*
X32873126Y-49446632D01*
X33066000Y-49559338D01*
X33274692Y-49639030D01*
X33279760Y-49640061D01*
X33279763Y-49640062D01*
X33374862Y-49659410D01*
X33493597Y-49683567D01*
X33498772Y-49683757D01*
X33498774Y-49683757D01*
X33711673Y-49691564D01*
X33711677Y-49691564D01*
X33716837Y-49691753D01*
X33721957Y-49691097D01*
X33721959Y-49691097D01*
X33933288Y-49664025D01*
X33933289Y-49664025D01*
X33938416Y-49663368D01*
X33943366Y-49661883D01*
X34147429Y-49600661D01*
X34147434Y-49600659D01*
X34152384Y-49599174D01*
X34352994Y-49500896D01*
X34534860Y-49371173D01*
X34693096Y-49213489D01*
X34752594Y-49130689D01*
X34823453Y-49032077D01*
X34824640Y-49032930D01*
X34871960Y-48989362D01*
X34941897Y-48977145D01*
X35007338Y-49004678D01*
X35035166Y-49036511D01*
X35092694Y-49130388D01*
X35098777Y-49138699D01*
X35238213Y-49299667D01*
X35245580Y-49306883D01*
X35409434Y-49442916D01*
X35417881Y-49448831D01*
X35601756Y-49556279D01*
X35611042Y-49560729D01*
X35810001Y-49636703D01*
X35819899Y-49639579D01*
X35923250Y-49660606D01*
X35937299Y-49659410D01*
X35941000Y-49649065D01*
X35941000Y-48202000D01*
X35961002Y-48133879D01*
X36014658Y-48087386D01*
X36067000Y-48076000D01*
X36323000Y-48076000D01*
X36391121Y-48096002D01*
X36437614Y-48149658D01*
X36449000Y-48202000D01*
X36449000Y-49648517D01*
X36453064Y-49662359D01*
X36466478Y-49664393D01*
X36473184Y-49663534D01*
X36483262Y-49661392D01*
X36687255Y-49600191D01*
X36696842Y-49596433D01*
X36888095Y-49502739D01*
X36896945Y-49497464D01*
X37070328Y-49373792D01*
X37078193Y-49367145D01*
X37182897Y-49262805D01*
X37245268Y-49228889D01*
X37316075Y-49234077D01*
X37372837Y-49276723D01*
X37389819Y-49307826D01*
X37412057Y-49367145D01*
X37434385Y-49426705D01*
X37521739Y-49543261D01*
X37638295Y-49630615D01*
X37774684Y-49681745D01*
X37836866Y-49688500D01*
X39633134Y-49688500D01*
X39695316Y-49681745D01*
X39831705Y-49630615D01*
X39948261Y-49543261D01*
X40035615Y-49426705D01*
X40086745Y-49290316D01*
X40093500Y-49228134D01*
X40093500Y-48855890D01*
X40113502Y-48787769D01*
X40142796Y-48755927D01*
X40147867Y-48752036D01*
X40154413Y-48747013D01*
X40159436Y-48740467D01*
X40159439Y-48740464D01*
X40172923Y-48722891D01*
X40183791Y-48710499D01*
X42990503Y-45903787D01*
X43002895Y-45892919D01*
X43020463Y-45879439D01*
X43027013Y-45874413D01*
X43086577Y-45796786D01*
X43120734Y-45752273D01*
X43179650Y-45610037D01*
X43199746Y-45457400D01*
X43195778Y-45427262D01*
X43194700Y-45410815D01*
X43194700Y-42840422D01*
X43214702Y-42772301D01*
X43268358Y-42725808D01*
X43309279Y-42714941D01*
X43337550Y-42712368D01*
X43344571Y-42711729D01*
X43351273Y-42709551D01*
X43351275Y-42709551D01*
X43511405Y-42657522D01*
X43511408Y-42657521D01*
X43518104Y-42655345D01*
X43524155Y-42651738D01*
X43668780Y-42565525D01*
X43668782Y-42565524D01*
X43674832Y-42561917D01*
X43679939Y-42557054D01*
X43708923Y-42529454D01*
X43772048Y-42496962D01*
X43795814Y-42494700D01*
X52023422Y-42494700D01*
X52039869Y-42495778D01*
X52070000Y-42499745D01*
X52108319Y-42494700D01*
X52108324Y-42494700D01*
X52214449Y-42480728D01*
X52222637Y-42479650D01*
X52327807Y-42436087D01*
X52364873Y-42420734D01*
X52417080Y-42380674D01*
X52487013Y-42327013D01*
X52492039Y-42320463D01*
X52492043Y-42320459D01*
X52505523Y-42302891D01*
X52516391Y-42290499D01*
X54880503Y-39926387D01*
X54892895Y-39915519D01*
X54910463Y-39902039D01*
X54917013Y-39897013D01*
X54995756Y-39794392D01*
X55010734Y-39774873D01*
X55034206Y-39718205D01*
X55069650Y-39632637D01*
X55071426Y-39619152D01*
X55084700Y-39518321D01*
X55084700Y-39518319D01*
X55088667Y-39488188D01*
X55089745Y-39480000D01*
X55085778Y-39449867D01*
X55084700Y-39433421D01*
X55084700Y-38900000D01*
X57986835Y-38900000D01*
X58005465Y-39136711D01*
X58006619Y-39141518D01*
X58006620Y-39141524D01*
X58020936Y-39201154D01*
X58060895Y-39367594D01*
X58062788Y-39372165D01*
X58062789Y-39372167D01*
X58127912Y-39529388D01*
X58151760Y-39586963D01*
X58154346Y-39591183D01*
X58273241Y-39785202D01*
X58273245Y-39785208D01*
X58275824Y-39789416D01*
X58430031Y-39969969D01*
X58610584Y-40124176D01*
X58614792Y-40126755D01*
X58614798Y-40126759D01*
X58807815Y-40245040D01*
X58813037Y-40248240D01*
X58817607Y-40250133D01*
X58817611Y-40250135D01*
X59008524Y-40329213D01*
X59032406Y-40339105D01*
X59103937Y-40356278D01*
X59258476Y-40393380D01*
X59258482Y-40393381D01*
X59263289Y-40394535D01*
X59500000Y-40413165D01*
X59736711Y-40394535D01*
X59741518Y-40393381D01*
X59741524Y-40393380D01*
X59896063Y-40356278D01*
X59967594Y-40339105D01*
X59991476Y-40329213D01*
X60182389Y-40250135D01*
X60182393Y-40250133D01*
X60186963Y-40248240D01*
X60192185Y-40245040D01*
X60385202Y-40126759D01*
X60385208Y-40126755D01*
X60389416Y-40124176D01*
X60569969Y-39969969D01*
X60724176Y-39789416D01*
X60726755Y-39785208D01*
X60726759Y-39785202D01*
X60845654Y-39591183D01*
X60848240Y-39586963D01*
X60872089Y-39529388D01*
X60937211Y-39372167D01*
X60937212Y-39372165D01*
X60939105Y-39367594D01*
X60979064Y-39201154D01*
X60993380Y-39141524D01*
X60993381Y-39141518D01*
X60994535Y-39136711D01*
X61013165Y-38900000D01*
X60994535Y-38663289D01*
X60990800Y-38647729D01*
X60950647Y-38480482D01*
X60939105Y-38432406D01*
X60926272Y-38401423D01*
X60850135Y-38217611D01*
X60850133Y-38217607D01*
X60848240Y-38213037D01*
X60833693Y-38189299D01*
X60726759Y-38014798D01*
X60726755Y-38014792D01*
X60724176Y-38010584D01*
X60569969Y-37830031D01*
X60389416Y-37675824D01*
X60385208Y-37673245D01*
X60385202Y-37673241D01*
X60191183Y-37554346D01*
X60186963Y-37551760D01*
X60182393Y-37549867D01*
X60182389Y-37549865D01*
X59972167Y-37462789D01*
X59972165Y-37462788D01*
X59967594Y-37460895D01*
X59887391Y-37441640D01*
X59741524Y-37406620D01*
X59741518Y-37406619D01*
X59736711Y-37405465D01*
X59500000Y-37386835D01*
X59263289Y-37405465D01*
X59258482Y-37406619D01*
X59258476Y-37406620D01*
X59112609Y-37441640D01*
X59032406Y-37460895D01*
X59027835Y-37462788D01*
X59027833Y-37462789D01*
X58817611Y-37549865D01*
X58817607Y-37549867D01*
X58813037Y-37551760D01*
X58808817Y-37554346D01*
X58614798Y-37673241D01*
X58614792Y-37673245D01*
X58610584Y-37675824D01*
X58430031Y-37830031D01*
X58275824Y-38010584D01*
X58273245Y-38014792D01*
X58273241Y-38014798D01*
X58166307Y-38189299D01*
X58151760Y-38213037D01*
X58149867Y-38217607D01*
X58149865Y-38217611D01*
X58073728Y-38401423D01*
X58060895Y-38432406D01*
X58049353Y-38480482D01*
X58009201Y-38647729D01*
X58005465Y-38663289D01*
X57986835Y-38900000D01*
X55084700Y-38900000D01*
X55084700Y-38274789D01*
X55104702Y-38206668D01*
X55162482Y-38158380D01*
X55186963Y-38148240D01*
X55283821Y-38088885D01*
X55385202Y-38026759D01*
X55385208Y-38026755D01*
X55389416Y-38024176D01*
X55569969Y-37869969D01*
X55724176Y-37689416D01*
X55726755Y-37685208D01*
X55726759Y-37685202D01*
X55845654Y-37491183D01*
X55848240Y-37486963D01*
X55850259Y-37482090D01*
X55937211Y-37272167D01*
X55937212Y-37272165D01*
X55939105Y-37267594D01*
X55964807Y-37160539D01*
X55993380Y-37041524D01*
X55993381Y-37041518D01*
X55994535Y-37036711D01*
X56013165Y-36800000D01*
X55994535Y-36563289D01*
X55967007Y-36448624D01*
X55940260Y-36337218D01*
X55939105Y-36332406D01*
X55933616Y-36319154D01*
X55850135Y-36117611D01*
X55850133Y-36117607D01*
X55848240Y-36113037D01*
X55827453Y-36079116D01*
X55726759Y-35914798D01*
X55726755Y-35914792D01*
X55724176Y-35910584D01*
X55569969Y-35730031D01*
X55389416Y-35575824D01*
X55385208Y-35573245D01*
X55385202Y-35573241D01*
X55191183Y-35454346D01*
X55186963Y-35451760D01*
X55182393Y-35449867D01*
X55182389Y-35449865D01*
X54972167Y-35362789D01*
X54972165Y-35362788D01*
X54967594Y-35360895D01*
X54844576Y-35331361D01*
X54741524Y-35306620D01*
X54741518Y-35306619D01*
X54736711Y-35305465D01*
X54500000Y-35286835D01*
X54263289Y-35305465D01*
X54258482Y-35306619D01*
X54258476Y-35306620D01*
X54155424Y-35331361D01*
X54032406Y-35360895D01*
X54027835Y-35362788D01*
X54027833Y-35362789D01*
X53817611Y-35449865D01*
X53817607Y-35449867D01*
X53813037Y-35451760D01*
X53808817Y-35454346D01*
X53614798Y-35573241D01*
X53614792Y-35573245D01*
X53610584Y-35575824D01*
X53430031Y-35730031D01*
X53275824Y-35910584D01*
X53273245Y-35914792D01*
X53273241Y-35914798D01*
X53172547Y-36079116D01*
X53151760Y-36113037D01*
X53149867Y-36117607D01*
X53149865Y-36117611D01*
X53066384Y-36319154D01*
X53060895Y-36332406D01*
X53059740Y-36337218D01*
X53032994Y-36448624D01*
X53005465Y-36563289D01*
X52986835Y-36800000D01*
X53005465Y-37036711D01*
X53006619Y-37041518D01*
X53006620Y-37041524D01*
X53035193Y-37160539D01*
X53060895Y-37267594D01*
X53062788Y-37272165D01*
X53062789Y-37272167D01*
X53149742Y-37482090D01*
X53151760Y-37486963D01*
X53154346Y-37491183D01*
X53273241Y-37685202D01*
X53273245Y-37685208D01*
X53275824Y-37689416D01*
X53430031Y-37869969D01*
X53610584Y-38024176D01*
X53614792Y-38026755D01*
X53614798Y-38026759D01*
X53716179Y-38088885D01*
X53813037Y-38148240D01*
X53837518Y-38158380D01*
X53892799Y-38202929D01*
X53915300Y-38274789D01*
X53915300Y-39185620D01*
X53895298Y-39253741D01*
X53878395Y-39274715D01*
X51864715Y-41288395D01*
X51802403Y-41322421D01*
X51775620Y-41325300D01*
X43798066Y-41325300D01*
X43729945Y-41305298D01*
X43708660Y-41288083D01*
X43697807Y-41277154D01*
X43697803Y-41277151D01*
X43692841Y-41272154D01*
X43643258Y-41240688D01*
X43596463Y-41187302D01*
X43585957Y-41117087D01*
X43615080Y-41052338D01*
X43621680Y-41045210D01*
X44688951Y-39977939D01*
X44751263Y-39943913D01*
X44766625Y-39941553D01*
X44874571Y-39931729D01*
X44881273Y-39929551D01*
X44881275Y-39929551D01*
X45041405Y-39877522D01*
X45041408Y-39877521D01*
X45048104Y-39875345D01*
X45113830Y-39836165D01*
X45198777Y-39785527D01*
X45198780Y-39785525D01*
X45204832Y-39781917D01*
X45276139Y-39714012D01*
X45331862Y-39660948D01*
X45331864Y-39660945D01*
X45336966Y-39656087D01*
X45437939Y-39504110D01*
X45487614Y-39373341D01*
X45500233Y-39340122D01*
X45500234Y-39340117D01*
X45502733Y-39333539D01*
X45521339Y-39201154D01*
X45527576Y-39156775D01*
X45527576Y-39156770D01*
X45528127Y-39152852D01*
X45528285Y-39141524D01*
X45528391Y-39133963D01*
X45528391Y-39133958D01*
X45528446Y-39130000D01*
X45508107Y-38948675D01*
X45505790Y-38942021D01*
X45450420Y-38783019D01*
X45450418Y-38783016D01*
X45448101Y-38776361D01*
X45441415Y-38765661D01*
X45422282Y-38697292D01*
X45443324Y-38629169D01*
X45466038Y-38594981D01*
X45469939Y-38589110D01*
X45490592Y-38534741D01*
X45532233Y-38425122D01*
X45532234Y-38425117D01*
X45534733Y-38418539D01*
X45540578Y-38376948D01*
X45559576Y-38241775D01*
X45559576Y-38241770D01*
X45560127Y-38237852D01*
X45560446Y-38215000D01*
X45540107Y-38033675D01*
X45480101Y-37861361D01*
X45383411Y-37706624D01*
X45318847Y-37641608D01*
X45259804Y-37582151D01*
X45259800Y-37582148D01*
X45254841Y-37577154D01*
X45214827Y-37551760D01*
X45195451Y-37539464D01*
X45100783Y-37479386D01*
X44994090Y-37441394D01*
X44935527Y-37420540D01*
X44935525Y-37420539D01*
X44928893Y-37418178D01*
X44921907Y-37417345D01*
X44921903Y-37417344D01*
X44794159Y-37402112D01*
X44728886Y-37374185D01*
X44719983Y-37366093D01*
X44565387Y-37211497D01*
X44554519Y-37199105D01*
X44541039Y-37181537D01*
X44536013Y-37174987D01*
X44456045Y-37113626D01*
X44413873Y-37081266D01*
X44372213Y-37064010D01*
X44314171Y-37039968D01*
X44279266Y-37025510D01*
X44271637Y-37022350D01*
X44263449Y-37021272D01*
X44157324Y-37007300D01*
X44157319Y-37007300D01*
X44119000Y-37002255D01*
X44110812Y-37003333D01*
X44088867Y-37006222D01*
X44072421Y-37007300D01*
X41448578Y-37007300D01*
X41432131Y-37006222D01*
X41410188Y-37003333D01*
X41402000Y-37002255D01*
X41363681Y-37007300D01*
X41363679Y-37007300D01*
X41325035Y-37012388D01*
X41254888Y-37001449D01*
X41201789Y-36954322D01*
X41185721Y-36915383D01*
X41181590Y-36897204D01*
X41126610Y-36739322D01*
X41123281Y-36732372D01*
X41114605Y-36724659D01*
X41105556Y-36728654D01*
X40480095Y-37354115D01*
X40417783Y-37388141D01*
X40346968Y-37383076D01*
X40301905Y-37354115D01*
X40120885Y-37173095D01*
X40086859Y-37110783D01*
X40091924Y-37039968D01*
X40120885Y-36994905D01*
X40656480Y-36459310D01*
X40664092Y-36445370D01*
X40663960Y-36443534D01*
X40659711Y-36436922D01*
X40032922Y-35810132D01*
X40755408Y-35810132D01*
X40755539Y-35811966D01*
X40759790Y-35818579D01*
X41103504Y-36162293D01*
X41115879Y-36169050D01*
X41119696Y-36166193D01*
X41176065Y-36017802D01*
X41179549Y-36004233D01*
X41203244Y-35835627D01*
X41203851Y-35827741D01*
X41204058Y-35812962D01*
X41203671Y-35805061D01*
X41184692Y-35635855D01*
X41181590Y-35622202D01*
X41126610Y-35464322D01*
X41123281Y-35457372D01*
X41114605Y-35449659D01*
X41105558Y-35453653D01*
X40763021Y-35796189D01*
X40755408Y-35810132D01*
X40032922Y-35810132D01*
X40031790Y-35809000D01*
X39766311Y-35543522D01*
X39752368Y-35535909D01*
X39750533Y-35536040D01*
X39743923Y-35540288D01*
X39205095Y-36079115D01*
X39142783Y-36113140D01*
X39071967Y-36108075D01*
X39026905Y-36079115D01*
X38491308Y-35543519D01*
X38477370Y-35535908D01*
X38475534Y-35536040D01*
X38468922Y-35540289D01*
X38200210Y-35809000D01*
X37930095Y-36079116D01*
X37867783Y-36113141D01*
X37796967Y-36108076D01*
X37751905Y-36079115D01*
X37481790Y-35809000D01*
X37128462Y-35455673D01*
X37116082Y-35448913D01*
X37110926Y-35452773D01*
X37110273Y-35454089D01*
X37053096Y-35611180D01*
X37049803Y-35624795D01*
X37028850Y-35790653D01*
X37028654Y-35804660D01*
X37044968Y-35971047D01*
X37047878Y-35984735D01*
X37053766Y-36002437D01*
X37056288Y-36073389D01*
X37020051Y-36134441D01*
X36956558Y-36166210D01*
X36903915Y-36161888D01*
X36903385Y-36164149D01*
X36896526Y-36162540D01*
X36889893Y-36160178D01*
X36882907Y-36159345D01*
X36882903Y-36159344D01*
X36753326Y-36143894D01*
X36708714Y-36138574D01*
X36701711Y-36139310D01*
X36701710Y-36139310D01*
X36655475Y-36144170D01*
X36527251Y-36157646D01*
X36520583Y-36159916D01*
X36361190Y-36214178D01*
X36361187Y-36214179D01*
X36354523Y-36216448D01*
X36299364Y-36250382D01*
X36210031Y-36305340D01*
X36199114Y-36312056D01*
X36068750Y-36439718D01*
X36056124Y-36459310D01*
X35989114Y-36563289D01*
X35969908Y-36593090D01*
X35967499Y-36599710D01*
X35967497Y-36599713D01*
X35909910Y-36757932D01*
X35907502Y-36764549D01*
X35903024Y-36800000D01*
X35889621Y-36906097D01*
X35861239Y-36971174D01*
X35853709Y-36979401D01*
X34220426Y-38612684D01*
X34158114Y-38646710D01*
X34089065Y-38642288D01*
X34010307Y-38614244D01*
X33952843Y-38572550D01*
X33927042Y-38506408D01*
X33926573Y-38495545D01*
X33926573Y-35085799D01*
X37482016Y-35085799D01*
X37485840Y-35094629D01*
X37828189Y-35436979D01*
X37842132Y-35444592D01*
X37843966Y-35444461D01*
X37850579Y-35440210D01*
X38193914Y-35096875D01*
X38199962Y-35085799D01*
X38757016Y-35085799D01*
X38760840Y-35094629D01*
X39103189Y-35436979D01*
X39117132Y-35444592D01*
X39118966Y-35444461D01*
X39125579Y-35440210D01*
X39468914Y-35096875D01*
X39474962Y-35085799D01*
X40032016Y-35085799D01*
X40035840Y-35094629D01*
X40378189Y-35436979D01*
X40392132Y-35444592D01*
X40393966Y-35444461D01*
X40400579Y-35440210D01*
X40743914Y-35096875D01*
X40750671Y-35084500D01*
X40746105Y-35078400D01*
X40740802Y-35075813D01*
X40583309Y-35019732D01*
X40569685Y-35016536D01*
X40403670Y-34996741D01*
X40389673Y-34996643D01*
X40223404Y-35014118D01*
X40209725Y-35017126D01*
X40051463Y-35071002D01*
X40040855Y-35075994D01*
X40032016Y-35085799D01*
X39474962Y-35085799D01*
X39475671Y-35084500D01*
X39471105Y-35078400D01*
X39465802Y-35075813D01*
X39308309Y-35019732D01*
X39294685Y-35016536D01*
X39128670Y-34996741D01*
X39114673Y-34996643D01*
X38948404Y-35014118D01*
X38934725Y-35017126D01*
X38776463Y-35071002D01*
X38765855Y-35075994D01*
X38757016Y-35085799D01*
X38199962Y-35085799D01*
X38200671Y-35084500D01*
X38196105Y-35078400D01*
X38190802Y-35075813D01*
X38033309Y-35019732D01*
X38019685Y-35016536D01*
X37853670Y-34996741D01*
X37839673Y-34996643D01*
X37673404Y-35014118D01*
X37659725Y-35017126D01*
X37501463Y-35071002D01*
X37490855Y-35075994D01*
X37482016Y-35085799D01*
X33926573Y-35085799D01*
X33926573Y-32935774D01*
X52638102Y-32935774D01*
X52646751Y-33166158D01*
X52647846Y-33171377D01*
X52664518Y-33250835D01*
X52694093Y-33391791D01*
X52696051Y-33396750D01*
X52696052Y-33396752D01*
X52752411Y-33539460D01*
X52778776Y-33606221D01*
X52781543Y-33610780D01*
X52781544Y-33610783D01*
X52790139Y-33624947D01*
X52898377Y-33803317D01*
X52901874Y-33807347D01*
X52988438Y-33907103D01*
X53049477Y-33977445D01*
X53053608Y-33980832D01*
X53223627Y-34120240D01*
X53223633Y-34120244D01*
X53227755Y-34123624D01*
X53232391Y-34126263D01*
X53232394Y-34126265D01*
X53284823Y-34156109D01*
X53428114Y-34237675D01*
X53644825Y-34316337D01*
X53650074Y-34317286D01*
X53650077Y-34317287D01*
X53867608Y-34356623D01*
X53867615Y-34356624D01*
X53871692Y-34357361D01*
X53889414Y-34358197D01*
X53894356Y-34358430D01*
X53894363Y-34358430D01*
X53895844Y-34358500D01*
X54057890Y-34358500D01*
X54124809Y-34352822D01*
X54224409Y-34344371D01*
X54224413Y-34344370D01*
X54229720Y-34343920D01*
X54234875Y-34342582D01*
X54234881Y-34342581D01*
X54447703Y-34287343D01*
X54447707Y-34287342D01*
X54452872Y-34286001D01*
X54457738Y-34283809D01*
X54457741Y-34283808D01*
X54658202Y-34193507D01*
X54663075Y-34191312D01*
X54854319Y-34062559D01*
X55021135Y-33903424D01*
X55158754Y-33718458D01*
X55263240Y-33512949D01*
X55299321Y-33396752D01*
X55330024Y-33297871D01*
X55331607Y-33292773D01*
X55337165Y-33250835D01*
X55361198Y-33069511D01*
X55361198Y-33069506D01*
X55361898Y-33064226D01*
X55361227Y-33046355D01*
X57287042Y-33046355D01*
X57287405Y-33050503D01*
X57287405Y-33050507D01*
X57289068Y-33069511D01*
X57312613Y-33338625D01*
X57313523Y-33342697D01*
X57313524Y-33342702D01*
X57357505Y-33539460D01*
X57376613Y-33624947D01*
X57477919Y-33900288D01*
X57479866Y-33903981D01*
X57479867Y-33903983D01*
X57595671Y-34123624D01*
X57614751Y-34159813D01*
X57784705Y-34398961D01*
X57984794Y-34613531D01*
X58211504Y-34799752D01*
X58460851Y-34954354D01*
X58464668Y-34956070D01*
X58464671Y-34956071D01*
X58538709Y-34989345D01*
X58728456Y-35074620D01*
X58765955Y-35085799D01*
X59005618Y-35157247D01*
X59005626Y-35157249D01*
X59009615Y-35158438D01*
X59013731Y-35159090D01*
X59013736Y-35159091D01*
X59295922Y-35203784D01*
X59295927Y-35203784D01*
X59299390Y-35204333D01*
X59348486Y-35206563D01*
X59389732Y-35208436D01*
X59389751Y-35208436D01*
X59391151Y-35208500D01*
X59574420Y-35208500D01*
X59792742Y-35193999D01*
X60080341Y-35136009D01*
X60338396Y-35047154D01*
X60353780Y-35041857D01*
X60353781Y-35041856D01*
X60357744Y-35040492D01*
X60361486Y-35038618D01*
X60361491Y-35038616D01*
X60616333Y-34911000D01*
X60616335Y-34910999D01*
X60620077Y-34909125D01*
X60862732Y-34744217D01*
X61081445Y-34548665D01*
X61272373Y-34325905D01*
X61378019Y-34163225D01*
X61429884Y-34083360D01*
X61429887Y-34083355D01*
X61432163Y-34079850D01*
X61558007Y-33814823D01*
X61560408Y-33807347D01*
X61646416Y-33539460D01*
X61647694Y-33535480D01*
X61699649Y-33246730D01*
X61708179Y-33058895D01*
X61712769Y-32957815D01*
X61712769Y-32957810D01*
X61712958Y-32953645D01*
X61711395Y-32935774D01*
X63638102Y-32935774D01*
X63646751Y-33166158D01*
X63647846Y-33171377D01*
X63664518Y-33250835D01*
X63694093Y-33391791D01*
X63696051Y-33396750D01*
X63696052Y-33396752D01*
X63752411Y-33539460D01*
X63778776Y-33606221D01*
X63781543Y-33610780D01*
X63781544Y-33610783D01*
X63790139Y-33624947D01*
X63898377Y-33803317D01*
X63901874Y-33807347D01*
X63988438Y-33907103D01*
X64049477Y-33977445D01*
X64053608Y-33980832D01*
X64223627Y-34120240D01*
X64223633Y-34120244D01*
X64227755Y-34123624D01*
X64232391Y-34126263D01*
X64232394Y-34126265D01*
X64284823Y-34156109D01*
X64428114Y-34237675D01*
X64644825Y-34316337D01*
X64650074Y-34317286D01*
X64650077Y-34317287D01*
X64867608Y-34356623D01*
X64867615Y-34356624D01*
X64871692Y-34357361D01*
X64889414Y-34358197D01*
X64894356Y-34358430D01*
X64894363Y-34358430D01*
X64895844Y-34358500D01*
X65057890Y-34358500D01*
X65124809Y-34352822D01*
X65224409Y-34344371D01*
X65224413Y-34344370D01*
X65229720Y-34343920D01*
X65234875Y-34342582D01*
X65234881Y-34342581D01*
X65447703Y-34287343D01*
X65447707Y-34287342D01*
X65452872Y-34286001D01*
X65457738Y-34283809D01*
X65457741Y-34283808D01*
X65658202Y-34193507D01*
X65663075Y-34191312D01*
X65854319Y-34062559D01*
X66021135Y-33903424D01*
X66158754Y-33718458D01*
X66263240Y-33512949D01*
X66299321Y-33396752D01*
X66330024Y-33297871D01*
X66331607Y-33292773D01*
X66337165Y-33250835D01*
X66361198Y-33069511D01*
X66361198Y-33069506D01*
X66361898Y-33064226D01*
X66353249Y-32833842D01*
X66350687Y-32821629D01*
X66307002Y-32613428D01*
X66305907Y-32608209D01*
X66249161Y-32464520D01*
X66223185Y-32398744D01*
X66223184Y-32398742D01*
X66221224Y-32393779D01*
X66215279Y-32383981D01*
X66104390Y-32201243D01*
X66101623Y-32196683D01*
X66014270Y-32096017D01*
X65954023Y-32026588D01*
X65954021Y-32026586D01*
X65950523Y-32022555D01*
X65882025Y-31966390D01*
X65776373Y-31879760D01*
X65776367Y-31879756D01*
X65772245Y-31876376D01*
X65767609Y-31873737D01*
X65767606Y-31873735D01*
X65601924Y-31779423D01*
X65571886Y-31762325D01*
X65355175Y-31683663D01*
X65349926Y-31682714D01*
X65349923Y-31682713D01*
X65132392Y-31643377D01*
X65132385Y-31643376D01*
X65128308Y-31642639D01*
X65110586Y-31641803D01*
X65105644Y-31641570D01*
X65105637Y-31641570D01*
X65104156Y-31641500D01*
X64942110Y-31641500D01*
X64879188Y-31646839D01*
X64775591Y-31655629D01*
X64775587Y-31655630D01*
X64770280Y-31656080D01*
X64765125Y-31657418D01*
X64765119Y-31657419D01*
X64552297Y-31712657D01*
X64552293Y-31712658D01*
X64547128Y-31713999D01*
X64542262Y-31716191D01*
X64542259Y-31716192D01*
X64433980Y-31764968D01*
X64336925Y-31808688D01*
X64145681Y-31937441D01*
X63978865Y-32096576D01*
X63841246Y-32281542D01*
X63736760Y-32487051D01*
X63735178Y-32492145D01*
X63735177Y-32492148D01*
X63681338Y-32665537D01*
X63668393Y-32707227D01*
X63667692Y-32712516D01*
X63652304Y-32828623D01*
X63638102Y-32935774D01*
X61711395Y-32935774D01*
X61687751Y-32665537D01*
X61687387Y-32661375D01*
X61682270Y-32638482D01*
X61624299Y-32379131D01*
X61624297Y-32379124D01*
X61623387Y-32375053D01*
X61613176Y-32347299D01*
X61559437Y-32201243D01*
X61522081Y-32099712D01*
X61455062Y-31972598D01*
X61387202Y-31843891D01*
X61387201Y-31843890D01*
X61385249Y-31840187D01*
X61215295Y-31601039D01*
X61015206Y-31386469D01*
X60788496Y-31200248D01*
X60539149Y-31045646D01*
X60535332Y-31043930D01*
X60535329Y-31043929D01*
X60402952Y-30984437D01*
X60271544Y-30925380D01*
X60124444Y-30881527D01*
X59994382Y-30842753D01*
X59994374Y-30842751D01*
X59990385Y-30841562D01*
X59986269Y-30840910D01*
X59986264Y-30840909D01*
X59704078Y-30796216D01*
X59704073Y-30796216D01*
X59700610Y-30795667D01*
X59651514Y-30793437D01*
X59610268Y-30791564D01*
X59610249Y-30791564D01*
X59608849Y-30791500D01*
X59425580Y-30791500D01*
X59207258Y-30806001D01*
X58919659Y-30863991D01*
X58803908Y-30903847D01*
X58662101Y-30952675D01*
X58642256Y-30959508D01*
X58638514Y-30961382D01*
X58638509Y-30961384D01*
X58392124Y-31084765D01*
X58379923Y-31090875D01*
X58314220Y-31135527D01*
X58187364Y-31221738D01*
X58137268Y-31255783D01*
X58134152Y-31258569D01*
X57970205Y-31405155D01*
X57918555Y-31451335D01*
X57727627Y-31674095D01*
X57683651Y-31741812D01*
X57594067Y-31879760D01*
X57567837Y-31920150D01*
X57441993Y-32185177D01*
X57440714Y-32189160D01*
X57440713Y-32189163D01*
X57438299Y-32196683D01*
X57352306Y-32464520D01*
X57300351Y-32753270D01*
X57298068Y-32803551D01*
X57291063Y-32957815D01*
X57287042Y-33046355D01*
X55361227Y-33046355D01*
X55353249Y-32833842D01*
X55350687Y-32821629D01*
X55307002Y-32613428D01*
X55305907Y-32608209D01*
X55249161Y-32464520D01*
X55223185Y-32398744D01*
X55223184Y-32398742D01*
X55221224Y-32393779D01*
X55215279Y-32383981D01*
X55104390Y-32201243D01*
X55101623Y-32196683D01*
X55014270Y-32096017D01*
X54954023Y-32026588D01*
X54954021Y-32026586D01*
X54950523Y-32022555D01*
X54882025Y-31966390D01*
X54776373Y-31879760D01*
X54776367Y-31879756D01*
X54772245Y-31876376D01*
X54767609Y-31873737D01*
X54767606Y-31873735D01*
X54601924Y-31779423D01*
X54571886Y-31762325D01*
X54355175Y-31683663D01*
X54349926Y-31682714D01*
X54349923Y-31682713D01*
X54132392Y-31643377D01*
X54132385Y-31643376D01*
X54128308Y-31642639D01*
X54110586Y-31641803D01*
X54105644Y-31641570D01*
X54105637Y-31641570D01*
X54104156Y-31641500D01*
X53942110Y-31641500D01*
X53879188Y-31646839D01*
X53775591Y-31655629D01*
X53775587Y-31655630D01*
X53770280Y-31656080D01*
X53765125Y-31657418D01*
X53765119Y-31657419D01*
X53552297Y-31712657D01*
X53552293Y-31712658D01*
X53547128Y-31713999D01*
X53542262Y-31716191D01*
X53542259Y-31716192D01*
X53433980Y-31764968D01*
X53336925Y-31808688D01*
X53145681Y-31937441D01*
X52978865Y-32096576D01*
X52841246Y-32281542D01*
X52736760Y-32487051D01*
X52735178Y-32492145D01*
X52735177Y-32492148D01*
X52681338Y-32665537D01*
X52668393Y-32707227D01*
X52667692Y-32712516D01*
X52652304Y-32828623D01*
X52638102Y-32935774D01*
X33926573Y-32935774D01*
X33926573Y-25844023D01*
X33946575Y-25775902D01*
X34000231Y-25729409D01*
X34070505Y-25719305D01*
X34097522Y-25726313D01*
X34108774Y-25730610D01*
X34113842Y-25731641D01*
X34113845Y-25731642D01*
X34224534Y-25754162D01*
X34333963Y-25776426D01*
X34339136Y-25776616D01*
X34339139Y-25776616D01*
X34558448Y-25784657D01*
X34558452Y-25784657D01*
X34563612Y-25784846D01*
X34568732Y-25784190D01*
X34568734Y-25784190D01*
X34786425Y-25756304D01*
X34786428Y-25756303D01*
X34791552Y-25755647D01*
X34798139Y-25753671D01*
X35006710Y-25691096D01*
X35011663Y-25689610D01*
X35218033Y-25588511D01*
X35222845Y-25585079D01*
X35289737Y-25537365D01*
X36251464Y-25537365D01*
X36256745Y-25544420D01*
X36429846Y-25645571D01*
X36439132Y-25650021D01*
X36644083Y-25728283D01*
X36653981Y-25731159D01*
X36868962Y-25774897D01*
X36879190Y-25776116D01*
X37098425Y-25784156D01*
X37108711Y-25783689D01*
X37326320Y-25755813D01*
X37336398Y-25753671D01*
X37546527Y-25690629D01*
X37556125Y-25686868D01*
X37753138Y-25590352D01*
X37761983Y-25585079D01*
X37817209Y-25545686D01*
X37825609Y-25534987D01*
X37818622Y-25521833D01*
X37052811Y-24756021D01*
X37038868Y-24748408D01*
X37037034Y-24748539D01*
X37030420Y-24752790D01*
X36258221Y-25524990D01*
X36251464Y-25537365D01*
X35289737Y-25537365D01*
X35400916Y-25458062D01*
X35405119Y-25455064D01*
X35567898Y-25292852D01*
X35658003Y-25167458D01*
X35668005Y-25153538D01*
X35724000Y-25109890D01*
X35794703Y-25103444D01*
X35857668Y-25136247D01*
X35877761Y-25161229D01*
X35878100Y-25161782D01*
X35888555Y-25171241D01*
X35897331Y-25167458D01*
X36667979Y-24396811D01*
X36674356Y-24385132D01*
X37404408Y-24385132D01*
X37404539Y-24386966D01*
X37408790Y-24393580D01*
X38178425Y-25163214D01*
X38190431Y-25169770D01*
X38202170Y-25160802D01*
X38238549Y-25110174D01*
X38243860Y-25101335D01*
X38341056Y-24904675D01*
X38344854Y-24895082D01*
X38408628Y-24685177D01*
X38410805Y-24675107D01*
X38439677Y-24455799D01*
X38440196Y-24449124D01*
X38441706Y-24387364D01*
X38441512Y-24380646D01*
X38423389Y-24160203D01*
X38421706Y-24150041D01*
X38368261Y-23937263D01*
X38364943Y-23927516D01*
X38277462Y-23726323D01*
X38272595Y-23717246D01*
X38201268Y-23606993D01*
X38190582Y-23597791D01*
X38181017Y-23602194D01*
X37412021Y-24371189D01*
X37404408Y-24385132D01*
X36674356Y-24385132D01*
X36675592Y-24382868D01*
X36675461Y-24381034D01*
X36671210Y-24374420D01*
X35901778Y-23604989D01*
X35890246Y-23598692D01*
X35877965Y-23608314D01*
X35874360Y-23613599D01*
X35819448Y-23658602D01*
X35748923Y-23666773D01*
X35685176Y-23635519D01*
X35664479Y-23611035D01*
X35613830Y-23532743D01*
X35613828Y-23532740D01*
X35611020Y-23528400D01*
X35479945Y-23384350D01*
X35459837Y-23362252D01*
X35459835Y-23362251D01*
X35456359Y-23358430D01*
X35452308Y-23355231D01*
X35452304Y-23355227D01*
X35296992Y-23232570D01*
X36253365Y-23232570D01*
X36260108Y-23244897D01*
X37027189Y-24011979D01*
X37041132Y-24019592D01*
X37042966Y-24019461D01*
X37049580Y-24015210D01*
X37821162Y-23243627D01*
X37828179Y-23230776D01*
X37820405Y-23220107D01*
X37819796Y-23219625D01*
X37811210Y-23213921D01*
X37619151Y-23107900D01*
X37609752Y-23103675D01*
X37402950Y-23030443D01*
X37392993Y-23027813D01*
X37177008Y-22989339D01*
X37166757Y-22988370D01*
X36947386Y-22985690D01*
X36937102Y-22986410D01*
X36720251Y-23019592D01*
X36710224Y-23021981D01*
X36501704Y-23090135D01*
X36492195Y-23094132D01*
X36297603Y-23195431D01*
X36288890Y-23200918D01*
X36261819Y-23221244D01*
X36253365Y-23232570D01*
X35296992Y-23232570D01*
X35282651Y-23221244D01*
X35276015Y-23216003D01*
X35074831Y-23104943D01*
X34957611Y-23063433D01*
X34863084Y-23029959D01*
X34863080Y-23029958D01*
X34858209Y-23028233D01*
X34853116Y-23027326D01*
X34853113Y-23027325D01*
X34637056Y-22988839D01*
X34637050Y-22988838D01*
X34631967Y-22987933D01*
X34558784Y-22987039D01*
X34407351Y-22985189D01*
X34407349Y-22985189D01*
X34402181Y-22985126D01*
X34250610Y-23008319D01*
X34180131Y-23019104D01*
X34180128Y-23019105D01*
X34175022Y-23019886D01*
X34152263Y-23027325D01*
X33961504Y-23089675D01*
X33961502Y-23089676D01*
X33956591Y-23091281D01*
X33752753Y-23197392D01*
X33748620Y-23200495D01*
X33748617Y-23200497D01*
X33689482Y-23244897D01*
X33568983Y-23335370D01*
X33410216Y-23501510D01*
X33334063Y-23613147D01*
X33279154Y-23658147D01*
X33208630Y-23666318D01*
X33144882Y-23635064D01*
X33124185Y-23610580D01*
X33073830Y-23532743D01*
X33073828Y-23532740D01*
X33071020Y-23528400D01*
X32939945Y-23384350D01*
X32919837Y-23362252D01*
X32919835Y-23362251D01*
X32916359Y-23358430D01*
X32912308Y-23355231D01*
X32912304Y-23355227D01*
X32742651Y-23221244D01*
X32736015Y-23216003D01*
X32534831Y-23104943D01*
X32417611Y-23063433D01*
X32323084Y-23029959D01*
X32323080Y-23029958D01*
X32318209Y-23028233D01*
X32313116Y-23027326D01*
X32313113Y-23027325D01*
X32097056Y-22988839D01*
X32097050Y-22988838D01*
X32091967Y-22987933D01*
X32018784Y-22987039D01*
X31867351Y-22985189D01*
X31867349Y-22985189D01*
X31862181Y-22985126D01*
X31710610Y-23008319D01*
X31640131Y-23019104D01*
X31640128Y-23019105D01*
X31635022Y-23019886D01*
X31612263Y-23027325D01*
X31421504Y-23089675D01*
X31421502Y-23089676D01*
X31416591Y-23091281D01*
X31212753Y-23197392D01*
X31208620Y-23200495D01*
X31208617Y-23200497D01*
X31149482Y-23244897D01*
X31028983Y-23335370D01*
X30870216Y-23501510D01*
X30740716Y-23691350D01*
X30643961Y-23899792D01*
X30582548Y-24121237D01*
X30558129Y-24349739D01*
X30571357Y-24579161D01*
X30572492Y-24584198D01*
X30572493Y-24584204D01*
X30609498Y-24748408D01*
X30621878Y-24803342D01*
X30708336Y-25016261D01*
X30711033Y-25020662D01*
X30711034Y-25020664D01*
X30761762Y-25103444D01*
X30828408Y-25212200D01*
X30978869Y-25385898D01*
X31155679Y-25532689D01*
X31177921Y-25545686D01*
X31185870Y-25550331D01*
X31234594Y-25601969D01*
X31248300Y-25659119D01*
X31248300Y-30406970D01*
X31248008Y-30415540D01*
X31244869Y-30461586D01*
X31244055Y-30473521D01*
X31245360Y-30480997D01*
X31245360Y-30481000D01*
X31255096Y-30536783D01*
X31256059Y-30543308D01*
X31262136Y-30593523D01*
X31263768Y-30607011D01*
X31266454Y-30614119D01*
X31267019Y-30616419D01*
X31271686Y-30633480D01*
X31272366Y-30635734D01*
X31273672Y-30643215D01*
X31279657Y-30656849D01*
X31299475Y-30701995D01*
X31301967Y-30708102D01*
X31320425Y-30756948D01*
X31324657Y-30768149D01*
X31328956Y-30774404D01*
X31330049Y-30776495D01*
X31338655Y-30791957D01*
X31339858Y-30793991D01*
X31342911Y-30800946D01*
X31347534Y-30806971D01*
X31347537Y-30806976D01*
X31381988Y-30851874D01*
X31385864Y-30857209D01*
X31417918Y-30903847D01*
X31417923Y-30903853D01*
X31422225Y-30910112D01*
X31468972Y-30951762D01*
X31474248Y-30956743D01*
X31581207Y-31063702D01*
X31611671Y-31113026D01*
X31642033Y-31204299D01*
X31736554Y-31360371D01*
X31741445Y-31365436D01*
X31741446Y-31365437D01*
X31786570Y-31412164D01*
X31863303Y-31491623D01*
X31869195Y-31495478D01*
X31869199Y-31495482D01*
X32010085Y-31587675D01*
X32015981Y-31591533D01*
X32022585Y-31593989D01*
X32022587Y-31593990D01*
X32055809Y-31606345D01*
X32187000Y-31655135D01*
X32367860Y-31679267D01*
X32374871Y-31678629D01*
X32374875Y-31678629D01*
X32514580Y-31665914D01*
X32549571Y-31662729D01*
X32556273Y-31660551D01*
X32556275Y-31660551D01*
X32592237Y-31648866D01*
X32663205Y-31646839D01*
X32724002Y-31683501D01*
X32755328Y-31747213D01*
X32757173Y-31768699D01*
X32757173Y-39595177D01*
X32756095Y-39611624D01*
X32752128Y-39641755D01*
X32753206Y-39649943D01*
X32757173Y-39680074D01*
X32757173Y-39680076D01*
X32770581Y-39781917D01*
X32772223Y-39794392D01*
X32805672Y-39875144D01*
X32814730Y-39897013D01*
X32827463Y-39927752D01*
X32831139Y-39936628D01*
X32842070Y-39950873D01*
X32924860Y-40058768D01*
X32931406Y-40063791D01*
X32931409Y-40063794D01*
X32948982Y-40077278D01*
X32961374Y-40088146D01*
X35163731Y-42290503D01*
X35174598Y-42302894D01*
X35193105Y-42327013D01*
X35199655Y-42332039D01*
X35199656Y-42332040D01*
X35248263Y-42369337D01*
X35290130Y-42426675D01*
X35294352Y-42497546D01*
X35259588Y-42559449D01*
X35196876Y-42592730D01*
X35171559Y-42595300D01*
X28234380Y-42595300D01*
X28166259Y-42575298D01*
X28145285Y-42558395D01*
X23481605Y-37894715D01*
X23447579Y-37832403D01*
X23444700Y-37805620D01*
X23444700Y-20891500D01*
X25223393Y-20891500D01*
X25243789Y-21150650D01*
X25244943Y-21155457D01*
X25244944Y-21155463D01*
X25262181Y-21227261D01*
X25304473Y-21403420D01*
X25403952Y-21643584D01*
X25539777Y-21865229D01*
X25708602Y-22062898D01*
X25906271Y-22231723D01*
X26127916Y-22367548D01*
X26132486Y-22369441D01*
X26132488Y-22369442D01*
X26363507Y-22465133D01*
X26368080Y-22467027D01*
X26454543Y-22487785D01*
X26616037Y-22526556D01*
X26616043Y-22526557D01*
X26620850Y-22527711D01*
X26880000Y-22548107D01*
X27139150Y-22527711D01*
X27143957Y-22526557D01*
X27143963Y-22526556D01*
X27305457Y-22487785D01*
X27391920Y-22467027D01*
X27396493Y-22465133D01*
X27627512Y-22369442D01*
X27627514Y-22369441D01*
X27632084Y-22367548D01*
X27853729Y-22231723D01*
X28051398Y-22062898D01*
X28220223Y-21865229D01*
X28356048Y-21643584D01*
X28455527Y-21403420D01*
X28497819Y-21227261D01*
X28515056Y-21155463D01*
X28515057Y-21155457D01*
X28516211Y-21150650D01*
X28536607Y-20891500D01*
X28516211Y-20632350D01*
X28455527Y-20379580D01*
X28356048Y-20139416D01*
X28220223Y-19917771D01*
X28051398Y-19720102D01*
X27853729Y-19551277D01*
X27632084Y-19415452D01*
X27627514Y-19413559D01*
X27627512Y-19413558D01*
X27396493Y-19317867D01*
X27396491Y-19317866D01*
X27391920Y-19315973D01*
X27305457Y-19295215D01*
X27143963Y-19256444D01*
X27143957Y-19256443D01*
X27139150Y-19255289D01*
X26880000Y-19234893D01*
X26620850Y-19255289D01*
X26616043Y-19256443D01*
X26616037Y-19256444D01*
X26454543Y-19295215D01*
X26368080Y-19315973D01*
X26363509Y-19317866D01*
X26363507Y-19317867D01*
X26132488Y-19413558D01*
X26132486Y-19413559D01*
X26127916Y-19415452D01*
X25906271Y-19551277D01*
X25708602Y-19720102D01*
X25539777Y-19917771D01*
X25403952Y-20139416D01*
X25304473Y-20379580D01*
X25243789Y-20632350D01*
X25223393Y-20891500D01*
X23444700Y-20891500D01*
X23444700Y-18078509D01*
X23464702Y-18010388D01*
X23518358Y-17963895D01*
X23588632Y-17953791D01*
X23634271Y-17969721D01*
X23729851Y-18025574D01*
X23739132Y-18030021D01*
X23944083Y-18108283D01*
X23953981Y-18111159D01*
X24168962Y-18154897D01*
X24179190Y-18156116D01*
X24398425Y-18164156D01*
X24408711Y-18163689D01*
X24626320Y-18135813D01*
X24636398Y-18133671D01*
X24846527Y-18070629D01*
X24856125Y-18066868D01*
X25053138Y-17970352D01*
X25061983Y-17965079D01*
X25117209Y-17925686D01*
X25125609Y-17914987D01*
X25118622Y-17901833D01*
X24069885Y-16853095D01*
X24035859Y-16790783D01*
X24037694Y-16765132D01*
X24704408Y-16765132D01*
X24704539Y-16766966D01*
X24708790Y-16773580D01*
X25478425Y-17543214D01*
X25490431Y-17549770D01*
X25502170Y-17540802D01*
X25538549Y-17490174D01*
X25543860Y-17481335D01*
X25641056Y-17284675D01*
X25644854Y-17275082D01*
X25708628Y-17065177D01*
X25710805Y-17055107D01*
X25739677Y-16835799D01*
X25740196Y-16829124D01*
X25741706Y-16767364D01*
X25741512Y-16760646D01*
X25723389Y-16540203D01*
X25721706Y-16530041D01*
X25668261Y-16317263D01*
X25664943Y-16307516D01*
X25577462Y-16106323D01*
X25572595Y-16097246D01*
X25501268Y-15986993D01*
X25490582Y-15977791D01*
X25481017Y-15982194D01*
X24712021Y-16751189D01*
X24704408Y-16765132D01*
X24037694Y-16765132D01*
X24040924Y-16719967D01*
X24069885Y-16674905D01*
X24340000Y-16404790D01*
X25121158Y-15623631D01*
X25128178Y-15610775D01*
X25120404Y-15600106D01*
X25119792Y-15599623D01*
X25116037Y-15597128D01*
X25070363Y-15542773D01*
X25061327Y-15472354D01*
X25091796Y-15408228D01*
X25112589Y-15389598D01*
X25240908Y-15298069D01*
X25240918Y-15298060D01*
X25245119Y-15295064D01*
X25259315Y-15280918D01*
X25404237Y-15136500D01*
X25407898Y-15132852D01*
X25541997Y-14946233D01*
X25643816Y-14740217D01*
X25674783Y-14638295D01*
X25709117Y-14525291D01*
X25709118Y-14525285D01*
X25710621Y-14520339D01*
X25727466Y-14392384D01*
X25740179Y-14295823D01*
X25740179Y-14295819D01*
X25740616Y-14292502D01*
X25742290Y-14224000D01*
X25731382Y-14091321D01*
X25723884Y-14000121D01*
X25723883Y-14000115D01*
X25723460Y-13994970D01*
X25667477Y-13772090D01*
X25575843Y-13561347D01*
X25573037Y-13557009D01*
X25453830Y-13372743D01*
X25453828Y-13372740D01*
X25451020Y-13368400D01*
X25368003Y-13277165D01*
X25299837Y-13202252D01*
X25299835Y-13202251D01*
X25296359Y-13198430D01*
X25292308Y-13195231D01*
X25292304Y-13195227D01*
X25120069Y-13059204D01*
X25120064Y-13059201D01*
X25116015Y-13056003D01*
X25115590Y-13055768D01*
X25070796Y-13002452D01*
X25061766Y-12932032D01*
X25092240Y-12867908D01*
X25113026Y-12849285D01*
X25240916Y-12758062D01*
X25245119Y-12755064D01*
X25265346Y-12734908D01*
X25404237Y-12596500D01*
X25407898Y-12592852D01*
X25541997Y-12406233D01*
X25544998Y-12400162D01*
X25626048Y-12236167D01*
X25643816Y-12200217D01*
X25659739Y-12147808D01*
X25709117Y-11985291D01*
X25709118Y-11985285D01*
X25710621Y-11980339D01*
X25726544Y-11859389D01*
X25740179Y-11755823D01*
X25740179Y-11755819D01*
X25740616Y-11752502D01*
X25742290Y-11684000D01*
X25731282Y-11550106D01*
X25723884Y-11460121D01*
X25723883Y-11460115D01*
X25723460Y-11454970D01*
X25667477Y-11232090D01*
X25575843Y-11021347D01*
X25573037Y-11017009D01*
X25453830Y-10832743D01*
X25453828Y-10832740D01*
X25451020Y-10828400D01*
X25437118Y-10813121D01*
X25299837Y-10662252D01*
X25299835Y-10662251D01*
X25296359Y-10658430D01*
X25292308Y-10655231D01*
X25292304Y-10655227D01*
X25120073Y-10519208D01*
X25116015Y-10516003D01*
X24914831Y-10404943D01*
X24797611Y-10363433D01*
X24703084Y-10329959D01*
X24703080Y-10329958D01*
X24698209Y-10328233D01*
X24693116Y-10327326D01*
X24693113Y-10327325D01*
X24477056Y-10288839D01*
X24477050Y-10288838D01*
X24471967Y-10287933D01*
X24398784Y-10287039D01*
X24247351Y-10285189D01*
X24247349Y-10285189D01*
X24242181Y-10285126D01*
X24090610Y-10308319D01*
X24020131Y-10319104D01*
X24020128Y-10319105D01*
X24015022Y-10319886D01*
X23992263Y-10327325D01*
X23801504Y-10389675D01*
X23801502Y-10389676D01*
X23796591Y-10391281D01*
X23592753Y-10497392D01*
X23588620Y-10500495D01*
X23588617Y-10500497D01*
X23482833Y-10579922D01*
X23408983Y-10635370D01*
X23405411Y-10639108D01*
X23255242Y-10796251D01*
X23250216Y-10801510D01*
X23247302Y-10805782D01*
X23247301Y-10805783D01*
X23159840Y-10933997D01*
X23120716Y-10991350D01*
X23023961Y-11199792D01*
X22962548Y-11421237D01*
X22938129Y-11649739D01*
X22951357Y-11879161D01*
X22952492Y-11884198D01*
X22952493Y-11884204D01*
X22975274Y-11985291D01*
X23001878Y-12103342D01*
X23088336Y-12316261D01*
X23091033Y-12320662D01*
X23091034Y-12320664D01*
X23136988Y-12395653D01*
X23208408Y-12512200D01*
X23358869Y-12685898D01*
X23362844Y-12689198D01*
X23362847Y-12689201D01*
X23407372Y-12726166D01*
X23535679Y-12832689D01*
X23540143Y-12835297D01*
X23540145Y-12835299D01*
X23557352Y-12845354D01*
X23606075Y-12896994D01*
X23619145Y-12966777D01*
X23592412Y-13032548D01*
X23569433Y-13054901D01*
X23493065Y-13112240D01*
X23408983Y-13175370D01*
X23250216Y-13341510D01*
X23120716Y-13531350D01*
X23023961Y-13739792D01*
X22962548Y-13961237D01*
X22938129Y-14189739D01*
X22938426Y-14194892D01*
X22938426Y-14194895D01*
X22939485Y-14213262D01*
X22951357Y-14419161D01*
X23001341Y-14640959D01*
X23001341Y-14640960D01*
X23001878Y-14643342D01*
X23001386Y-14643453D01*
X23002603Y-14711152D01*
X22970183Y-14766927D01*
X22479497Y-15257613D01*
X22467106Y-15268480D01*
X22442987Y-15286987D01*
X22383423Y-15364614D01*
X22360296Y-15394752D01*
X22360295Y-15394754D01*
X22349266Y-15409127D01*
X22349266Y-15409128D01*
X22343223Y-15423717D01*
X22304462Y-15517295D01*
X22290350Y-15551363D01*
X22275300Y-15665679D01*
X22270255Y-15704000D01*
X22271333Y-15712188D01*
X22274222Y-15734133D01*
X22275300Y-15750579D01*
X22275300Y-38053422D01*
X22274222Y-38069869D01*
X22270255Y-38100000D01*
X22271333Y-38108188D01*
X22275300Y-38138319D01*
X22275300Y-38138321D01*
X22288404Y-38237852D01*
X22290350Y-38252637D01*
X22293510Y-38260265D01*
X22293511Y-38260270D01*
X22326267Y-38339348D01*
X22328762Y-38345371D01*
X22349266Y-38394873D01*
X22378718Y-38433255D01*
X22442987Y-38517013D01*
X22449537Y-38522039D01*
X22449541Y-38522043D01*
X22467109Y-38535523D01*
X22479501Y-38546391D01*
X27459205Y-43526095D01*
X27493231Y-43588407D01*
X27488166Y-43659222D01*
X27445619Y-43716058D01*
X27379099Y-43740869D01*
X27370110Y-43741190D01*
X15220270Y-43741190D01*
X15152149Y-43721188D01*
X15131175Y-43704285D01*
X13802559Y-42375669D01*
X18883001Y-42375669D01*
X18883371Y-42382490D01*
X18888895Y-42433352D01*
X18892521Y-42448604D01*
X18937676Y-42569054D01*
X18946214Y-42584649D01*
X19022715Y-42686724D01*
X19035276Y-42699285D01*
X19137351Y-42775786D01*
X19152946Y-42784324D01*
X19273394Y-42829478D01*
X19288649Y-42833105D01*
X19339514Y-42838631D01*
X19346328Y-42839000D01*
X19793885Y-42839000D01*
X19809124Y-42834525D01*
X19810329Y-42833135D01*
X19812000Y-42825452D01*
X19812000Y-42820884D01*
X20320000Y-42820884D01*
X20324475Y-42836123D01*
X20325865Y-42837328D01*
X20333548Y-42838999D01*
X20785669Y-42838999D01*
X20792490Y-42838629D01*
X20843352Y-42833105D01*
X20858604Y-42829479D01*
X20979054Y-42784324D01*
X20994649Y-42775786D01*
X21096724Y-42699285D01*
X21109285Y-42686724D01*
X21185786Y-42584649D01*
X21194324Y-42569054D01*
X21239478Y-42448606D01*
X21243105Y-42433351D01*
X21248631Y-42382486D01*
X21249000Y-42375672D01*
X21249000Y-41928115D01*
X21244525Y-41912876D01*
X21243135Y-41911671D01*
X21235452Y-41910000D01*
X20338115Y-41910000D01*
X20322876Y-41914475D01*
X20321671Y-41915865D01*
X20320000Y-41923548D01*
X20320000Y-42820884D01*
X19812000Y-42820884D01*
X19812000Y-41928115D01*
X19807525Y-41912876D01*
X19806135Y-41911671D01*
X19798452Y-41910000D01*
X18901116Y-41910000D01*
X18885877Y-41914475D01*
X18884672Y-41915865D01*
X18883001Y-41923548D01*
X18883001Y-42375669D01*
X13802559Y-42375669D01*
X11051777Y-39624887D01*
X18877837Y-39624887D01*
X18892063Y-39841933D01*
X18893484Y-39847529D01*
X18893485Y-39847534D01*
X18923626Y-39966213D01*
X18945605Y-40052753D01*
X19036668Y-40250285D01*
X19132919Y-40386477D01*
X19155899Y-40453649D01*
X19138915Y-40522584D01*
X19105586Y-40560022D01*
X19035272Y-40612719D01*
X19022715Y-40625276D01*
X18946214Y-40727351D01*
X18937676Y-40742946D01*
X18892522Y-40863394D01*
X18888895Y-40878649D01*
X18883369Y-40929514D01*
X18883000Y-40936328D01*
X18883000Y-41383885D01*
X18887475Y-41399124D01*
X18888865Y-41400329D01*
X18896548Y-41402000D01*
X21230884Y-41402000D01*
X21246123Y-41397525D01*
X21247328Y-41396135D01*
X21248999Y-41388452D01*
X21248999Y-40936331D01*
X21248629Y-40929510D01*
X21243105Y-40878648D01*
X21239479Y-40863396D01*
X21194324Y-40742946D01*
X21185786Y-40727351D01*
X21109285Y-40625276D01*
X21096724Y-40612715D01*
X21026002Y-40559712D01*
X20983487Y-40502853D01*
X20978461Y-40432035D01*
X21004693Y-40378317D01*
X21041834Y-40333659D01*
X21045532Y-40329213D01*
X21151813Y-40139435D01*
X21153669Y-40133968D01*
X21153671Y-40133963D01*
X21219874Y-39938935D01*
X21219875Y-39938930D01*
X21221730Y-39933466D01*
X21252941Y-39718205D01*
X21254570Y-39656000D01*
X21238398Y-39480000D01*
X21235196Y-39445153D01*
X21235195Y-39445149D01*
X21234667Y-39439400D01*
X21216037Y-39373341D01*
X21216798Y-39302348D01*
X21220898Y-39290923D01*
X21264719Y-39185128D01*
X21265489Y-39183268D01*
X21268650Y-39175637D01*
X21274137Y-39133963D01*
X21283700Y-39061321D01*
X21283700Y-39061319D01*
X21287667Y-39031188D01*
X21288745Y-39023000D01*
X21284778Y-38992867D01*
X21283700Y-38976421D01*
X21283700Y-36305340D01*
X21303702Y-36237219D01*
X21316621Y-36221582D01*
X21316336Y-36221343D01*
X21320867Y-36215943D01*
X21325966Y-36211087D01*
X21426939Y-36059110D01*
X21448467Y-36002437D01*
X21489233Y-35895122D01*
X21489234Y-35895117D01*
X21491733Y-35888539D01*
X21497409Y-35848155D01*
X21516576Y-35711775D01*
X21516576Y-35711770D01*
X21517127Y-35707852D01*
X21517446Y-35685000D01*
X21497107Y-35503675D01*
X21437101Y-35331361D01*
X21340411Y-35176624D01*
X21275847Y-35111608D01*
X21216804Y-35052151D01*
X21216800Y-35052148D01*
X21211841Y-35047154D01*
X21203495Y-35041857D01*
X21132248Y-34996643D01*
X21057783Y-34949386D01*
X20938105Y-34906770D01*
X20892527Y-34890540D01*
X20892525Y-34890539D01*
X20885893Y-34888178D01*
X20878907Y-34887345D01*
X20878903Y-34887344D01*
X20749326Y-34871894D01*
X20704714Y-34866574D01*
X20697711Y-34867310D01*
X20697710Y-34867310D01*
X20651475Y-34872170D01*
X20523251Y-34885646D01*
X20516583Y-34887916D01*
X20357190Y-34942178D01*
X20357187Y-34942179D01*
X20350523Y-34944448D01*
X20195114Y-35040056D01*
X20149729Y-35084500D01*
X20073560Y-35159091D01*
X20064750Y-35167718D01*
X19965908Y-35321090D01*
X19963499Y-35327710D01*
X19963497Y-35327713D01*
X19905910Y-35485932D01*
X19903502Y-35492549D01*
X19880634Y-35673573D01*
X19881321Y-35680580D01*
X19881321Y-35680583D01*
X19885855Y-35726823D01*
X19898439Y-35855164D01*
X19956033Y-36028299D01*
X19959682Y-36034324D01*
X20036938Y-36161888D01*
X20050554Y-36184371D01*
X20076354Y-36211087D01*
X20078936Y-36213761D01*
X20111869Y-36276658D01*
X20114300Y-36301289D01*
X20114300Y-38345287D01*
X20094298Y-38413408D01*
X20040642Y-38459901D01*
X19986651Y-38471276D01*
X19986111Y-38471269D01*
X19972746Y-38471094D01*
X19967049Y-38472073D01*
X19967048Y-38472073D01*
X19764065Y-38506952D01*
X19764062Y-38506953D01*
X19758375Y-38507930D01*
X19554307Y-38583214D01*
X19445868Y-38647729D01*
X19410100Y-38669009D01*
X19367376Y-38694427D01*
X19203842Y-38837842D01*
X19200270Y-38842373D01*
X19081403Y-38993155D01*
X19069181Y-39008658D01*
X19066493Y-39013767D01*
X19041475Y-39061319D01*
X18967905Y-39201154D01*
X18966192Y-39206671D01*
X18917717Y-39362785D01*
X18903403Y-39408882D01*
X18877837Y-39624887D01*
X11051777Y-39624887D01*
X10956278Y-39529388D01*
X10922252Y-39467076D01*
X10928965Y-39392074D01*
X10937211Y-39372168D01*
X10937213Y-39372161D01*
X10939105Y-39367594D01*
X10940260Y-39362785D01*
X10993380Y-39141524D01*
X10993381Y-39141518D01*
X10994535Y-39136711D01*
X11013165Y-38900000D01*
X10994535Y-38663289D01*
X10990800Y-38647729D01*
X10950647Y-38480482D01*
X10939105Y-38432406D01*
X10926272Y-38401423D01*
X10850135Y-38217611D01*
X10850133Y-38217607D01*
X10848240Y-38213037D01*
X10833693Y-38189299D01*
X10726759Y-38014798D01*
X10726755Y-38014792D01*
X10724176Y-38010584D01*
X10569969Y-37830031D01*
X10389416Y-37675824D01*
X10385208Y-37673245D01*
X10385202Y-37673241D01*
X10191183Y-37554346D01*
X10186963Y-37551760D01*
X10182393Y-37549867D01*
X10182389Y-37549865D01*
X9972167Y-37462789D01*
X9972165Y-37462788D01*
X9967594Y-37460895D01*
X9887391Y-37441640D01*
X9741524Y-37406620D01*
X9741518Y-37406619D01*
X9736711Y-37405465D01*
X9500000Y-37386835D01*
X9263289Y-37405465D01*
X9258482Y-37406619D01*
X9258476Y-37406620D01*
X9112609Y-37441640D01*
X9032406Y-37460895D01*
X9027835Y-37462788D01*
X9027833Y-37462789D01*
X8817611Y-37549865D01*
X8817607Y-37549867D01*
X8813037Y-37551760D01*
X8808817Y-37554346D01*
X8614798Y-37673241D01*
X8614792Y-37673245D01*
X8610584Y-37675824D01*
X8430031Y-37830031D01*
X8275824Y-38010584D01*
X8273245Y-38014792D01*
X8273241Y-38014798D01*
X8166307Y-38189299D01*
X8151760Y-38213037D01*
X8149867Y-38217607D01*
X8149865Y-38217611D01*
X8073728Y-38401423D01*
X8060895Y-38432406D01*
X8049353Y-38480482D01*
X8009201Y-38647729D01*
X8005465Y-38663289D01*
X7986835Y-38900000D01*
X508000Y-38900000D01*
X508000Y-36800000D01*
X2986835Y-36800000D01*
X3005465Y-37036711D01*
X3006619Y-37041518D01*
X3006620Y-37041524D01*
X3035193Y-37160539D01*
X3060895Y-37267594D01*
X3062788Y-37272165D01*
X3062789Y-37272167D01*
X3149742Y-37482090D01*
X3151760Y-37486963D01*
X3154346Y-37491183D01*
X3273241Y-37685202D01*
X3273245Y-37685208D01*
X3275824Y-37689416D01*
X3430031Y-37869969D01*
X3610584Y-38024176D01*
X3614792Y-38026755D01*
X3614798Y-38026759D01*
X3747678Y-38108188D01*
X3813037Y-38148240D01*
X3817607Y-38150133D01*
X3817611Y-38150135D01*
X4019818Y-38233891D01*
X4032406Y-38239105D01*
X4088771Y-38252637D01*
X4258476Y-38293380D01*
X4258482Y-38293381D01*
X4263289Y-38294535D01*
X4500000Y-38313165D01*
X4736711Y-38294535D01*
X4741518Y-38293381D01*
X4741524Y-38293380D01*
X4911229Y-38252637D01*
X4967594Y-38239105D01*
X4980182Y-38233891D01*
X5182389Y-38150135D01*
X5182393Y-38150133D01*
X5186963Y-38148240D01*
X5252322Y-38108188D01*
X5385202Y-38026759D01*
X5385208Y-38026755D01*
X5389416Y-38024176D01*
X5569969Y-37869969D01*
X5724176Y-37689416D01*
X5726755Y-37685208D01*
X5726759Y-37685202D01*
X5845654Y-37491183D01*
X5848240Y-37486963D01*
X5850259Y-37482090D01*
X5937211Y-37272167D01*
X5937212Y-37272165D01*
X5939105Y-37267594D01*
X5964807Y-37160539D01*
X5993380Y-37041524D01*
X5993381Y-37041518D01*
X5994535Y-37036711D01*
X6013165Y-36800000D01*
X5994535Y-36563289D01*
X5967007Y-36448624D01*
X5940260Y-36337218D01*
X5939105Y-36332406D01*
X5933616Y-36319154D01*
X5850135Y-36117611D01*
X5850133Y-36117607D01*
X5848240Y-36113037D01*
X5827453Y-36079116D01*
X5726759Y-35914798D01*
X5726755Y-35914792D01*
X5724176Y-35910584D01*
X5569969Y-35730031D01*
X5389416Y-35575824D01*
X5385208Y-35573245D01*
X5385202Y-35573241D01*
X5191183Y-35454346D01*
X5186963Y-35451760D01*
X5182393Y-35449867D01*
X5182389Y-35449865D01*
X4972167Y-35362789D01*
X4972165Y-35362788D01*
X4967594Y-35360895D01*
X4844576Y-35331361D01*
X4741524Y-35306620D01*
X4741518Y-35306619D01*
X4736711Y-35305465D01*
X4500000Y-35286835D01*
X4263289Y-35305465D01*
X4258482Y-35306619D01*
X4258476Y-35306620D01*
X4155424Y-35331361D01*
X4032406Y-35360895D01*
X4027835Y-35362788D01*
X4027833Y-35362789D01*
X3817611Y-35449865D01*
X3817607Y-35449867D01*
X3813037Y-35451760D01*
X3808817Y-35454346D01*
X3614798Y-35573241D01*
X3614792Y-35573245D01*
X3610584Y-35575824D01*
X3430031Y-35730031D01*
X3275824Y-35910584D01*
X3273245Y-35914792D01*
X3273241Y-35914798D01*
X3172547Y-36079116D01*
X3151760Y-36113037D01*
X3149867Y-36117607D01*
X3149865Y-36117611D01*
X3066384Y-36319154D01*
X3060895Y-36332406D01*
X3059740Y-36337218D01*
X3032994Y-36448624D01*
X3005465Y-36563289D01*
X2986835Y-36800000D01*
X508000Y-36800000D01*
X508000Y-32935774D01*
X2638102Y-32935774D01*
X2646751Y-33166158D01*
X2647846Y-33171377D01*
X2664518Y-33250835D01*
X2694093Y-33391791D01*
X2696051Y-33396750D01*
X2696052Y-33396752D01*
X2752411Y-33539460D01*
X2778776Y-33606221D01*
X2781543Y-33610780D01*
X2781544Y-33610783D01*
X2790139Y-33624947D01*
X2898377Y-33803317D01*
X2901874Y-33807347D01*
X2988438Y-33907103D01*
X3049477Y-33977445D01*
X3053608Y-33980832D01*
X3223627Y-34120240D01*
X3223633Y-34120244D01*
X3227755Y-34123624D01*
X3232391Y-34126263D01*
X3232394Y-34126265D01*
X3284823Y-34156109D01*
X3428114Y-34237675D01*
X3644825Y-34316337D01*
X3650074Y-34317286D01*
X3650077Y-34317287D01*
X3867608Y-34356623D01*
X3867615Y-34356624D01*
X3871692Y-34357361D01*
X3889414Y-34358197D01*
X3894356Y-34358430D01*
X3894363Y-34358430D01*
X3895844Y-34358500D01*
X4057890Y-34358500D01*
X4124809Y-34352822D01*
X4224409Y-34344371D01*
X4224413Y-34344370D01*
X4229720Y-34343920D01*
X4234875Y-34342582D01*
X4234881Y-34342581D01*
X4447703Y-34287343D01*
X4447707Y-34287342D01*
X4452872Y-34286001D01*
X4457738Y-34283809D01*
X4457741Y-34283808D01*
X4658202Y-34193507D01*
X4663075Y-34191312D01*
X4854319Y-34062559D01*
X5021135Y-33903424D01*
X5158754Y-33718458D01*
X5263240Y-33512949D01*
X5299321Y-33396752D01*
X5330024Y-33297871D01*
X5331607Y-33292773D01*
X5337165Y-33250835D01*
X5361198Y-33069511D01*
X5361198Y-33069506D01*
X5361898Y-33064226D01*
X5361227Y-33046355D01*
X7287042Y-33046355D01*
X7287405Y-33050503D01*
X7287405Y-33050507D01*
X7289068Y-33069511D01*
X7312613Y-33338625D01*
X7313523Y-33342697D01*
X7313524Y-33342702D01*
X7357505Y-33539460D01*
X7376613Y-33624947D01*
X7477919Y-33900288D01*
X7479866Y-33903981D01*
X7479867Y-33903983D01*
X7595671Y-34123624D01*
X7614751Y-34159813D01*
X7784705Y-34398961D01*
X7984794Y-34613531D01*
X8211504Y-34799752D01*
X8460851Y-34954354D01*
X8464668Y-34956070D01*
X8464671Y-34956071D01*
X8538709Y-34989345D01*
X8728456Y-35074620D01*
X8765955Y-35085799D01*
X9005618Y-35157247D01*
X9005626Y-35157249D01*
X9009615Y-35158438D01*
X9013731Y-35159090D01*
X9013736Y-35159091D01*
X9295922Y-35203784D01*
X9295927Y-35203784D01*
X9299390Y-35204333D01*
X9348486Y-35206563D01*
X9389732Y-35208436D01*
X9389751Y-35208436D01*
X9391151Y-35208500D01*
X9574420Y-35208500D01*
X9792742Y-35193999D01*
X10080341Y-35136009D01*
X10338396Y-35047154D01*
X10353780Y-35041857D01*
X10353781Y-35041856D01*
X10357744Y-35040492D01*
X10361486Y-35038618D01*
X10361491Y-35038616D01*
X10616333Y-34911000D01*
X10616335Y-34910999D01*
X10620077Y-34909125D01*
X10862732Y-34744217D01*
X11081445Y-34548665D01*
X11272373Y-34325905D01*
X11378019Y-34163225D01*
X11429884Y-34083360D01*
X11429887Y-34083355D01*
X11432163Y-34079850D01*
X11558007Y-33814823D01*
X11560408Y-33807347D01*
X11646416Y-33539460D01*
X11647694Y-33535480D01*
X11699649Y-33246730D01*
X11708179Y-33058895D01*
X11712769Y-32957815D01*
X11712769Y-32957810D01*
X11712958Y-32953645D01*
X11711395Y-32935774D01*
X13638102Y-32935774D01*
X13646751Y-33166158D01*
X13647846Y-33171377D01*
X13664518Y-33250835D01*
X13694093Y-33391791D01*
X13696051Y-33396750D01*
X13696052Y-33396752D01*
X13752411Y-33539460D01*
X13778776Y-33606221D01*
X13781543Y-33610780D01*
X13781544Y-33610783D01*
X13790139Y-33624947D01*
X13898377Y-33803317D01*
X13901874Y-33807347D01*
X13988438Y-33907103D01*
X14049477Y-33977445D01*
X14053608Y-33980832D01*
X14223627Y-34120240D01*
X14223633Y-34120244D01*
X14227755Y-34123624D01*
X14232391Y-34126263D01*
X14232394Y-34126265D01*
X14284823Y-34156109D01*
X14428114Y-34237675D01*
X14644825Y-34316337D01*
X14650074Y-34317286D01*
X14650077Y-34317287D01*
X14867608Y-34356623D01*
X14867615Y-34356624D01*
X14871692Y-34357361D01*
X14889414Y-34358197D01*
X14894356Y-34358430D01*
X14894363Y-34358430D01*
X14895844Y-34358500D01*
X15057890Y-34358500D01*
X15124809Y-34352822D01*
X15224409Y-34344371D01*
X15224413Y-34344370D01*
X15229720Y-34343920D01*
X15234875Y-34342582D01*
X15234881Y-34342581D01*
X15447703Y-34287343D01*
X15447707Y-34287342D01*
X15452872Y-34286001D01*
X15457738Y-34283809D01*
X15457741Y-34283808D01*
X15658202Y-34193507D01*
X15663075Y-34191312D01*
X15854319Y-34062559D01*
X16021135Y-33903424D01*
X16158754Y-33718458D01*
X16263240Y-33512949D01*
X16299321Y-33396752D01*
X16330024Y-33297871D01*
X16331607Y-33292773D01*
X16337165Y-33250835D01*
X16361198Y-33069511D01*
X16361198Y-33069506D01*
X16361898Y-33064226D01*
X16353249Y-32833842D01*
X16350687Y-32821629D01*
X16307002Y-32613428D01*
X16305907Y-32608209D01*
X16249161Y-32464520D01*
X16223185Y-32398744D01*
X16223184Y-32398742D01*
X16221224Y-32393779D01*
X16215279Y-32383981D01*
X16104390Y-32201243D01*
X16101623Y-32196683D01*
X16014270Y-32096017D01*
X15954023Y-32026588D01*
X15954021Y-32026586D01*
X15950523Y-32022555D01*
X15882025Y-31966390D01*
X15776373Y-31879760D01*
X15776367Y-31879756D01*
X15772245Y-31876376D01*
X15767609Y-31873737D01*
X15767606Y-31873735D01*
X15601924Y-31779423D01*
X15571886Y-31762325D01*
X15355175Y-31683663D01*
X15349926Y-31682714D01*
X15349923Y-31682713D01*
X15132392Y-31643377D01*
X15132385Y-31643376D01*
X15128308Y-31642639D01*
X15110586Y-31641803D01*
X15105644Y-31641570D01*
X15105637Y-31641570D01*
X15104156Y-31641500D01*
X14942110Y-31641500D01*
X14879188Y-31646839D01*
X14775591Y-31655629D01*
X14775587Y-31655630D01*
X14770280Y-31656080D01*
X14765125Y-31657418D01*
X14765119Y-31657419D01*
X14552297Y-31712657D01*
X14552293Y-31712658D01*
X14547128Y-31713999D01*
X14542262Y-31716191D01*
X14542259Y-31716192D01*
X14433980Y-31764968D01*
X14336925Y-31808688D01*
X14145681Y-31937441D01*
X13978865Y-32096576D01*
X13841246Y-32281542D01*
X13736760Y-32487051D01*
X13735178Y-32492145D01*
X13735177Y-32492148D01*
X13681338Y-32665537D01*
X13668393Y-32707227D01*
X13667692Y-32712516D01*
X13652304Y-32828623D01*
X13638102Y-32935774D01*
X11711395Y-32935774D01*
X11687751Y-32665537D01*
X11687387Y-32661375D01*
X11682270Y-32638482D01*
X11624299Y-32379131D01*
X11624297Y-32379124D01*
X11623387Y-32375053D01*
X11613176Y-32347299D01*
X11559437Y-32201243D01*
X11522081Y-32099712D01*
X11455062Y-31972598D01*
X11387202Y-31843891D01*
X11387201Y-31843890D01*
X11385249Y-31840187D01*
X11215295Y-31601039D01*
X11015206Y-31386469D01*
X10788496Y-31200248D01*
X10539149Y-31045646D01*
X10535332Y-31043930D01*
X10535329Y-31043929D01*
X10402952Y-30984437D01*
X10271544Y-30925380D01*
X10124444Y-30881527D01*
X9994382Y-30842753D01*
X9994374Y-30842751D01*
X9990385Y-30841562D01*
X9986269Y-30840910D01*
X9986264Y-30840909D01*
X9704078Y-30796216D01*
X9704073Y-30796216D01*
X9700610Y-30795667D01*
X9651514Y-30793437D01*
X9610268Y-30791564D01*
X9610249Y-30791564D01*
X9608849Y-30791500D01*
X9425580Y-30791500D01*
X9207258Y-30806001D01*
X8919659Y-30863991D01*
X8803908Y-30903847D01*
X8662101Y-30952675D01*
X8642256Y-30959508D01*
X8638514Y-30961382D01*
X8638509Y-30961384D01*
X8392124Y-31084765D01*
X8379923Y-31090875D01*
X8314220Y-31135527D01*
X8187364Y-31221738D01*
X8137268Y-31255783D01*
X8134152Y-31258569D01*
X7970205Y-31405155D01*
X7918555Y-31451335D01*
X7727627Y-31674095D01*
X7683651Y-31741812D01*
X7594067Y-31879760D01*
X7567837Y-31920150D01*
X7441993Y-32185177D01*
X7440714Y-32189160D01*
X7440713Y-32189163D01*
X7438299Y-32196683D01*
X7352306Y-32464520D01*
X7300351Y-32753270D01*
X7298068Y-32803551D01*
X7291063Y-32957815D01*
X7287042Y-33046355D01*
X5361227Y-33046355D01*
X5353249Y-32833842D01*
X5350687Y-32821629D01*
X5307002Y-32613428D01*
X5305907Y-32608209D01*
X5249161Y-32464520D01*
X5223185Y-32398744D01*
X5223184Y-32398742D01*
X5221224Y-32393779D01*
X5215279Y-32383981D01*
X5104390Y-32201243D01*
X5101623Y-32196683D01*
X5014270Y-32096017D01*
X4954023Y-32026588D01*
X4954021Y-32026586D01*
X4950523Y-32022555D01*
X4882025Y-31966390D01*
X4776373Y-31879760D01*
X4776367Y-31879756D01*
X4772245Y-31876376D01*
X4767609Y-31873737D01*
X4767606Y-31873735D01*
X4601924Y-31779423D01*
X4571886Y-31762325D01*
X4355175Y-31683663D01*
X4349926Y-31682714D01*
X4349923Y-31682713D01*
X4132392Y-31643377D01*
X4132385Y-31643376D01*
X4128308Y-31642639D01*
X4110586Y-31641803D01*
X4105644Y-31641570D01*
X4105637Y-31641570D01*
X4104156Y-31641500D01*
X3942110Y-31641500D01*
X3879188Y-31646839D01*
X3775591Y-31655629D01*
X3775587Y-31655630D01*
X3770280Y-31656080D01*
X3765125Y-31657418D01*
X3765119Y-31657419D01*
X3552297Y-31712657D01*
X3552293Y-31712658D01*
X3547128Y-31713999D01*
X3542262Y-31716191D01*
X3542259Y-31716192D01*
X3433980Y-31764968D01*
X3336925Y-31808688D01*
X3145681Y-31937441D01*
X2978865Y-32096576D01*
X2841246Y-32281542D01*
X2736760Y-32487051D01*
X2735178Y-32492145D01*
X2735177Y-32492148D01*
X2681338Y-32665537D01*
X2668393Y-32707227D01*
X2667692Y-32712516D01*
X2652304Y-32828623D01*
X2638102Y-32935774D01*
X508000Y-32935774D01*
X508000Y-20912134D01*
X6401500Y-20912134D01*
X6408255Y-20974316D01*
X6459385Y-21110705D01*
X6546739Y-21227261D01*
X6663295Y-21314615D01*
X6799684Y-21365745D01*
X6861866Y-21372500D01*
X10158134Y-21372500D01*
X10220316Y-21365745D01*
X10356705Y-21314615D01*
X10473261Y-21227261D01*
X10560615Y-21110705D01*
X10611745Y-20974316D01*
X10618500Y-20912134D01*
X10618500Y-18815866D01*
X10611745Y-18753684D01*
X10560615Y-18617295D01*
X10473261Y-18500739D01*
X10356705Y-18413385D01*
X10220316Y-18362255D01*
X10158134Y-18355500D01*
X6861866Y-18355500D01*
X6799684Y-18362255D01*
X6663295Y-18413385D01*
X6546739Y-18500739D01*
X6459385Y-18617295D01*
X6408255Y-18753684D01*
X6401500Y-18815866D01*
X6401500Y-20912134D01*
X508000Y-20912134D01*
X508000Y-17840780D01*
X528002Y-17772659D01*
X581658Y-17726166D01*
X651932Y-17716062D01*
X706271Y-17737567D01*
X878346Y-17858056D01*
X1077924Y-17951120D01*
X1290629Y-18008115D01*
X1510000Y-18027307D01*
X1729371Y-18008115D01*
X1942076Y-17951120D01*
X2141654Y-17858056D01*
X2263613Y-17772659D01*
X2317527Y-17734908D01*
X2317529Y-17734906D01*
X2322038Y-17731749D01*
X2477749Y-17576038D01*
X2604056Y-17395653D01*
X2606379Y-17390671D01*
X2606382Y-17390666D01*
X2694795Y-17201061D01*
X2697120Y-17196076D01*
X2754115Y-16983371D01*
X2773307Y-16764000D01*
X2754115Y-16544629D01*
X2697120Y-16331924D01*
X2653585Y-16238562D01*
X2606382Y-16137334D01*
X2606379Y-16137329D01*
X2604056Y-16132347D01*
X2477749Y-15951962D01*
X2322038Y-15796251D01*
X2313730Y-15790433D01*
X2207237Y-15715866D01*
X2141654Y-15669944D01*
X1942076Y-15576880D01*
X1729371Y-15519885D01*
X1510000Y-15500693D01*
X1290629Y-15519885D01*
X1077924Y-15576880D01*
X1028116Y-15600106D01*
X883334Y-15667618D01*
X883329Y-15667621D01*
X878347Y-15669944D01*
X873840Y-15673100D01*
X873838Y-15673101D01*
X706271Y-15790433D01*
X638997Y-15813121D01*
X570136Y-15795836D01*
X521552Y-15744066D01*
X508000Y-15687220D01*
X508000Y-14268930D01*
X14497725Y-14268930D01*
X14515572Y-14495699D01*
X14517115Y-14505446D01*
X14570217Y-14726627D01*
X14573266Y-14736012D01*
X14660313Y-14946163D01*
X14664795Y-14954958D01*
X14786230Y-15153121D01*
X14784149Y-15154396D01*
X14804720Y-15211739D01*
X14788758Y-15280918D01*
X14754503Y-15319974D01*
X14646739Y-15400739D01*
X14559385Y-15517295D01*
X14508255Y-15653684D01*
X14501500Y-15715866D01*
X14501500Y-17812134D01*
X14508255Y-17874316D01*
X14559385Y-18010705D01*
X14646739Y-18127261D01*
X14763295Y-18214615D01*
X14899684Y-18265745D01*
X14961866Y-18272500D01*
X17058134Y-18272500D01*
X17120316Y-18265745D01*
X17256705Y-18214615D01*
X17373261Y-18127261D01*
X17460615Y-18010705D01*
X17511745Y-17874316D01*
X17518500Y-17812134D01*
X17518500Y-15715866D01*
X17511745Y-15653684D01*
X17460615Y-15517295D01*
X17373261Y-15400739D01*
X17265497Y-15319974D01*
X17222982Y-15263115D01*
X17217956Y-15192296D01*
X17235176Y-15153983D01*
X17233770Y-15153121D01*
X17355205Y-14954958D01*
X17359687Y-14946163D01*
X17446734Y-14736012D01*
X17449783Y-14726627D01*
X17502885Y-14505446D01*
X17504428Y-14495699D01*
X17522275Y-14268930D01*
X17522275Y-14259070D01*
X17504428Y-14032301D01*
X17502885Y-14022554D01*
X17449783Y-13801373D01*
X17446734Y-13791988D01*
X17359687Y-13581837D01*
X17355205Y-13573042D01*
X17252568Y-13405555D01*
X17242110Y-13396093D01*
X17233334Y-13399876D01*
X16099095Y-14534115D01*
X16036783Y-14568141D01*
X15965968Y-14563076D01*
X15920905Y-14534115D01*
X14789710Y-13402920D01*
X14777330Y-13396160D01*
X14769680Y-13401887D01*
X14664795Y-13573042D01*
X14660313Y-13581837D01*
X14573266Y-13791988D01*
X14570217Y-13801373D01*
X14517115Y-14022554D01*
X14515572Y-14032301D01*
X14497725Y-14259070D01*
X14497725Y-14268930D01*
X508000Y-14268930D01*
X508000Y-12840780D01*
X528002Y-12772659D01*
X581658Y-12726166D01*
X651932Y-12716062D01*
X706271Y-12737567D01*
X878346Y-12858056D01*
X1077924Y-12951120D01*
X1290629Y-13008115D01*
X1510000Y-13027307D01*
X1729371Y-13008115D01*
X1942076Y-12951120D01*
X2141654Y-12858056D01*
X2263613Y-12772659D01*
X2317527Y-12734908D01*
X2317529Y-12734906D01*
X2322038Y-12731749D01*
X2477749Y-12576038D01*
X2525531Y-12507799D01*
X2600899Y-12400162D01*
X2600900Y-12400160D01*
X2604056Y-12395653D01*
X2606379Y-12390671D01*
X2606382Y-12390666D01*
X2678425Y-12236167D01*
X2697120Y-12196076D01*
X2754115Y-11983371D01*
X2773307Y-11764000D01*
X14496835Y-11764000D01*
X14515465Y-12000711D01*
X14570895Y-12231594D01*
X14572788Y-12236165D01*
X14572789Y-12236167D01*
X14641311Y-12401594D01*
X14661760Y-12450963D01*
X14664346Y-12455183D01*
X14783241Y-12649202D01*
X14783245Y-12649208D01*
X14785824Y-12653416D01*
X14940031Y-12833969D01*
X14943787Y-12837177D01*
X15102526Y-12972753D01*
X15136402Y-13018686D01*
X15145878Y-13040668D01*
X15997188Y-13891978D01*
X16011132Y-13899592D01*
X16012965Y-13899461D01*
X16019580Y-13895210D01*
X16871080Y-13043710D01*
X16892026Y-13005352D01*
X16920782Y-12969928D01*
X17076213Y-12837177D01*
X17079969Y-12833969D01*
X17234176Y-12653416D01*
X17236755Y-12649208D01*
X17236759Y-12649202D01*
X17355654Y-12455183D01*
X17358240Y-12450963D01*
X17378690Y-12401594D01*
X17447211Y-12236167D01*
X17447212Y-12236165D01*
X17449105Y-12231594D01*
X17504535Y-12000711D01*
X17523165Y-11764000D01*
X17504535Y-11527289D01*
X17488410Y-11460121D01*
X17450260Y-11301218D01*
X17449105Y-11296406D01*
X17447211Y-11291833D01*
X17360135Y-11081611D01*
X17360133Y-11081607D01*
X17358240Y-11077037D01*
X17308608Y-10996045D01*
X17236759Y-10878798D01*
X17236755Y-10878792D01*
X17234176Y-10874584D01*
X17079969Y-10694031D01*
X16899416Y-10539824D01*
X16895208Y-10537245D01*
X16895202Y-10537241D01*
X16701183Y-10418346D01*
X16696963Y-10415760D01*
X16692393Y-10413867D01*
X16692389Y-10413865D01*
X16482167Y-10326789D01*
X16482165Y-10326788D01*
X16477594Y-10324895D01*
X16397391Y-10305640D01*
X16251524Y-10270620D01*
X16251518Y-10270619D01*
X16246711Y-10269465D01*
X16010000Y-10250835D01*
X15773289Y-10269465D01*
X15768482Y-10270619D01*
X15768476Y-10270620D01*
X15622609Y-10305640D01*
X15542406Y-10324895D01*
X15537835Y-10326788D01*
X15537833Y-10326789D01*
X15327611Y-10413865D01*
X15327607Y-10413867D01*
X15323037Y-10415760D01*
X15318817Y-10418346D01*
X15124798Y-10537241D01*
X15124792Y-10537245D01*
X15120584Y-10539824D01*
X14940031Y-10694031D01*
X14785824Y-10874584D01*
X14783245Y-10878792D01*
X14783241Y-10878798D01*
X14711392Y-10996045D01*
X14661760Y-11077037D01*
X14659867Y-11081607D01*
X14659865Y-11081611D01*
X14572789Y-11291833D01*
X14570895Y-11296406D01*
X14569740Y-11301218D01*
X14531591Y-11460121D01*
X14515465Y-11527289D01*
X14496835Y-11764000D01*
X2773307Y-11764000D01*
X2754115Y-11544629D01*
X2697120Y-11331924D01*
X2633317Y-11195097D01*
X2606382Y-11137334D01*
X2606379Y-11137329D01*
X2604056Y-11132347D01*
X2580251Y-11098350D01*
X2480908Y-10956473D01*
X2480906Y-10956470D01*
X2477749Y-10951962D01*
X2322038Y-10796251D01*
X2313730Y-10790433D01*
X2240338Y-10739044D01*
X2141654Y-10669944D01*
X1942076Y-10576880D01*
X1729371Y-10519885D01*
X1510000Y-10500693D01*
X1290629Y-10519885D01*
X1077924Y-10576880D01*
X984562Y-10620415D01*
X883334Y-10667618D01*
X883329Y-10667621D01*
X878347Y-10669944D01*
X873840Y-10673100D01*
X873838Y-10673101D01*
X706271Y-10790433D01*
X638997Y-10813121D01*
X570136Y-10795836D01*
X521552Y-10744066D01*
X508000Y-10687220D01*
X508000Y-9712134D01*
X6401500Y-9712134D01*
X6408255Y-9774316D01*
X6459385Y-9910705D01*
X6546739Y-10027261D01*
X6663295Y-10114615D01*
X6799684Y-10165745D01*
X6861866Y-10172500D01*
X10158134Y-10172500D01*
X10220316Y-10165745D01*
X10356705Y-10114615D01*
X10473261Y-10027261D01*
X10560615Y-9910705D01*
X10611745Y-9774316D01*
X10618500Y-9712134D01*
X10618500Y-7615866D01*
X10612051Y-7556500D01*
X25223393Y-7556500D01*
X25243789Y-7815650D01*
X25244943Y-7820457D01*
X25244944Y-7820463D01*
X25266703Y-7911096D01*
X25304473Y-8068420D01*
X25403952Y-8308584D01*
X25539777Y-8530229D01*
X25542994Y-8533996D01*
X25542995Y-8533997D01*
X25569579Y-8565123D01*
X25708602Y-8727898D01*
X25712364Y-8731111D01*
X25850176Y-8848813D01*
X25906271Y-8896723D01*
X26127916Y-9032548D01*
X26132486Y-9034441D01*
X26132488Y-9034442D01*
X26363507Y-9130133D01*
X26368080Y-9132027D01*
X26454543Y-9152785D01*
X26616037Y-9191556D01*
X26616043Y-9191557D01*
X26620850Y-9192711D01*
X26880000Y-9213107D01*
X27139150Y-9192711D01*
X27143957Y-9191557D01*
X27143963Y-9191556D01*
X27305457Y-9152785D01*
X27391920Y-9132027D01*
X27396493Y-9130133D01*
X27627512Y-9034442D01*
X27627514Y-9034441D01*
X27632084Y-9032548D01*
X27853729Y-8896723D01*
X27909825Y-8848813D01*
X28047636Y-8731111D01*
X28051398Y-8727898D01*
X28190421Y-8565123D01*
X28217005Y-8533997D01*
X28217006Y-8533996D01*
X28220223Y-8530229D01*
X28356048Y-8308584D01*
X28455527Y-8068420D01*
X28493297Y-7911096D01*
X28515056Y-7820463D01*
X28515057Y-7820457D01*
X28516211Y-7815650D01*
X28536607Y-7556500D01*
X28516211Y-7297350D01*
X28500686Y-7232680D01*
X28458898Y-7058623D01*
X28455527Y-7044580D01*
X28444640Y-7018297D01*
X28357942Y-6808988D01*
X28357941Y-6808986D01*
X28356048Y-6804416D01*
X28220223Y-6582771D01*
X28209093Y-6569739D01*
X29923129Y-6569739D01*
X29936357Y-6799161D01*
X29937492Y-6804198D01*
X29937493Y-6804204D01*
X29975204Y-6971539D01*
X29986878Y-7023342D01*
X30073336Y-7236261D01*
X30076033Y-7240662D01*
X30076034Y-7240664D01*
X30112848Y-7300739D01*
X30193408Y-7432200D01*
X30343869Y-7605898D01*
X30347844Y-7609198D01*
X30347847Y-7609201D01*
X30379103Y-7635150D01*
X30520679Y-7752689D01*
X30628424Y-7815650D01*
X30677870Y-7844544D01*
X30726594Y-7896183D01*
X30740300Y-7953332D01*
X30740300Y-14006422D01*
X30739222Y-14022869D01*
X30735255Y-14053000D01*
X30740300Y-14091319D01*
X30740300Y-14091321D01*
X30755350Y-14205637D01*
X30779082Y-14262930D01*
X30814266Y-14347873D01*
X30848423Y-14392386D01*
X30907987Y-14470013D01*
X30914537Y-14475039D01*
X30914541Y-14475043D01*
X30932109Y-14488523D01*
X30944501Y-14499391D01*
X40179194Y-23734085D01*
X40213220Y-23796397D01*
X40216099Y-23823180D01*
X40216099Y-27332047D01*
X40196097Y-27400168D01*
X40142441Y-27446661D01*
X40072167Y-27456765D01*
X40007587Y-27427271D01*
X40000693Y-27420831D01*
X39887804Y-27307151D01*
X39887800Y-27307148D01*
X39882841Y-27302154D01*
X39871657Y-27295056D01*
X39737246Y-27209757D01*
X39728783Y-27204386D01*
X39613536Y-27163348D01*
X39563527Y-27145540D01*
X39563525Y-27145539D01*
X39556893Y-27143178D01*
X39549907Y-27142345D01*
X39549903Y-27142344D01*
X39420326Y-27126894D01*
X39375714Y-27121574D01*
X39368711Y-27122310D01*
X39368710Y-27122310D01*
X39322475Y-27127170D01*
X39194251Y-27140646D01*
X39187583Y-27142916D01*
X39028190Y-27197178D01*
X39028187Y-27197179D01*
X39021523Y-27199448D01*
X39007354Y-27208165D01*
X39004766Y-27209757D01*
X38936264Y-27228414D01*
X38868550Y-27207074D01*
X38823123Y-27152514D01*
X38814405Y-27082054D01*
X38825918Y-27047152D01*
X38827939Y-27044110D01*
X38830441Y-27037524D01*
X38890233Y-26880122D01*
X38890234Y-26880117D01*
X38892733Y-26873539D01*
X38898409Y-26833155D01*
X38917576Y-26696775D01*
X38917576Y-26696770D01*
X38918127Y-26692852D01*
X38918446Y-26670000D01*
X38898107Y-26488675D01*
X38838101Y-26316361D01*
X38741411Y-26161624D01*
X38676847Y-26096608D01*
X38617804Y-26037151D01*
X38617800Y-26037148D01*
X38612841Y-26032154D01*
X38601657Y-26025056D01*
X38553451Y-25994464D01*
X38458783Y-25934386D01*
X38352090Y-25896394D01*
X38293527Y-25875540D01*
X38293525Y-25875539D01*
X38286893Y-25873178D01*
X38279907Y-25872345D01*
X38279903Y-25872344D01*
X38150326Y-25856894D01*
X38105714Y-25851574D01*
X38098711Y-25852310D01*
X38098710Y-25852310D01*
X38052475Y-25857170D01*
X37924251Y-25870646D01*
X37917583Y-25872916D01*
X37758190Y-25927178D01*
X37758187Y-25927179D01*
X37751523Y-25929448D01*
X37596114Y-26025056D01*
X37465750Y-26152718D01*
X37366908Y-26306090D01*
X37364499Y-26312710D01*
X37364497Y-26312713D01*
X37306910Y-26470932D01*
X37304502Y-26477549D01*
X37286931Y-26616641D01*
X37286621Y-26619097D01*
X37258239Y-26684174D01*
X37250709Y-26692401D01*
X37238479Y-26704631D01*
X37226088Y-26715498D01*
X37201969Y-26734005D01*
X37142405Y-26811632D01*
X37108248Y-26856145D01*
X37090992Y-26897805D01*
X37049332Y-26998381D01*
X37048254Y-27006569D01*
X37043818Y-27040263D01*
X37015095Y-27105190D01*
X36955830Y-27144281D01*
X36884838Y-27145126D01*
X36829801Y-27112911D01*
X36408581Y-26691691D01*
X36374555Y-26629379D01*
X36372461Y-26616641D01*
X36358892Y-26495674D01*
X36358107Y-26488675D01*
X36298101Y-26316361D01*
X36201411Y-26161624D01*
X36136847Y-26096608D01*
X36077804Y-26037151D01*
X36077800Y-26037148D01*
X36072841Y-26032154D01*
X36061657Y-26025056D01*
X36013451Y-25994464D01*
X35918783Y-25934386D01*
X35812090Y-25896394D01*
X35753527Y-25875540D01*
X35753525Y-25875539D01*
X35746893Y-25873178D01*
X35739907Y-25872345D01*
X35739903Y-25872344D01*
X35610326Y-25856894D01*
X35565714Y-25851574D01*
X35558711Y-25852310D01*
X35558710Y-25852310D01*
X35512475Y-25857170D01*
X35384251Y-25870646D01*
X35377583Y-25872916D01*
X35218190Y-25927178D01*
X35218187Y-25927179D01*
X35211523Y-25929448D01*
X35056114Y-26025056D01*
X34925750Y-26152718D01*
X34826908Y-26306090D01*
X34824499Y-26312710D01*
X34824497Y-26312713D01*
X34766910Y-26470932D01*
X34764502Y-26477549D01*
X34741634Y-26658573D01*
X34742321Y-26665580D01*
X34742321Y-26665583D01*
X34748537Y-26728979D01*
X34759439Y-26840164D01*
X34817033Y-27013299D01*
X34820682Y-27019324D01*
X34896871Y-27145126D01*
X34911554Y-27169371D01*
X34916445Y-27174436D01*
X34916446Y-27174437D01*
X34945368Y-27204386D01*
X35038303Y-27300623D01*
X35044195Y-27304478D01*
X35044199Y-27304482D01*
X35185085Y-27396675D01*
X35190981Y-27400533D01*
X35197585Y-27402989D01*
X35197587Y-27402990D01*
X35230809Y-27415345D01*
X35362000Y-27464135D01*
X35368985Y-27465067D01*
X35510415Y-27483938D01*
X35575292Y-27512774D01*
X35582846Y-27519736D01*
X36208395Y-28145285D01*
X36242421Y-28207597D01*
X36245300Y-28234380D01*
X36245300Y-29861229D01*
X36225298Y-29929350D01*
X36207456Y-29951254D01*
X36200784Y-29957787D01*
X36200779Y-29957794D01*
X36195750Y-29962718D01*
X36096908Y-30116090D01*
X36094499Y-30122710D01*
X36094497Y-30122713D01*
X36041943Y-30267104D01*
X36034502Y-30287549D01*
X36011634Y-30468573D01*
X36029439Y-30650164D01*
X36087033Y-30823299D01*
X36090682Y-30829324D01*
X36174509Y-30967738D01*
X36181554Y-30979371D01*
X36186445Y-30984436D01*
X36186446Y-30984437D01*
X36249536Y-31049768D01*
X36308303Y-31110623D01*
X36314195Y-31114478D01*
X36314199Y-31114482D01*
X36449312Y-31202897D01*
X36460981Y-31210533D01*
X36467585Y-31212989D01*
X36467587Y-31212990D01*
X36519814Y-31232413D01*
X36632000Y-31274135D01*
X36812860Y-31298267D01*
X36819871Y-31297629D01*
X36819875Y-31297629D01*
X36959580Y-31284914D01*
X36994571Y-31281729D01*
X37001273Y-31279551D01*
X37001275Y-31279551D01*
X37161405Y-31227522D01*
X37161408Y-31227521D01*
X37168104Y-31225345D01*
X37188830Y-31212990D01*
X37318777Y-31135527D01*
X37318780Y-31135525D01*
X37324832Y-31131917D01*
X37376978Y-31082259D01*
X37440101Y-31049768D01*
X37510772Y-31056561D01*
X37554505Y-31085979D01*
X37578303Y-31110623D01*
X37584195Y-31114478D01*
X37584199Y-31114482D01*
X37675606Y-31174296D01*
X37730659Y-31210322D01*
X37730981Y-31210533D01*
X37730938Y-31210598D01*
X37780488Y-31257071D01*
X37797291Y-31308672D01*
X37807439Y-31412164D01*
X37865033Y-31585299D01*
X37872715Y-31597983D01*
X37946531Y-31719867D01*
X37959554Y-31741371D01*
X37964445Y-31746436D01*
X37964446Y-31746437D01*
X37979789Y-31762325D01*
X38086303Y-31872623D01*
X38092195Y-31876478D01*
X38092199Y-31876482D01*
X38164708Y-31923930D01*
X38238981Y-31972533D01*
X38238938Y-31972598D01*
X38288488Y-32019071D01*
X38305291Y-32070672D01*
X38307831Y-32096576D01*
X38315439Y-32174164D01*
X38317663Y-32180849D01*
X38317663Y-32180850D01*
X38320428Y-32189163D01*
X38373033Y-32347299D01*
X38391693Y-32378110D01*
X38441615Y-32460540D01*
X38467554Y-32503371D01*
X38594303Y-32634623D01*
X38600195Y-32638478D01*
X38600199Y-32638482D01*
X38741085Y-32730675D01*
X38746981Y-32734533D01*
X38753585Y-32736989D01*
X38753587Y-32736990D01*
X38797363Y-32753270D01*
X38918000Y-32798135D01*
X39098860Y-32822267D01*
X39105871Y-32821629D01*
X39105875Y-32821629D01*
X39245580Y-32808914D01*
X39280571Y-32805729D01*
X39287273Y-32803551D01*
X39287275Y-32803551D01*
X39447405Y-32751522D01*
X39447408Y-32751521D01*
X39454104Y-32749345D01*
X39478952Y-32734533D01*
X39604777Y-32659527D01*
X39604780Y-32659525D01*
X39610832Y-32655917D01*
X39682139Y-32588012D01*
X39737862Y-32534948D01*
X39737864Y-32534945D01*
X39742966Y-32530087D01*
X39843939Y-32378110D01*
X39880622Y-32281542D01*
X39906233Y-32214122D01*
X39906234Y-32214117D01*
X39908733Y-32207539D01*
X39924328Y-32096576D01*
X39933576Y-32030775D01*
X39933576Y-32030770D01*
X39934127Y-32026852D01*
X39934446Y-32004000D01*
X39930227Y-31966389D01*
X39936942Y-31918939D01*
X39934352Y-31918245D01*
X39936490Y-31910266D01*
X39939650Y-31902637D01*
X39954700Y-31788321D01*
X39954700Y-31788319D01*
X39959745Y-31750000D01*
X39955778Y-31719867D01*
X39954700Y-31703421D01*
X39954700Y-28560340D01*
X39974702Y-28492219D01*
X39987621Y-28476582D01*
X39987336Y-28476343D01*
X39991867Y-28470943D01*
X39996966Y-28466087D01*
X40097939Y-28314110D01*
X40125147Y-28242485D01*
X40168036Y-28185907D01*
X40234705Y-28161498D01*
X40303986Y-28177008D01*
X40342898Y-28210526D01*
X40378760Y-28257263D01*
X40378764Y-28257267D01*
X40383786Y-28263812D01*
X40390332Y-28268835D01*
X40390335Y-28268838D01*
X40407908Y-28282322D01*
X40420300Y-28293190D01*
X42331901Y-30204792D01*
X42365927Y-30267104D01*
X42368205Y-30281591D01*
X42379439Y-30396164D01*
X42437033Y-30569299D01*
X42455693Y-30600110D01*
X42519230Y-30705021D01*
X42531554Y-30725371D01*
X42658303Y-30856623D01*
X42664195Y-30860478D01*
X42664199Y-30860482D01*
X42803690Y-30951762D01*
X42810981Y-30956533D01*
X42817585Y-30958989D01*
X42817587Y-30958990D01*
X42872390Y-30979371D01*
X42982000Y-31020135D01*
X43162860Y-31044267D01*
X43169871Y-31043629D01*
X43169875Y-31043629D01*
X43309580Y-31030914D01*
X43344571Y-31027729D01*
X43351273Y-31025551D01*
X43351275Y-31025551D01*
X43511405Y-30973522D01*
X43511408Y-30973521D01*
X43518104Y-30971345D01*
X43540251Y-30958143D01*
X43668777Y-30881527D01*
X43668780Y-30881525D01*
X43674832Y-30877917D01*
X43765099Y-30791957D01*
X43801862Y-30756948D01*
X43801864Y-30756945D01*
X43806966Y-30752087D01*
X43907939Y-30600110D01*
X43953185Y-30481000D01*
X43970233Y-30436122D01*
X43970234Y-30436117D01*
X43972733Y-30429539D01*
X43973713Y-30422567D01*
X43997576Y-30252775D01*
X43997576Y-30252770D01*
X43998127Y-30248852D01*
X43998446Y-30226000D01*
X43978107Y-30044675D01*
X43918101Y-29872361D01*
X43821411Y-29717624D01*
X43756847Y-29652608D01*
X43697804Y-29593151D01*
X43697800Y-29593148D01*
X43692841Y-29588154D01*
X43538783Y-29490386D01*
X43432090Y-29452394D01*
X43373527Y-29431540D01*
X43373525Y-29431539D01*
X43366893Y-29429178D01*
X43359905Y-29428345D01*
X43359902Y-29428344D01*
X43232160Y-29413112D01*
X43166887Y-29385185D01*
X43157984Y-29377093D01*
X42341231Y-28560340D01*
X41422404Y-27641514D01*
X41388379Y-27579202D01*
X41385499Y-27552419D01*
X41385499Y-23575377D01*
X41386577Y-23558930D01*
X41389466Y-23536987D01*
X41390544Y-23528799D01*
X41385499Y-23490478D01*
X41370449Y-23376162D01*
X41311533Y-23233927D01*
X41311533Y-23233926D01*
X41300560Y-23219625D01*
X41241341Y-23142450D01*
X41222834Y-23118331D01*
X41217812Y-23111786D01*
X41193692Y-23093278D01*
X41181302Y-23082411D01*
X38990391Y-20891500D01*
X40463393Y-20891500D01*
X40483789Y-21150650D01*
X40484943Y-21155457D01*
X40484944Y-21155463D01*
X40502181Y-21227261D01*
X40544473Y-21403420D01*
X40643952Y-21643584D01*
X40779777Y-21865229D01*
X40948602Y-22062898D01*
X41146271Y-22231723D01*
X41367916Y-22367548D01*
X41372486Y-22369441D01*
X41372488Y-22369442D01*
X41603507Y-22465133D01*
X41608080Y-22467027D01*
X41694543Y-22487785D01*
X41856037Y-22526556D01*
X41856043Y-22526557D01*
X41860850Y-22527711D01*
X42120000Y-22548107D01*
X42379150Y-22527711D01*
X42383957Y-22526557D01*
X42383963Y-22526556D01*
X42545457Y-22487785D01*
X42631920Y-22467027D01*
X42636493Y-22465133D01*
X42867512Y-22369442D01*
X42867514Y-22369441D01*
X42872084Y-22367548D01*
X43093729Y-22231723D01*
X43291398Y-22062898D01*
X43460223Y-21865229D01*
X43596048Y-21643584D01*
X43695527Y-21403420D01*
X43737819Y-21227261D01*
X43755056Y-21155463D01*
X43755057Y-21155457D01*
X43756211Y-21150650D01*
X43776607Y-20891500D01*
X43756211Y-20632350D01*
X43695527Y-20379580D01*
X43596048Y-20139416D01*
X43460223Y-19917771D01*
X43291398Y-19720102D01*
X43093729Y-19551277D01*
X42872084Y-19415452D01*
X42867514Y-19413559D01*
X42867512Y-19413558D01*
X42636493Y-19317867D01*
X42636491Y-19317866D01*
X42631920Y-19315973D01*
X42545457Y-19295215D01*
X42383963Y-19256444D01*
X42383957Y-19256443D01*
X42379150Y-19255289D01*
X42120000Y-19234893D01*
X41860850Y-19255289D01*
X41856043Y-19256443D01*
X41856037Y-19256444D01*
X41694543Y-19295215D01*
X41608080Y-19315973D01*
X41603509Y-19317866D01*
X41603507Y-19317867D01*
X41372488Y-19413558D01*
X41372486Y-19413559D01*
X41367916Y-19415452D01*
X41146271Y-19551277D01*
X40948602Y-19720102D01*
X40779777Y-19917771D01*
X40643952Y-20139416D01*
X40544473Y-20379580D01*
X40483789Y-20632350D01*
X40463393Y-20891500D01*
X38990391Y-20891500D01*
X31946605Y-13847715D01*
X31912579Y-13785403D01*
X31909700Y-13758620D01*
X31909700Y-10206794D01*
X51113229Y-10206794D01*
X51142180Y-10398224D01*
X51144383Y-10404210D01*
X51144384Y-10404216D01*
X51149583Y-10418346D01*
X51209032Y-10579922D01*
X51212390Y-10585338D01*
X51212392Y-10585342D01*
X51307691Y-10739044D01*
X51307694Y-10739048D01*
X51311054Y-10744467D01*
X51315440Y-10749105D01*
X51438085Y-10878798D01*
X51444079Y-10885137D01*
X51602672Y-10996185D01*
X51780355Y-11073076D01*
X51969871Y-11112667D01*
X51976224Y-11113000D01*
X55928388Y-11113000D01*
X55996674Y-11106064D01*
X56066267Y-11098995D01*
X56066268Y-11098995D01*
X56072616Y-11098350D01*
X56257363Y-11040454D01*
X56426695Y-10946591D01*
X56573695Y-10820597D01*
X56636954Y-10739044D01*
X56688442Y-10672667D01*
X56688444Y-10672664D01*
X56692358Y-10667618D01*
X56777836Y-10493902D01*
X56798685Y-10413865D01*
X56825029Y-10312728D01*
X56826639Y-10306547D01*
X56830697Y-10229115D01*
X56836437Y-10119588D01*
X56836437Y-10119584D01*
X56836771Y-10113206D01*
X56807820Y-9921776D01*
X56805617Y-9915790D01*
X56805616Y-9915784D01*
X56753565Y-9774316D01*
X56740968Y-9740078D01*
X56737610Y-9734662D01*
X56737608Y-9734658D01*
X56642309Y-9580956D01*
X56642306Y-9580952D01*
X56638946Y-9575533D01*
X56571729Y-9504453D01*
X56510310Y-9439504D01*
X56510309Y-9439503D01*
X56505921Y-9434863D01*
X56347328Y-9323815D01*
X56169645Y-9246924D01*
X55980129Y-9207333D01*
X55973776Y-9207000D01*
X52021612Y-9207000D01*
X51965309Y-9212719D01*
X51883733Y-9221005D01*
X51883732Y-9221005D01*
X51877384Y-9221650D01*
X51692637Y-9279546D01*
X51523305Y-9373409D01*
X51376305Y-9499403D01*
X51257642Y-9652382D01*
X51172164Y-9826098D01*
X51123361Y-10013453D01*
X51119303Y-10090885D01*
X51115046Y-10172131D01*
X51113229Y-10206794D01*
X31909700Y-10206794D01*
X31909700Y-7952411D01*
X31929702Y-7884290D01*
X31980268Y-7839259D01*
X32038392Y-7810785D01*
X32038396Y-7810783D01*
X32043033Y-7808511D01*
X32176694Y-7713172D01*
X32225916Y-7678062D01*
X32230119Y-7675064D01*
X32267281Y-7638032D01*
X32389237Y-7516500D01*
X32392898Y-7512852D01*
X32461563Y-7417295D01*
X32523979Y-7330433D01*
X32526997Y-7326233D01*
X32536049Y-7307919D01*
X32582770Y-7213385D01*
X32628816Y-7120217D01*
X32653186Y-7040007D01*
X32694117Y-6905291D01*
X32694118Y-6905285D01*
X32695621Y-6900339D01*
X32721842Y-6701167D01*
X32725179Y-6675823D01*
X32725179Y-6675819D01*
X32725616Y-6672502D01*
X32727290Y-6604000D01*
X32724473Y-6569739D01*
X36273129Y-6569739D01*
X36286357Y-6799161D01*
X36287492Y-6804198D01*
X36287493Y-6804204D01*
X36325204Y-6971539D01*
X36336878Y-7023342D01*
X36423336Y-7236261D01*
X36426033Y-7240662D01*
X36426034Y-7240664D01*
X36462848Y-7300739D01*
X36543408Y-7432200D01*
X36693869Y-7605898D01*
X36697844Y-7609198D01*
X36697847Y-7609201D01*
X36729103Y-7635150D01*
X36870679Y-7752689D01*
X37069090Y-7868631D01*
X37073910Y-7870471D01*
X37073915Y-7870474D01*
X37180296Y-7911096D01*
X37283774Y-7950610D01*
X37288842Y-7951641D01*
X37288845Y-7951642D01*
X37399534Y-7974162D01*
X37508963Y-7996426D01*
X37514136Y-7996616D01*
X37514139Y-7996616D01*
X37733448Y-8004657D01*
X37733452Y-8004657D01*
X37738612Y-8004846D01*
X37743732Y-8004190D01*
X37743734Y-8004190D01*
X37961425Y-7976304D01*
X37961428Y-7976303D01*
X37966552Y-7975647D01*
X38186663Y-7909610D01*
X38393033Y-7808511D01*
X38526694Y-7713172D01*
X38575916Y-7678062D01*
X38580119Y-7675064D01*
X38617281Y-7638032D01*
X38699097Y-7556500D01*
X40463393Y-7556500D01*
X40483789Y-7815650D01*
X40484943Y-7820457D01*
X40484944Y-7820463D01*
X40506703Y-7911096D01*
X40544473Y-8068420D01*
X40643952Y-8308584D01*
X40779777Y-8530229D01*
X40782994Y-8533996D01*
X40782995Y-8533997D01*
X40809579Y-8565123D01*
X40948602Y-8727898D01*
X40952364Y-8731111D01*
X41090176Y-8848813D01*
X41146271Y-8896723D01*
X41367916Y-9032548D01*
X41372486Y-9034441D01*
X41372488Y-9034442D01*
X41603507Y-9130133D01*
X41608080Y-9132027D01*
X41694543Y-9152785D01*
X41856037Y-9191556D01*
X41856043Y-9191557D01*
X41860850Y-9192711D01*
X42120000Y-9213107D01*
X42379150Y-9192711D01*
X42383957Y-9191557D01*
X42383963Y-9191556D01*
X42545457Y-9152785D01*
X42631920Y-9132027D01*
X42636493Y-9130133D01*
X42867512Y-9034442D01*
X42867514Y-9034441D01*
X42872084Y-9032548D01*
X43093729Y-8896723D01*
X43149825Y-8848813D01*
X43287636Y-8731111D01*
X43291398Y-8727898D01*
X43430421Y-8565123D01*
X43457005Y-8533997D01*
X43457006Y-8533996D01*
X43460223Y-8530229D01*
X43596048Y-8308584D01*
X43695527Y-8068420D01*
X43700485Y-8047769D01*
X48265500Y-8047769D01*
X48265800Y-8050825D01*
X48265800Y-8050832D01*
X48266530Y-8058273D01*
X48279920Y-8194833D01*
X48337084Y-8384169D01*
X48429934Y-8558796D01*
X48500291Y-8645062D01*
X48551040Y-8707287D01*
X48551043Y-8707290D01*
X48554935Y-8712062D01*
X48559682Y-8715989D01*
X48559684Y-8715991D01*
X48702575Y-8834201D01*
X48702579Y-8834203D01*
X48707325Y-8838130D01*
X48881299Y-8932198D01*
X49070232Y-8990682D01*
X49076357Y-8991326D01*
X49076358Y-8991326D01*
X49260796Y-9010711D01*
X49260798Y-9010711D01*
X49266925Y-9011355D01*
X49349424Y-9003847D01*
X49457749Y-8993989D01*
X49457752Y-8993988D01*
X49463888Y-8993430D01*
X49469794Y-8991692D01*
X49469798Y-8991691D01*
X49574924Y-8960751D01*
X49653619Y-8937590D01*
X49659077Y-8934737D01*
X49659081Y-8934735D01*
X49749853Y-8887280D01*
X49828890Y-8845960D01*
X49983025Y-8722032D01*
X50110154Y-8570526D01*
X50113121Y-8565128D01*
X50113125Y-8565123D01*
X50202467Y-8402608D01*
X50205433Y-8397213D01*
X50207846Y-8389608D01*
X50263373Y-8214564D01*
X50263373Y-8214563D01*
X50265235Y-8208694D01*
X50282500Y-8054773D01*
X50282500Y-7835138D01*
X50302502Y-7767017D01*
X50356158Y-7720524D01*
X50426432Y-7710420D01*
X50435986Y-7712172D01*
X50440460Y-7713172D01*
X50610543Y-7751190D01*
X50616088Y-7751500D01*
X50749244Y-7751500D01*
X50768723Y-7749384D01*
X50811131Y-7744777D01*
X50884037Y-7736857D01*
X51002190Y-7697094D01*
X51049204Y-7681272D01*
X51049206Y-7681271D01*
X51055675Y-7679094D01*
X51210905Y-7585823D01*
X51215862Y-7581135D01*
X51215865Y-7581133D01*
X51337527Y-7466082D01*
X51337529Y-7466080D01*
X51342485Y-7461393D01*
X51346317Y-7455755D01*
X51346320Y-7455751D01*
X51440442Y-7317255D01*
X51444277Y-7311612D01*
X51511530Y-7143466D01*
X51512644Y-7136738D01*
X51512645Y-7136734D01*
X51539993Y-6971539D01*
X51539993Y-6971536D01*
X51541108Y-6964802D01*
X51536203Y-6871198D01*
X51531987Y-6790766D01*
X51531630Y-6783953D01*
X51508304Y-6699266D01*
X51485352Y-6615941D01*
X51483539Y-6609359D01*
X51399078Y-6449164D01*
X51394673Y-6443951D01*
X51394670Y-6443947D01*
X51286594Y-6316057D01*
X51286590Y-6316053D01*
X51282187Y-6310843D01*
X51276762Y-6306695D01*
X51143743Y-6204994D01*
X51143739Y-6204991D01*
X51138322Y-6200850D01*
X51023597Y-6147353D01*
X50980369Y-6127195D01*
X50980366Y-6127194D01*
X50974192Y-6124315D01*
X50967544Y-6122829D01*
X50967541Y-6122828D01*
X50802494Y-6085936D01*
X50802495Y-6085936D01*
X50797457Y-6084810D01*
X50791912Y-6084500D01*
X50658756Y-6084500D01*
X50523963Y-6099143D01*
X50440609Y-6127195D01*
X50358796Y-6154728D01*
X50358794Y-6154729D01*
X50352325Y-6156906D01*
X50197095Y-6250177D01*
X50196671Y-6249472D01*
X50135480Y-6272762D01*
X50066007Y-6258135D01*
X50028008Y-6226782D01*
X50006858Y-6200850D01*
X49993065Y-6183938D01*
X49986729Y-6178696D01*
X49919195Y-6122828D01*
X49904385Y-6110576D01*
X49864647Y-6051742D01*
X49858700Y-6013491D01*
X49858700Y-4452361D01*
X49878702Y-4384240D01*
X49905748Y-4354164D01*
X49978218Y-4295897D01*
X49983025Y-4292032D01*
X50110154Y-4140526D01*
X50113121Y-4135128D01*
X50113125Y-4135123D01*
X50202467Y-3972608D01*
X50205433Y-3967213D01*
X50207846Y-3959608D01*
X50213875Y-3940601D01*
X50253539Y-3881717D01*
X50318741Y-3853625D01*
X50333977Y-3852700D01*
X56852873Y-3852700D01*
X56920994Y-3872702D01*
X56967487Y-3926358D01*
X56973494Y-3942279D01*
X56977084Y-3954169D01*
X57069934Y-4128796D01*
X57140291Y-4215062D01*
X57191040Y-4277287D01*
X57191043Y-4277290D01*
X57194935Y-4282062D01*
X57199682Y-4285989D01*
X57199684Y-4285991D01*
X57283615Y-4355424D01*
X57323353Y-4414258D01*
X57329300Y-4452509D01*
X57329300Y-6013639D01*
X57309298Y-6081760D01*
X57282253Y-6111835D01*
X57204975Y-6173968D01*
X57156600Y-6231619D01*
X57097493Y-6270944D01*
X57026506Y-6272070D01*
X56983552Y-6250722D01*
X56923743Y-6204994D01*
X56923739Y-6204991D01*
X56918322Y-6200850D01*
X56803597Y-6147353D01*
X56760369Y-6127195D01*
X56760366Y-6127194D01*
X56754192Y-6124315D01*
X56747544Y-6122829D01*
X56747541Y-6122828D01*
X56582494Y-6085936D01*
X56582495Y-6085936D01*
X56577457Y-6084810D01*
X56571912Y-6084500D01*
X56438756Y-6084500D01*
X56303963Y-6099143D01*
X56220609Y-6127195D01*
X56138796Y-6154728D01*
X56138794Y-6154729D01*
X56132325Y-6156906D01*
X55977095Y-6250177D01*
X55972138Y-6254865D01*
X55972135Y-6254867D01*
X55875371Y-6346373D01*
X55845515Y-6374607D01*
X55841683Y-6380245D01*
X55841680Y-6380249D01*
X55757133Y-6504656D01*
X55743723Y-6524388D01*
X55676470Y-6692534D01*
X55675356Y-6699262D01*
X55675355Y-6699266D01*
X55651270Y-6844751D01*
X55646892Y-6871198D01*
X55647249Y-6878015D01*
X55647249Y-6878019D01*
X55652151Y-6971539D01*
X55656370Y-7052047D01*
X55658181Y-7058620D01*
X55658181Y-7058623D01*
X55700810Y-7213385D01*
X55704461Y-7226641D01*
X55788922Y-7386836D01*
X55793327Y-7392049D01*
X55793330Y-7392053D01*
X55901406Y-7519943D01*
X55901410Y-7519947D01*
X55905813Y-7525157D01*
X55911237Y-7529304D01*
X55911238Y-7529305D01*
X56044257Y-7631006D01*
X56044261Y-7631009D01*
X56049678Y-7635150D01*
X56127455Y-7671418D01*
X56207631Y-7708805D01*
X56207634Y-7708806D01*
X56213808Y-7711685D01*
X56220456Y-7713171D01*
X56220459Y-7713172D01*
X56316686Y-7734681D01*
X56390543Y-7751190D01*
X56396088Y-7751500D01*
X56529244Y-7751500D01*
X56548723Y-7749384D01*
X56591131Y-7744777D01*
X56664037Y-7736857D01*
X56739312Y-7711524D01*
X56810253Y-7708754D01*
X56871432Y-7744777D01*
X56903423Y-7808158D01*
X56905500Y-7830943D01*
X56905500Y-8047769D01*
X56905800Y-8050825D01*
X56905800Y-8050832D01*
X56906530Y-8058273D01*
X56919920Y-8194833D01*
X56977084Y-8384169D01*
X57069934Y-8558796D01*
X57140291Y-8645062D01*
X57191040Y-8707287D01*
X57191043Y-8707290D01*
X57194935Y-8712062D01*
X57199682Y-8715989D01*
X57199684Y-8715991D01*
X57342575Y-8834201D01*
X57342579Y-8834203D01*
X57347325Y-8838130D01*
X57521299Y-8932198D01*
X57710232Y-8990682D01*
X57716357Y-8991326D01*
X57716358Y-8991326D01*
X57900796Y-9010711D01*
X57900798Y-9010711D01*
X57906925Y-9011355D01*
X57989424Y-9003847D01*
X58097749Y-8993989D01*
X58097752Y-8993988D01*
X58103888Y-8993430D01*
X58109794Y-8991692D01*
X58109798Y-8991691D01*
X58214924Y-8960751D01*
X58293619Y-8937590D01*
X58299077Y-8934737D01*
X58299081Y-8934735D01*
X58389853Y-8887280D01*
X58468890Y-8845960D01*
X58623025Y-8722032D01*
X58750154Y-8570526D01*
X58753121Y-8565128D01*
X58753125Y-8565123D01*
X58842467Y-8402608D01*
X58845433Y-8397213D01*
X58847846Y-8389608D01*
X58903373Y-8214564D01*
X58903373Y-8214563D01*
X58905235Y-8208694D01*
X58922500Y-8054773D01*
X58922500Y-6848231D01*
X58921814Y-6841227D01*
X58908681Y-6707301D01*
X58908080Y-6701167D01*
X58898414Y-6669150D01*
X58879759Y-6607365D01*
X58850916Y-6511831D01*
X58758066Y-6337204D01*
X58650238Y-6204994D01*
X58636960Y-6188713D01*
X58636957Y-6188710D01*
X58633065Y-6183938D01*
X58626729Y-6178696D01*
X58559195Y-6122828D01*
X58544385Y-6110576D01*
X58504647Y-6051742D01*
X58498700Y-6013491D01*
X58498700Y-4452361D01*
X58518702Y-4384240D01*
X58545748Y-4354164D01*
X58618218Y-4295897D01*
X58623025Y-4292032D01*
X58750154Y-4140526D01*
X58753121Y-4135128D01*
X58753125Y-4135123D01*
X58842467Y-3972608D01*
X58845433Y-3967213D01*
X58847846Y-3959608D01*
X58903373Y-3784564D01*
X58903373Y-3784563D01*
X58905235Y-3778694D01*
X58922500Y-3624773D01*
X58922500Y-2918231D01*
X58921814Y-2911227D01*
X58913587Y-2827334D01*
X58908080Y-2771167D01*
X58850916Y-2581831D01*
X58758066Y-2407204D01*
X58676715Y-2307458D01*
X58636960Y-2258713D01*
X58636957Y-2258710D01*
X58633065Y-2253938D01*
X58626724Y-2248692D01*
X58485425Y-2131799D01*
X58485421Y-2131797D01*
X58480675Y-2127870D01*
X58306701Y-2033802D01*
X58117768Y-1975318D01*
X58111643Y-1974674D01*
X58111642Y-1974674D01*
X57927204Y-1955289D01*
X57927202Y-1955289D01*
X57921075Y-1954645D01*
X57838576Y-1962153D01*
X57730251Y-1972011D01*
X57730248Y-1972012D01*
X57724112Y-1972570D01*
X57718206Y-1974308D01*
X57718202Y-1974309D01*
X57657196Y-1992264D01*
X57534381Y-2028410D01*
X57528923Y-2031263D01*
X57528919Y-2031265D01*
X57438147Y-2078720D01*
X57359110Y-2120040D01*
X57204975Y-2243968D01*
X57201011Y-2248692D01*
X57199550Y-2250433D01*
X57077846Y-2395474D01*
X57074879Y-2400872D01*
X57074875Y-2400877D01*
X57008293Y-2521991D01*
X56982567Y-2568787D01*
X56980706Y-2574654D01*
X56980705Y-2574656D01*
X56974125Y-2595399D01*
X56934461Y-2654283D01*
X56869259Y-2682375D01*
X56854023Y-2683300D01*
X50335127Y-2683300D01*
X50267006Y-2663298D01*
X50220513Y-2609642D01*
X50214505Y-2593719D01*
X50212697Y-2587731D01*
X50210916Y-2581831D01*
X50118066Y-2407204D01*
X50036715Y-2307458D01*
X49996960Y-2258713D01*
X49996957Y-2258710D01*
X49993065Y-2253938D01*
X49986724Y-2248692D01*
X49845425Y-2131799D01*
X49845421Y-2131797D01*
X49840675Y-2127870D01*
X49666701Y-2033802D01*
X49477768Y-1975318D01*
X49471643Y-1974674D01*
X49471642Y-1974674D01*
X49287204Y-1955289D01*
X49287202Y-1955289D01*
X49281075Y-1954645D01*
X49198576Y-1962153D01*
X49090251Y-1972011D01*
X49090248Y-1972012D01*
X49084112Y-1972570D01*
X49078206Y-1974308D01*
X49078202Y-1974309D01*
X49017196Y-1992264D01*
X48894381Y-2028410D01*
X48888923Y-2031263D01*
X48888919Y-2031265D01*
X48798147Y-2078720D01*
X48719110Y-2120040D01*
X48564975Y-2243968D01*
X48561011Y-2248692D01*
X48559550Y-2250433D01*
X48437846Y-2395474D01*
X48434879Y-2400872D01*
X48434875Y-2400877D01*
X48368293Y-2521991D01*
X48342567Y-2568787D01*
X48340706Y-2574654D01*
X48340705Y-2574656D01*
X48306241Y-2683300D01*
X48282765Y-2757306D01*
X48265500Y-2911227D01*
X48265500Y-3617769D01*
X48265800Y-3620825D01*
X48265800Y-3620832D01*
X48266530Y-3628273D01*
X48279920Y-3764833D01*
X48337084Y-3954169D01*
X48429934Y-4128796D01*
X48500291Y-4215062D01*
X48551040Y-4277287D01*
X48551043Y-4277290D01*
X48554935Y-4282062D01*
X48559682Y-4285989D01*
X48559684Y-4285991D01*
X48643615Y-4355424D01*
X48683353Y-4414258D01*
X48689300Y-4452509D01*
X48689300Y-6013639D01*
X48669298Y-6081760D01*
X48642253Y-6111835D01*
X48564975Y-6173968D01*
X48437846Y-6325474D01*
X48434879Y-6330872D01*
X48434875Y-6330877D01*
X48405065Y-6385102D01*
X48342567Y-6498787D01*
X48340706Y-6504654D01*
X48340705Y-6504656D01*
X48314585Y-6586996D01*
X48282765Y-6687306D01*
X48265500Y-6841227D01*
X48265500Y-8047769D01*
X43700485Y-8047769D01*
X43733297Y-7911096D01*
X43755056Y-7820463D01*
X43755057Y-7820457D01*
X43756211Y-7815650D01*
X43776607Y-7556500D01*
X43756211Y-7297350D01*
X43740686Y-7232680D01*
X43698898Y-7058623D01*
X43695527Y-7044580D01*
X43684640Y-7018297D01*
X43597942Y-6808988D01*
X43597941Y-6808986D01*
X43596048Y-6804416D01*
X43460223Y-6582771D01*
X43291398Y-6385102D01*
X43224348Y-6327836D01*
X43097497Y-6219495D01*
X43097496Y-6219494D01*
X43093729Y-6216277D01*
X42872084Y-6080452D01*
X42867514Y-6078559D01*
X42867512Y-6078558D01*
X42636493Y-5982867D01*
X42636491Y-5982866D01*
X42631920Y-5980973D01*
X42486583Y-5946081D01*
X42383963Y-5921444D01*
X42383957Y-5921443D01*
X42379150Y-5920289D01*
X42120000Y-5899893D01*
X41860850Y-5920289D01*
X41856043Y-5921443D01*
X41856037Y-5921444D01*
X41753417Y-5946081D01*
X41608080Y-5980973D01*
X41603509Y-5982866D01*
X41603507Y-5982867D01*
X41372488Y-6078558D01*
X41372486Y-6078559D01*
X41367916Y-6080452D01*
X41146271Y-6216277D01*
X41142504Y-6219494D01*
X41142503Y-6219495D01*
X41015652Y-6327836D01*
X40948602Y-6385102D01*
X40779777Y-6582771D01*
X40643952Y-6804416D01*
X40642059Y-6808986D01*
X40642058Y-6808988D01*
X40555360Y-7018297D01*
X40544473Y-7044580D01*
X40541102Y-7058623D01*
X40499315Y-7232680D01*
X40483789Y-7297350D01*
X40463393Y-7556500D01*
X38699097Y-7556500D01*
X38739237Y-7516500D01*
X38742898Y-7512852D01*
X38811563Y-7417295D01*
X38873979Y-7330433D01*
X38876997Y-7326233D01*
X38886049Y-7307919D01*
X38932770Y-7213385D01*
X38978816Y-7120217D01*
X39003186Y-7040007D01*
X39044117Y-6905291D01*
X39044118Y-6905285D01*
X39045621Y-6900339D01*
X39071842Y-6701167D01*
X39075179Y-6675823D01*
X39075179Y-6675819D01*
X39075616Y-6672502D01*
X39077290Y-6604000D01*
X39064131Y-6443947D01*
X39058884Y-6380121D01*
X39058883Y-6380115D01*
X39058460Y-6374970D01*
X39002477Y-6152090D01*
X38910843Y-5941347D01*
X38908037Y-5937009D01*
X38788830Y-5752743D01*
X38788828Y-5752740D01*
X38786020Y-5748400D01*
X38631359Y-5578430D01*
X38627308Y-5575231D01*
X38627304Y-5575227D01*
X38455073Y-5439208D01*
X38451015Y-5436003D01*
X38249831Y-5324943D01*
X38132611Y-5283433D01*
X38038084Y-5249959D01*
X38038080Y-5249958D01*
X38033209Y-5248233D01*
X38028116Y-5247326D01*
X38028113Y-5247325D01*
X37812056Y-5208839D01*
X37812050Y-5208838D01*
X37806967Y-5207933D01*
X37733784Y-5207039D01*
X37582351Y-5205189D01*
X37582349Y-5205189D01*
X37577181Y-5205126D01*
X37425610Y-5228319D01*
X37355131Y-5239104D01*
X37355128Y-5239105D01*
X37350022Y-5239886D01*
X37345110Y-5241491D01*
X37345112Y-5241491D01*
X37136504Y-5309675D01*
X37136502Y-5309676D01*
X37131591Y-5311281D01*
X36927753Y-5417392D01*
X36923620Y-5420495D01*
X36923617Y-5420497D01*
X36748118Y-5552265D01*
X36743983Y-5555370D01*
X36585216Y-5721510D01*
X36455716Y-5911350D01*
X36423398Y-5980973D01*
X36375172Y-6084869D01*
X36358961Y-6119792D01*
X36297548Y-6341237D01*
X36273129Y-6569739D01*
X32724473Y-6569739D01*
X32714131Y-6443947D01*
X32708884Y-6380121D01*
X32708883Y-6380115D01*
X32708460Y-6374970D01*
X32652477Y-6152090D01*
X32560843Y-5941347D01*
X32558037Y-5937009D01*
X32438830Y-5752743D01*
X32438828Y-5752740D01*
X32436020Y-5748400D01*
X32281359Y-5578430D01*
X32277308Y-5575231D01*
X32277304Y-5575227D01*
X32105073Y-5439208D01*
X32101015Y-5436003D01*
X31899831Y-5324943D01*
X31782611Y-5283433D01*
X31688084Y-5249959D01*
X31688080Y-5249958D01*
X31683209Y-5248233D01*
X31678116Y-5247326D01*
X31678113Y-5247325D01*
X31462056Y-5208839D01*
X31462050Y-5208838D01*
X31456967Y-5207933D01*
X31383784Y-5207039D01*
X31232351Y-5205189D01*
X31232349Y-5205189D01*
X31227181Y-5205126D01*
X31075610Y-5228319D01*
X31005131Y-5239104D01*
X31005128Y-5239105D01*
X31000022Y-5239886D01*
X30995110Y-5241491D01*
X30995112Y-5241491D01*
X30786504Y-5309675D01*
X30786502Y-5309676D01*
X30781591Y-5311281D01*
X30577753Y-5417392D01*
X30573620Y-5420495D01*
X30573617Y-5420497D01*
X30398118Y-5552265D01*
X30393983Y-5555370D01*
X30235216Y-5721510D01*
X30105716Y-5911350D01*
X30073398Y-5980973D01*
X30025172Y-6084869D01*
X30008961Y-6119792D01*
X29947548Y-6341237D01*
X29923129Y-6569739D01*
X28209093Y-6569739D01*
X28051398Y-6385102D01*
X27984348Y-6327836D01*
X27857497Y-6219495D01*
X27857496Y-6219494D01*
X27853729Y-6216277D01*
X27632084Y-6080452D01*
X27627514Y-6078559D01*
X27627512Y-6078558D01*
X27396493Y-5982867D01*
X27396491Y-5982866D01*
X27391920Y-5980973D01*
X27246583Y-5946081D01*
X27143963Y-5921444D01*
X27143957Y-5921443D01*
X27139150Y-5920289D01*
X26880000Y-5899893D01*
X26620850Y-5920289D01*
X26616043Y-5921443D01*
X26616037Y-5921444D01*
X26513417Y-5946081D01*
X26368080Y-5980973D01*
X26363509Y-5982866D01*
X26363507Y-5982867D01*
X26132488Y-6078558D01*
X26132486Y-6078559D01*
X26127916Y-6080452D01*
X25906271Y-6216277D01*
X25902504Y-6219494D01*
X25902503Y-6219495D01*
X25775652Y-6327836D01*
X25708602Y-6385102D01*
X25539777Y-6582771D01*
X25403952Y-6804416D01*
X25402059Y-6808986D01*
X25402058Y-6808988D01*
X25315360Y-7018297D01*
X25304473Y-7044580D01*
X25301102Y-7058623D01*
X25259315Y-7232680D01*
X25243789Y-7297350D01*
X25223393Y-7556500D01*
X10612051Y-7556500D01*
X10611745Y-7553684D01*
X10560615Y-7417295D01*
X10473261Y-7300739D01*
X10356705Y-7213385D01*
X10220316Y-7162255D01*
X10158134Y-7155500D01*
X6861866Y-7155500D01*
X6799684Y-7162255D01*
X6663295Y-7213385D01*
X6546739Y-7300739D01*
X6459385Y-7417295D01*
X6408255Y-7553684D01*
X6401500Y-7615866D01*
X6401500Y-9712134D01*
X508000Y-9712134D01*
X508000Y-2677365D01*
X30536464Y-2677365D01*
X30541745Y-2684420D01*
X30714846Y-2785571D01*
X30724132Y-2790021D01*
X30929083Y-2868283D01*
X30938981Y-2871159D01*
X31153962Y-2914897D01*
X31164190Y-2916116D01*
X31383425Y-2924156D01*
X31393711Y-2923689D01*
X31611320Y-2895813D01*
X31621398Y-2893671D01*
X31831527Y-2830629D01*
X31841125Y-2826868D01*
X32038138Y-2730352D01*
X32046983Y-2725079D01*
X32102209Y-2685686D01*
X32110609Y-2674987D01*
X32103622Y-2661833D01*
X31337811Y-1896021D01*
X31323868Y-1888408D01*
X31322034Y-1888539D01*
X31315420Y-1892790D01*
X30543221Y-2664990D01*
X30536464Y-2677365D01*
X508000Y-2677365D01*
X508000Y-2049328D01*
X509500Y-2029943D01*
X511805Y-2015141D01*
X511805Y-2015139D01*
X513186Y-2006270D01*
X512022Y-1997366D01*
X511195Y-1991041D01*
X510452Y-1965713D01*
X515437Y-1896021D01*
X522543Y-1796657D01*
X525101Y-1778863D01*
X566520Y-1588462D01*
X571586Y-1571212D01*
X639682Y-1388642D01*
X647149Y-1372290D01*
X692060Y-1290041D01*
X740534Y-1201266D01*
X750248Y-1186152D01*
X867023Y-1030158D01*
X878796Y-1016572D01*
X1016572Y-878796D01*
X1030158Y-867023D01*
X1046060Y-855119D01*
X1186152Y-750248D01*
X1201266Y-740534D01*
X1363530Y-651932D01*
X1372290Y-647149D01*
X1388642Y-639682D01*
X1571212Y-571586D01*
X1588460Y-566521D01*
X1778863Y-525101D01*
X1796658Y-522543D01*
X1845557Y-519046D01*
X1958631Y-510959D01*
X1976533Y-511703D01*
X1984858Y-511805D01*
X1993730Y-513186D01*
X2002632Y-512022D01*
X2002635Y-512022D01*
X2025251Y-509064D01*
X2041589Y-508000D01*
X30088421Y-508000D01*
X30156542Y-528002D01*
G37*
%TD.AperFunction*%
%TA.AperFunction,Conductor*%
G36*
X37167442Y-37738744D02*
G01*
X37198767Y-37802457D01*
X37190673Y-37872990D01*
X37180523Y-37892198D01*
X37116503Y-37991537D01*
X37110274Y-38004086D01*
X37053096Y-38161180D01*
X37049803Y-38174795D01*
X37028850Y-38340653D01*
X37028654Y-38354660D01*
X37044968Y-38521047D01*
X37047879Y-38534741D01*
X37100650Y-38693375D01*
X37106524Y-38706088D01*
X37107768Y-38708143D01*
X37118174Y-38717657D01*
X37126794Y-38713995D01*
X37751905Y-38088885D01*
X37814217Y-38054860D01*
X37885033Y-38059925D01*
X37930095Y-38088885D01*
X38465692Y-38624481D01*
X38479630Y-38632092D01*
X38481466Y-38631960D01*
X38488078Y-38627711D01*
X39026905Y-38088885D01*
X39089217Y-38054860D01*
X39160033Y-38059925D01*
X39205095Y-38088885D01*
X39740692Y-38624481D01*
X39754630Y-38632092D01*
X39756466Y-38631960D01*
X39763078Y-38627711D01*
X40214632Y-38176158D01*
X40276944Y-38142133D01*
X40347760Y-38147198D01*
X40404595Y-38189745D01*
X40411503Y-38199982D01*
X40479779Y-38312718D01*
X40499554Y-38345371D01*
X40626303Y-38476623D01*
X40632195Y-38480478D01*
X40632199Y-38480482D01*
X40715116Y-38534741D01*
X40778981Y-38576533D01*
X40785585Y-38578989D01*
X40785587Y-38578990D01*
X40853192Y-38604132D01*
X40950000Y-38640135D01*
X40956983Y-38641067D01*
X40956984Y-38641067D01*
X41001599Y-38647020D01*
X41066476Y-38675856D01*
X41074029Y-38682818D01*
X41103500Y-38712289D01*
X41115880Y-38719049D01*
X41129554Y-38708813D01*
X41167370Y-38671228D01*
X41215995Y-38656519D01*
X41305550Y-38648368D01*
X41312571Y-38647729D01*
X41319273Y-38645551D01*
X41319275Y-38645551D01*
X41479405Y-38593522D01*
X41479408Y-38593521D01*
X41486104Y-38591345D01*
X41500903Y-38582523D01*
X41636777Y-38501527D01*
X41636780Y-38501525D01*
X41642832Y-38497917D01*
X41733508Y-38411567D01*
X41769862Y-38376948D01*
X41769864Y-38376945D01*
X41774966Y-38372087D01*
X41814411Y-38312718D01*
X41867393Y-38232973D01*
X41921750Y-38187302D01*
X41972341Y-38176700D01*
X43032308Y-38176700D01*
X43100429Y-38196702D01*
X43146922Y-38250358D01*
X43157026Y-38320632D01*
X43138220Y-38370952D01*
X43076908Y-38466090D01*
X43074499Y-38472710D01*
X43074497Y-38472713D01*
X43017552Y-38629169D01*
X43014502Y-38637549D01*
X42991634Y-38818573D01*
X42992321Y-38825580D01*
X42992321Y-38825583D01*
X42999618Y-38900000D01*
X43009439Y-39000164D01*
X43067033Y-39173299D01*
X43070683Y-39179325D01*
X43070683Y-39179326D01*
X43081024Y-39196402D01*
X43099202Y-39265032D01*
X43077391Y-39332595D01*
X43062342Y-39350767D01*
X41829497Y-40583613D01*
X41817106Y-40594480D01*
X41792987Y-40612987D01*
X41756645Y-40660350D01*
X41699266Y-40735127D01*
X41699266Y-40735128D01*
X41693225Y-40749713D01*
X41693224Y-40749714D01*
X41667536Y-40811730D01*
X41640350Y-40877363D01*
X41625300Y-40991679D01*
X41620255Y-41030000D01*
X41621333Y-41038188D01*
X41624222Y-41060133D01*
X41625300Y-41076579D01*
X41625300Y-43135618D01*
X41605298Y-43203739D01*
X41588395Y-43224713D01*
X41549188Y-43263920D01*
X41486876Y-43297946D01*
X41416061Y-43292881D01*
X41359225Y-43250334D01*
X41334426Y-43181481D01*
X41334446Y-43180028D01*
X41314107Y-42998703D01*
X41254101Y-42826389D01*
X41157411Y-42671652D01*
X41061727Y-42575298D01*
X41033804Y-42547179D01*
X41033800Y-42547176D01*
X41028841Y-42542182D01*
X41017657Y-42535084D01*
X40958506Y-42497546D01*
X40874783Y-42444414D01*
X40768090Y-42406422D01*
X40709527Y-42385568D01*
X40709525Y-42385567D01*
X40702893Y-42383206D01*
X40695907Y-42382373D01*
X40695903Y-42382372D01*
X40566326Y-42366922D01*
X40521714Y-42361602D01*
X40514711Y-42362338D01*
X40514710Y-42362338D01*
X40468475Y-42367198D01*
X40340251Y-42380674D01*
X40333583Y-42382944D01*
X40174190Y-42437206D01*
X40174187Y-42437207D01*
X40167523Y-42439476D01*
X40012114Y-42535084D01*
X39984713Y-42561917D01*
X39887085Y-42657522D01*
X39881750Y-42662746D01*
X39782908Y-42816118D01*
X39780499Y-42822738D01*
X39780497Y-42822741D01*
X39774062Y-42840422D01*
X39720502Y-42987577D01*
X39718212Y-43005702D01*
X39702621Y-43129124D01*
X39674239Y-43194200D01*
X39666710Y-43202427D01*
X39164853Y-43704285D01*
X39102540Y-43738310D01*
X39075757Y-43741190D01*
X37399890Y-43741190D01*
X37331769Y-43721188D01*
X37285276Y-43667532D01*
X37275172Y-43597258D01*
X37304666Y-43532678D01*
X37310795Y-43526095D01*
X38078951Y-42757939D01*
X38141263Y-42723913D01*
X38156625Y-42721553D01*
X38264571Y-42711729D01*
X38271273Y-42709551D01*
X38271275Y-42709551D01*
X38431405Y-42657522D01*
X38431408Y-42657521D01*
X38438104Y-42655345D01*
X38444155Y-42651738D01*
X38588777Y-42565527D01*
X38588780Y-42565525D01*
X38594832Y-42561917D01*
X38713822Y-42448604D01*
X38721862Y-42440948D01*
X38721864Y-42440945D01*
X38726966Y-42436087D01*
X38827939Y-42284110D01*
X38842938Y-42244625D01*
X38890233Y-42120122D01*
X38890234Y-42120117D01*
X38892733Y-42113539D01*
X38918127Y-41932852D01*
X38918446Y-41910000D01*
X38898107Y-41728675D01*
X38838101Y-41556361D01*
X38741411Y-41401624D01*
X38647186Y-41306739D01*
X38617804Y-41277151D01*
X38617800Y-41277148D01*
X38612841Y-41272154D01*
X38601657Y-41265056D01*
X38479135Y-41187302D01*
X38458783Y-41174386D01*
X38297871Y-41117087D01*
X38293527Y-41115540D01*
X38293525Y-41115539D01*
X38286893Y-41113178D01*
X38279907Y-41112345D01*
X38279903Y-41112344D01*
X38150326Y-41096894D01*
X38105714Y-41091574D01*
X38098711Y-41092310D01*
X38098710Y-41092310D01*
X38052475Y-41097170D01*
X37924251Y-41110646D01*
X37917583Y-41112916D01*
X37758190Y-41167178D01*
X37758187Y-41167179D01*
X37751523Y-41169448D01*
X37596114Y-41265056D01*
X37591081Y-41269985D01*
X37591076Y-41269989D01*
X37553547Y-41306739D01*
X37490881Y-41340109D01*
X37420123Y-41334303D01*
X37375984Y-41305499D01*
X37375784Y-41305298D01*
X37342871Y-41272154D01*
X37331687Y-41265056D01*
X37209165Y-41187302D01*
X37188813Y-41174386D01*
X37027901Y-41117087D01*
X37023557Y-41115540D01*
X37023555Y-41115539D01*
X37016923Y-41113178D01*
X37009937Y-41112345D01*
X37009933Y-41112344D01*
X36880356Y-41096894D01*
X36835744Y-41091574D01*
X36828741Y-41092310D01*
X36828740Y-41092310D01*
X36782505Y-41097170D01*
X36654281Y-41110646D01*
X36647613Y-41112916D01*
X36488220Y-41167178D01*
X36488217Y-41167179D01*
X36481553Y-41169448D01*
X36467384Y-41178165D01*
X36332143Y-41261365D01*
X36332141Y-41261367D01*
X36326144Y-41265056D01*
X36321113Y-41269982D01*
X36321110Y-41269985D01*
X36301362Y-41289324D01*
X36238697Y-41322694D01*
X36213205Y-41325300D01*
X35904498Y-41325300D01*
X35836377Y-41305298D01*
X35815403Y-41288395D01*
X34591622Y-40064614D01*
X34557596Y-40002302D01*
X34562661Y-39931487D01*
X34604014Y-39875556D01*
X34604289Y-39875345D01*
X34666139Y-39827887D01*
X34671165Y-39821337D01*
X34671169Y-39821333D01*
X34684649Y-39803765D01*
X34695517Y-39791373D01*
X35402536Y-39084354D01*
X37480475Y-39084354D01*
X37483258Y-39088073D01*
X37637680Y-39145502D01*
X37651278Y-39148892D01*
X37816990Y-39171004D01*
X37830986Y-39171297D01*
X37997477Y-39156144D01*
X38011204Y-39153327D01*
X38170202Y-39101666D01*
X38182953Y-39095881D01*
X38189769Y-39091818D01*
X38196690Y-39084354D01*
X38755475Y-39084354D01*
X38758258Y-39088073D01*
X38912680Y-39145502D01*
X38926278Y-39148892D01*
X39091990Y-39171004D01*
X39105986Y-39171297D01*
X39272477Y-39156144D01*
X39286204Y-39153327D01*
X39445202Y-39101666D01*
X39457953Y-39095881D01*
X39464769Y-39091818D01*
X39471690Y-39084354D01*
X40030475Y-39084354D01*
X40033258Y-39088073D01*
X40187680Y-39145502D01*
X40201278Y-39148892D01*
X40366990Y-39171004D01*
X40380986Y-39171297D01*
X40547477Y-39156144D01*
X40561204Y-39153327D01*
X40720202Y-39101666D01*
X40732953Y-39095881D01*
X40739769Y-39091818D01*
X40749358Y-39081476D01*
X40745852Y-39073062D01*
X40403812Y-38731022D01*
X40389868Y-38723408D01*
X40388035Y-38723539D01*
X40381421Y-38727790D01*
X40037232Y-39071979D01*
X40030475Y-39084354D01*
X39471690Y-39084354D01*
X39474358Y-39081476D01*
X39470852Y-39073062D01*
X39128812Y-38731022D01*
X39114868Y-38723408D01*
X39113035Y-38723539D01*
X39106421Y-38727790D01*
X38762232Y-39071979D01*
X38755475Y-39084354D01*
X38196690Y-39084354D01*
X38199358Y-39081476D01*
X38195852Y-39073062D01*
X37853812Y-38731022D01*
X37839868Y-38723408D01*
X37838035Y-38723539D01*
X37831421Y-38727790D01*
X37487232Y-39071979D01*
X37480475Y-39084354D01*
X35402536Y-39084354D01*
X36681951Y-37804939D01*
X36744263Y-37770913D01*
X36759625Y-37768553D01*
X36867571Y-37758729D01*
X36874271Y-37756552D01*
X36874276Y-37756551D01*
X37035676Y-37704109D01*
X37106644Y-37702082D01*
X37167442Y-37738744D01*
G37*
%TD.AperFunction*%
%TD*%
M02*
