%FSLAX45Y45*%
G04 Gerber Fmt 4.5, Leading zero omitted, Abs format (unit mm)*
G04 Created by KiCad (PCBNEW (6.0.0)) date 2021-12-27 13:21:02*
%MOMM*%
%LPD*%
G01*
G04 APERTURE LIST*
%TA.AperFunction,Profile*%
%ADD10C,0.150000*%
%TD*%
%ADD11C,0.200000*%
%ADD12C,0.065000*%
%ADD13C,0.170000*%
%ADD14C,0.340000*%
G04 APERTURE END LIST*
D10*
X6700000Y-5050000D02*
G75*
G03*
X6900000Y-4850000I0J200000D01*
G01*
X0Y-4850000D02*
G75*
G03*
X200000Y-5050000I200000J0D01*
G01*
X200000Y0D02*
G75*
G03*
X0Y-200000I0J-200000D01*
G01*
X6900000Y-200000D02*
G75*
G03*
X6700000Y0I-200000J0D01*
G01*
X0Y-4850000D02*
X0Y-200000D01*
X6700000Y-5050000D02*
X200000Y-5050000D01*
X6900000Y-200000D02*
X6900000Y-4850000D01*
X200000Y0D02*
X6700000Y0D01*
D11*
D12*
X5037900Y-659300D02*
X5102900Y-724300D01*
X5102900Y-659300D02*
X5037900Y-724300D01*
X5615900Y-659300D02*
X5680900Y-724300D01*
X5680900Y-659300D02*
X5615900Y-724300D01*
D13*
X485000Y-3300000D02*
G75*
G03*
X485000Y-3300000I-85000J0D01*
G01*
X1585000Y-3300000D02*
G75*
G03*
X1585000Y-3300000I-85000J0D01*
G01*
X5485000Y-3300000D02*
G75*
G03*
X5485000Y-3300000I-85000J0D01*
G01*
X6585000Y-3300000D02*
G75*
G03*
X6585000Y-3300000I-85000J0D01*
G01*
D14*
X950000Y-3130000D02*
X950000Y-3470000D01*
X780000Y-3300000D02*
X1120000Y-3300000D01*
X5950000Y-3130000D02*
X5950000Y-3470000D01*
X5780000Y-3300000D02*
X6120000Y-3300000D01*
D11*
X250119Y-5367976D02*
X250119Y-5167976D01*
X297738Y-5167976D01*
X326310Y-5177500D01*
X345357Y-5196548D01*
X354881Y-5215595D01*
X364405Y-5253690D01*
X364405Y-5282262D01*
X354881Y-5320357D01*
X345357Y-5339405D01*
X326310Y-5358452D01*
X297738Y-5367976D01*
X250119Y-5367976D01*
X450119Y-5367976D02*
X450119Y-5234643D01*
X450119Y-5272738D02*
X459643Y-5253690D01*
X469167Y-5244167D01*
X488214Y-5234643D01*
X507262Y-5234643D01*
X573929Y-5367976D02*
X573929Y-5234643D01*
X573929Y-5167976D02*
X564405Y-5177500D01*
X573929Y-5187024D01*
X583452Y-5177500D01*
X573929Y-5167976D01*
X573929Y-5187024D01*
X697738Y-5367976D02*
X678690Y-5358452D01*
X669167Y-5339405D01*
X669167Y-5167976D01*
X802500Y-5367976D02*
X783452Y-5358452D01*
X773928Y-5339405D01*
X773928Y-5167976D01*
X1031071Y-5367976D02*
X1031071Y-5167976D01*
X1097738Y-5310833D01*
X1164405Y-5167976D01*
X1164405Y-5367976D01*
X1345357Y-5367976D02*
X1345357Y-5263214D01*
X1335833Y-5244167D01*
X1316786Y-5234643D01*
X1278690Y-5234643D01*
X1259643Y-5244167D01*
X1345357Y-5358452D02*
X1326310Y-5367976D01*
X1278690Y-5367976D01*
X1259643Y-5358452D01*
X1250119Y-5339405D01*
X1250119Y-5320357D01*
X1259643Y-5301310D01*
X1278690Y-5291786D01*
X1326310Y-5291786D01*
X1345357Y-5282262D01*
X1440595Y-5234643D02*
X1440595Y-5434643D01*
X1440595Y-5244167D02*
X1459643Y-5234643D01*
X1497738Y-5234643D01*
X1516786Y-5244167D01*
X1526309Y-5253690D01*
X1535833Y-5272738D01*
X1535833Y-5329881D01*
X1526309Y-5348929D01*
X1516786Y-5358452D01*
X1497738Y-5367976D01*
X1459643Y-5367976D01*
X1440595Y-5358452D01*
X1621548Y-5348929D02*
X1631071Y-5358452D01*
X1621548Y-5367976D01*
X1612024Y-5358452D01*
X1621548Y-5348929D01*
X1621548Y-5367976D01*
X1621548Y-5244167D02*
X1631071Y-5253690D01*
X1621548Y-5263214D01*
X1612024Y-5253690D01*
X1621548Y-5244167D01*
X1621548Y-5263214D01*
D12*
X-72500Y-5665000D02*
X-7500Y-5730000D01*
X-7500Y-5665000D02*
X-72500Y-5730000D01*
D11*
X288214Y-5587976D02*
X307262Y-5587976D01*
X326310Y-5597500D01*
X335833Y-5607024D01*
X345357Y-5626071D01*
X354881Y-5664167D01*
X354881Y-5711786D01*
X345357Y-5749881D01*
X335833Y-5768928D01*
X326310Y-5778452D01*
X307262Y-5787976D01*
X288214Y-5787976D01*
X269167Y-5778452D01*
X259643Y-5768928D01*
X250119Y-5749881D01*
X240595Y-5711786D01*
X240595Y-5664167D01*
X250119Y-5626071D01*
X259643Y-5607024D01*
X269167Y-5597500D01*
X288214Y-5587976D01*
X440595Y-5768928D02*
X450119Y-5778452D01*
X440595Y-5787976D01*
X431071Y-5778452D01*
X440595Y-5768928D01*
X440595Y-5787976D01*
X621548Y-5587976D02*
X583452Y-5587976D01*
X564405Y-5597500D01*
X554881Y-5607024D01*
X535833Y-5635595D01*
X526310Y-5673690D01*
X526310Y-5749881D01*
X535833Y-5768928D01*
X545357Y-5778452D01*
X564405Y-5787976D01*
X602500Y-5787976D01*
X621548Y-5778452D01*
X631071Y-5768928D01*
X640595Y-5749881D01*
X640595Y-5702262D01*
X631071Y-5683214D01*
X621548Y-5673690D01*
X602500Y-5664167D01*
X564405Y-5664167D01*
X545357Y-5673690D01*
X535833Y-5683214D01*
X526310Y-5702262D01*
X821548Y-5587976D02*
X726309Y-5587976D01*
X716786Y-5683214D01*
X726309Y-5673690D01*
X745357Y-5664167D01*
X792976Y-5664167D01*
X812024Y-5673690D01*
X821548Y-5683214D01*
X831071Y-5702262D01*
X831071Y-5749881D01*
X821548Y-5768928D01*
X812024Y-5778452D01*
X792976Y-5787976D01*
X745357Y-5787976D01*
X726309Y-5778452D01*
X716786Y-5768928D01*
X954881Y-5587976D02*
X973928Y-5587976D01*
X992976Y-5597500D01*
X1002500Y-5607024D01*
X1012024Y-5626071D01*
X1021548Y-5664167D01*
X1021548Y-5711786D01*
X1012024Y-5749881D01*
X1002500Y-5768928D01*
X992976Y-5778452D01*
X973928Y-5787976D01*
X954881Y-5787976D01*
X935833Y-5778452D01*
X926309Y-5768928D01*
X916786Y-5749881D01*
X907262Y-5711786D01*
X907262Y-5664167D01*
X916786Y-5626071D01*
X926309Y-5607024D01*
X935833Y-5597500D01*
X954881Y-5587976D01*
X1107262Y-5787976D02*
X1107262Y-5654643D01*
X1107262Y-5673690D02*
X1116786Y-5664167D01*
X1135833Y-5654643D01*
X1164405Y-5654643D01*
X1183452Y-5664167D01*
X1192976Y-5683214D01*
X1192976Y-5787976D01*
X1192976Y-5683214D02*
X1202500Y-5664167D01*
X1221548Y-5654643D01*
X1250119Y-5654643D01*
X1269167Y-5664167D01*
X1278690Y-5683214D01*
X1278690Y-5787976D01*
X1373929Y-5787976D02*
X1373929Y-5654643D01*
X1373929Y-5673690D02*
X1383452Y-5664167D01*
X1402500Y-5654643D01*
X1431071Y-5654643D01*
X1450119Y-5664167D01*
X1459643Y-5683214D01*
X1459643Y-5787976D01*
X1459643Y-5683214D02*
X1469167Y-5664167D01*
X1488214Y-5654643D01*
X1516786Y-5654643D01*
X1535833Y-5664167D01*
X1545357Y-5683214D01*
X1545357Y-5787976D01*
X1935833Y-5578452D02*
X1764405Y-5835595D01*
X2192976Y-5587976D02*
X2212024Y-5587976D01*
X2231071Y-5597500D01*
X2240595Y-5607024D01*
X2250119Y-5626071D01*
X2259643Y-5664167D01*
X2259643Y-5711786D01*
X2250119Y-5749881D01*
X2240595Y-5768928D01*
X2231071Y-5778452D01*
X2212024Y-5787976D01*
X2192976Y-5787976D01*
X2173929Y-5778452D01*
X2164405Y-5768928D01*
X2154881Y-5749881D01*
X2145357Y-5711786D01*
X2145357Y-5664167D01*
X2154881Y-5626071D01*
X2164405Y-5607024D01*
X2173929Y-5597500D01*
X2192976Y-5587976D01*
X2345357Y-5768928D02*
X2354881Y-5778452D01*
X2345357Y-5787976D01*
X2335833Y-5778452D01*
X2345357Y-5768928D01*
X2345357Y-5787976D01*
X2478690Y-5587976D02*
X2497738Y-5587976D01*
X2516786Y-5597500D01*
X2526310Y-5607024D01*
X2535833Y-5626071D01*
X2545357Y-5664167D01*
X2545357Y-5711786D01*
X2535833Y-5749881D01*
X2526310Y-5768928D01*
X2516786Y-5778452D01*
X2497738Y-5787976D01*
X2478690Y-5787976D01*
X2459643Y-5778452D01*
X2450119Y-5768928D01*
X2440595Y-5749881D01*
X2431071Y-5711786D01*
X2431071Y-5664167D01*
X2440595Y-5626071D01*
X2450119Y-5607024D01*
X2459643Y-5597500D01*
X2478690Y-5587976D01*
X2621548Y-5607024D02*
X2631071Y-5597500D01*
X2650119Y-5587976D01*
X2697738Y-5587976D01*
X2716786Y-5597500D01*
X2726310Y-5607024D01*
X2735833Y-5626071D01*
X2735833Y-5645119D01*
X2726310Y-5673690D01*
X2612024Y-5787976D01*
X2735833Y-5787976D01*
X2916786Y-5587976D02*
X2821548Y-5587976D01*
X2812024Y-5683214D01*
X2821548Y-5673690D01*
X2840595Y-5664167D01*
X2888214Y-5664167D01*
X2907262Y-5673690D01*
X2916786Y-5683214D01*
X2926309Y-5702262D01*
X2926309Y-5749881D01*
X2916786Y-5768928D01*
X2907262Y-5778452D01*
X2888214Y-5787976D01*
X2840595Y-5787976D01*
X2821548Y-5778452D01*
X2812024Y-5768928D01*
X3097738Y-5587976D02*
X3059643Y-5587976D01*
X3040595Y-5597500D01*
X3031071Y-5607024D01*
X3012024Y-5635595D01*
X3002500Y-5673690D01*
X3002500Y-5749881D01*
X3012024Y-5768928D01*
X3021548Y-5778452D01*
X3040595Y-5787976D01*
X3078690Y-5787976D01*
X3097738Y-5778452D01*
X3107262Y-5768928D01*
X3116786Y-5749881D01*
X3116786Y-5702262D01*
X3107262Y-5683214D01*
X3097738Y-5673690D01*
X3078690Y-5664167D01*
X3040595Y-5664167D01*
X3021548Y-5673690D01*
X3012024Y-5683214D01*
X3002500Y-5702262D01*
X3192976Y-5587976D02*
X3192976Y-5626071D01*
X3269167Y-5587976D02*
X3269167Y-5626071D01*
X3564405Y-5864167D02*
X3554881Y-5854643D01*
X3535833Y-5826071D01*
X3526309Y-5807024D01*
X3516786Y-5778452D01*
X3507262Y-5730833D01*
X3507262Y-5692738D01*
X3516786Y-5645119D01*
X3526309Y-5616548D01*
X3535833Y-5597500D01*
X3554881Y-5568929D01*
X3564405Y-5559405D01*
X3631071Y-5607024D02*
X3640595Y-5597500D01*
X3659643Y-5587976D01*
X3707262Y-5587976D01*
X3726309Y-5597500D01*
X3735833Y-5607024D01*
X3745357Y-5626071D01*
X3745357Y-5645119D01*
X3735833Y-5673690D01*
X3621548Y-5787976D01*
X3745357Y-5787976D01*
X3983452Y-5787976D02*
X3983452Y-5587976D01*
X4069167Y-5787976D02*
X4069167Y-5683214D01*
X4059643Y-5664167D01*
X4040595Y-5654643D01*
X4012024Y-5654643D01*
X3992976Y-5664167D01*
X3983452Y-5673690D01*
X4192976Y-5787976D02*
X4173928Y-5778452D01*
X4164405Y-5768928D01*
X4154881Y-5749881D01*
X4154881Y-5692738D01*
X4164405Y-5673690D01*
X4173928Y-5664167D01*
X4192976Y-5654643D01*
X4221548Y-5654643D01*
X4240595Y-5664167D01*
X4250119Y-5673690D01*
X4259643Y-5692738D01*
X4259643Y-5749881D01*
X4250119Y-5768928D01*
X4240595Y-5778452D01*
X4221548Y-5787976D01*
X4192976Y-5787976D01*
X4373929Y-5787976D02*
X4354881Y-5778452D01*
X4345357Y-5759405D01*
X4345357Y-5587976D01*
X4526310Y-5778452D02*
X4507262Y-5787976D01*
X4469167Y-5787976D01*
X4450119Y-5778452D01*
X4440595Y-5759405D01*
X4440595Y-5683214D01*
X4450119Y-5664167D01*
X4469167Y-5654643D01*
X4507262Y-5654643D01*
X4526310Y-5664167D01*
X4535833Y-5683214D01*
X4535833Y-5702262D01*
X4440595Y-5721309D01*
X4612024Y-5778452D02*
X4631071Y-5787976D01*
X4669167Y-5787976D01*
X4688214Y-5778452D01*
X4697738Y-5759405D01*
X4697738Y-5749881D01*
X4688214Y-5730833D01*
X4669167Y-5721309D01*
X4640595Y-5721309D01*
X4621548Y-5711786D01*
X4612024Y-5692738D01*
X4612024Y-5683214D01*
X4621548Y-5664167D01*
X4640595Y-5654643D01*
X4669167Y-5654643D01*
X4688214Y-5664167D01*
X4764405Y-5864167D02*
X4773929Y-5854643D01*
X4792976Y-5826071D01*
X4802500Y-5807024D01*
X4812024Y-5778452D01*
X4821548Y-5730833D01*
X4821548Y-5692738D01*
X4812024Y-5645119D01*
X4802500Y-5616548D01*
X4792976Y-5597500D01*
X4773929Y-5568929D01*
X4764405Y-5559405D01*
X5126310Y-5864167D02*
X5116786Y-5854643D01*
X5097738Y-5826071D01*
X5088214Y-5807024D01*
X5078690Y-5778452D01*
X5069167Y-5730833D01*
X5069167Y-5692738D01*
X5078690Y-5645119D01*
X5088214Y-5616548D01*
X5097738Y-5597500D01*
X5116786Y-5568929D01*
X5126310Y-5559405D01*
X5202500Y-5654643D02*
X5202500Y-5787976D01*
X5202500Y-5673690D02*
X5212024Y-5664167D01*
X5231071Y-5654643D01*
X5259643Y-5654643D01*
X5278690Y-5664167D01*
X5288214Y-5683214D01*
X5288214Y-5787976D01*
X5412024Y-5787976D02*
X5392976Y-5778452D01*
X5383452Y-5768928D01*
X5373929Y-5749881D01*
X5373929Y-5692738D01*
X5383452Y-5673690D01*
X5392976Y-5664167D01*
X5412024Y-5654643D01*
X5440595Y-5654643D01*
X5459643Y-5664167D01*
X5469167Y-5673690D01*
X5478690Y-5692738D01*
X5478690Y-5749881D01*
X5469167Y-5768928D01*
X5459643Y-5778452D01*
X5440595Y-5787976D01*
X5412024Y-5787976D01*
X5535833Y-5654643D02*
X5612024Y-5654643D01*
X5564405Y-5587976D02*
X5564405Y-5759405D01*
X5573929Y-5778452D01*
X5592976Y-5787976D01*
X5612024Y-5787976D01*
X5831071Y-5654643D02*
X5831071Y-5854643D01*
X5831071Y-5664167D02*
X5850119Y-5654643D01*
X5888214Y-5654643D01*
X5907262Y-5664167D01*
X5916786Y-5673690D01*
X5926309Y-5692738D01*
X5926309Y-5749881D01*
X5916786Y-5768928D01*
X5907262Y-5778452D01*
X5888214Y-5787976D01*
X5850119Y-5787976D01*
X5831071Y-5778452D01*
X6040595Y-5787976D02*
X6021548Y-5778452D01*
X6012024Y-5759405D01*
X6012024Y-5587976D01*
X6202500Y-5787976D02*
X6202500Y-5683214D01*
X6192976Y-5664167D01*
X6173928Y-5654643D01*
X6135833Y-5654643D01*
X6116786Y-5664167D01*
X6202500Y-5778452D02*
X6183452Y-5787976D01*
X6135833Y-5787976D01*
X6116786Y-5778452D01*
X6107262Y-5759405D01*
X6107262Y-5740357D01*
X6116786Y-5721309D01*
X6135833Y-5711786D01*
X6183452Y-5711786D01*
X6202500Y-5702262D01*
X6269167Y-5654643D02*
X6345357Y-5654643D01*
X6297738Y-5587976D02*
X6297738Y-5759405D01*
X6307262Y-5778452D01*
X6326309Y-5787976D01*
X6345357Y-5787976D01*
X6488214Y-5778452D02*
X6469167Y-5787976D01*
X6431071Y-5787976D01*
X6412024Y-5778452D01*
X6402500Y-5759405D01*
X6402500Y-5683214D01*
X6412024Y-5664167D01*
X6431071Y-5654643D01*
X6469167Y-5654643D01*
X6488214Y-5664167D01*
X6497738Y-5683214D01*
X6497738Y-5702262D01*
X6402500Y-5721309D01*
X6669167Y-5787976D02*
X6669167Y-5587976D01*
X6669167Y-5778452D02*
X6650119Y-5787976D01*
X6612024Y-5787976D01*
X6592976Y-5778452D01*
X6583452Y-5768928D01*
X6573928Y-5749881D01*
X6573928Y-5692738D01*
X6583452Y-5673690D01*
X6592976Y-5664167D01*
X6612024Y-5654643D01*
X6650119Y-5654643D01*
X6669167Y-5664167D01*
X6745357Y-5864167D02*
X6754881Y-5854643D01*
X6773928Y-5826071D01*
X6783452Y-5807024D01*
X6792976Y-5778452D01*
X6802500Y-5730833D01*
X6802500Y-5692738D01*
X6792976Y-5645119D01*
X6783452Y-5616548D01*
X6773928Y-5597500D01*
X6754881Y-5568929D01*
X6745357Y-5559405D01*
D13*
X-7500Y-5961500D02*
G75*
G03*
X-7500Y-5961500I-85000J0D01*
G01*
D11*
X354881Y-6051976D02*
X240595Y-6051976D01*
X297738Y-6051976D02*
X297738Y-5851976D01*
X278690Y-5880548D01*
X259643Y-5899595D01*
X240595Y-5909119D01*
X440595Y-6032928D02*
X450119Y-6042452D01*
X440595Y-6051976D01*
X431071Y-6042452D01*
X440595Y-6032928D01*
X440595Y-6051976D01*
X516786Y-5851976D02*
X650119Y-5851976D01*
X564405Y-6051976D01*
X764405Y-5851976D02*
X783452Y-5851976D01*
X802500Y-5861500D01*
X812024Y-5871024D01*
X821548Y-5890071D01*
X831071Y-5928167D01*
X831071Y-5975786D01*
X821548Y-6013881D01*
X812024Y-6032928D01*
X802500Y-6042452D01*
X783452Y-6051976D01*
X764405Y-6051976D01*
X745357Y-6042452D01*
X735833Y-6032928D01*
X726309Y-6013881D01*
X716786Y-5975786D01*
X716786Y-5928167D01*
X726309Y-5890071D01*
X735833Y-5871024D01*
X745357Y-5861500D01*
X764405Y-5851976D01*
X954881Y-5851976D02*
X973928Y-5851976D01*
X992976Y-5861500D01*
X1002500Y-5871024D01*
X1012024Y-5890071D01*
X1021548Y-5928167D01*
X1021548Y-5975786D01*
X1012024Y-6013881D01*
X1002500Y-6032928D01*
X992976Y-6042452D01*
X973928Y-6051976D01*
X954881Y-6051976D01*
X935833Y-6042452D01*
X926309Y-6032928D01*
X916786Y-6013881D01*
X907262Y-5975786D01*
X907262Y-5928167D01*
X916786Y-5890071D01*
X926309Y-5871024D01*
X935833Y-5861500D01*
X954881Y-5851976D01*
X1107262Y-6051976D02*
X1107262Y-5918643D01*
X1107262Y-5937690D02*
X1116786Y-5928167D01*
X1135833Y-5918643D01*
X1164405Y-5918643D01*
X1183452Y-5928167D01*
X1192976Y-5947214D01*
X1192976Y-6051976D01*
X1192976Y-5947214D02*
X1202500Y-5928167D01*
X1221548Y-5918643D01*
X1250119Y-5918643D01*
X1269167Y-5928167D01*
X1278690Y-5947214D01*
X1278690Y-6051976D01*
X1373929Y-6051976D02*
X1373929Y-5918643D01*
X1373929Y-5937690D02*
X1383452Y-5928167D01*
X1402500Y-5918643D01*
X1431071Y-5918643D01*
X1450119Y-5928167D01*
X1459643Y-5947214D01*
X1459643Y-6051976D01*
X1459643Y-5947214D02*
X1469167Y-5928167D01*
X1488214Y-5918643D01*
X1516786Y-5918643D01*
X1535833Y-5928167D01*
X1545357Y-5947214D01*
X1545357Y-6051976D01*
X1935833Y-5842452D02*
X1764405Y-6099595D01*
X2192976Y-5851976D02*
X2212024Y-5851976D01*
X2231071Y-5861500D01*
X2240595Y-5871024D01*
X2250119Y-5890071D01*
X2259643Y-5928167D01*
X2259643Y-5975786D01*
X2250119Y-6013881D01*
X2240595Y-6032928D01*
X2231071Y-6042452D01*
X2212024Y-6051976D01*
X2192976Y-6051976D01*
X2173929Y-6042452D01*
X2164405Y-6032928D01*
X2154881Y-6013881D01*
X2145357Y-5975786D01*
X2145357Y-5928167D01*
X2154881Y-5890071D01*
X2164405Y-5871024D01*
X2173929Y-5861500D01*
X2192976Y-5851976D01*
X2345357Y-6032928D02*
X2354881Y-6042452D01*
X2345357Y-6051976D01*
X2335833Y-6042452D01*
X2345357Y-6032928D01*
X2345357Y-6051976D01*
X2478690Y-5851976D02*
X2497738Y-5851976D01*
X2516786Y-5861500D01*
X2526310Y-5871024D01*
X2535833Y-5890071D01*
X2545357Y-5928167D01*
X2545357Y-5975786D01*
X2535833Y-6013881D01*
X2526310Y-6032928D01*
X2516786Y-6042452D01*
X2497738Y-6051976D01*
X2478690Y-6051976D01*
X2459643Y-6042452D01*
X2450119Y-6032928D01*
X2440595Y-6013881D01*
X2431071Y-5975786D01*
X2431071Y-5928167D01*
X2440595Y-5890071D01*
X2450119Y-5871024D01*
X2459643Y-5861500D01*
X2478690Y-5851976D01*
X2716786Y-5851976D02*
X2678690Y-5851976D01*
X2659643Y-5861500D01*
X2650119Y-5871024D01*
X2631071Y-5899595D01*
X2621548Y-5937690D01*
X2621548Y-6013881D01*
X2631071Y-6032928D01*
X2640595Y-6042452D01*
X2659643Y-6051976D01*
X2697738Y-6051976D01*
X2716786Y-6042452D01*
X2726310Y-6032928D01*
X2735833Y-6013881D01*
X2735833Y-5966262D01*
X2726310Y-5947214D01*
X2716786Y-5937690D01*
X2697738Y-5928167D01*
X2659643Y-5928167D01*
X2640595Y-5937690D01*
X2631071Y-5947214D01*
X2621548Y-5966262D01*
X2907262Y-5851976D02*
X2869167Y-5851976D01*
X2850119Y-5861500D01*
X2840595Y-5871024D01*
X2821548Y-5899595D01*
X2812024Y-5937690D01*
X2812024Y-6013881D01*
X2821548Y-6032928D01*
X2831071Y-6042452D01*
X2850119Y-6051976D01*
X2888214Y-6051976D01*
X2907262Y-6042452D01*
X2916786Y-6032928D01*
X2926309Y-6013881D01*
X2926309Y-5966262D01*
X2916786Y-5947214D01*
X2907262Y-5937690D01*
X2888214Y-5928167D01*
X2850119Y-5928167D01*
X2831071Y-5937690D01*
X2821548Y-5947214D01*
X2812024Y-5966262D01*
X3021548Y-6051976D02*
X3059643Y-6051976D01*
X3078690Y-6042452D01*
X3088214Y-6032928D01*
X3107262Y-6004357D01*
X3116786Y-5966262D01*
X3116786Y-5890071D01*
X3107262Y-5871024D01*
X3097738Y-5861500D01*
X3078690Y-5851976D01*
X3040595Y-5851976D01*
X3021548Y-5861500D01*
X3012024Y-5871024D01*
X3002500Y-5890071D01*
X3002500Y-5937690D01*
X3012024Y-5956738D01*
X3021548Y-5966262D01*
X3040595Y-5975786D01*
X3078690Y-5975786D01*
X3097738Y-5966262D01*
X3107262Y-5956738D01*
X3116786Y-5937690D01*
X3192976Y-5851976D02*
X3192976Y-5890071D01*
X3269167Y-5851976D02*
X3269167Y-5890071D01*
X3564405Y-6128167D02*
X3554881Y-6118643D01*
X3535833Y-6090071D01*
X3526309Y-6071024D01*
X3516786Y-6042452D01*
X3507262Y-5994833D01*
X3507262Y-5956738D01*
X3516786Y-5909119D01*
X3526309Y-5880548D01*
X3535833Y-5861500D01*
X3554881Y-5832928D01*
X3564405Y-5823405D01*
X3726309Y-5918643D02*
X3726309Y-6051976D01*
X3678690Y-5842452D02*
X3631071Y-5985309D01*
X3754881Y-5985309D01*
X3983452Y-6051976D02*
X3983452Y-5851976D01*
X4069167Y-6051976D02*
X4069167Y-5947214D01*
X4059643Y-5928167D01*
X4040595Y-5918643D01*
X4012024Y-5918643D01*
X3992976Y-5928167D01*
X3983452Y-5937690D01*
X4192976Y-6051976D02*
X4173928Y-6042452D01*
X4164405Y-6032928D01*
X4154881Y-6013881D01*
X4154881Y-5956738D01*
X4164405Y-5937690D01*
X4173928Y-5928167D01*
X4192976Y-5918643D01*
X4221548Y-5918643D01*
X4240595Y-5928167D01*
X4250119Y-5937690D01*
X4259643Y-5956738D01*
X4259643Y-6013881D01*
X4250119Y-6032928D01*
X4240595Y-6042452D01*
X4221548Y-6051976D01*
X4192976Y-6051976D01*
X4373929Y-6051976D02*
X4354881Y-6042452D01*
X4345357Y-6023405D01*
X4345357Y-5851976D01*
X4526310Y-6042452D02*
X4507262Y-6051976D01*
X4469167Y-6051976D01*
X4450119Y-6042452D01*
X4440595Y-6023405D01*
X4440595Y-5947214D01*
X4450119Y-5928167D01*
X4469167Y-5918643D01*
X4507262Y-5918643D01*
X4526310Y-5928167D01*
X4535833Y-5947214D01*
X4535833Y-5966262D01*
X4440595Y-5985309D01*
X4612024Y-6042452D02*
X4631071Y-6051976D01*
X4669167Y-6051976D01*
X4688214Y-6042452D01*
X4697738Y-6023405D01*
X4697738Y-6013881D01*
X4688214Y-5994833D01*
X4669167Y-5985309D01*
X4640595Y-5985309D01*
X4621548Y-5975786D01*
X4612024Y-5956738D01*
X4612024Y-5947214D01*
X4621548Y-5928167D01*
X4640595Y-5918643D01*
X4669167Y-5918643D01*
X4688214Y-5928167D01*
X4764405Y-6128167D02*
X4773929Y-6118643D01*
X4792976Y-6090071D01*
X4802500Y-6071024D01*
X4812024Y-6042452D01*
X4821548Y-5994833D01*
X4821548Y-5956738D01*
X4812024Y-5909119D01*
X4802500Y-5880548D01*
X4792976Y-5861500D01*
X4773929Y-5832928D01*
X4764405Y-5823405D01*
X5126310Y-6128167D02*
X5116786Y-6118643D01*
X5097738Y-6090071D01*
X5088214Y-6071024D01*
X5078690Y-6042452D01*
X5069167Y-5994833D01*
X5069167Y-5956738D01*
X5078690Y-5909119D01*
X5088214Y-5880548D01*
X5097738Y-5861500D01*
X5116786Y-5832928D01*
X5126310Y-5823405D01*
X5202500Y-5918643D02*
X5202500Y-6051976D01*
X5202500Y-5937690D02*
X5212024Y-5928167D01*
X5231071Y-5918643D01*
X5259643Y-5918643D01*
X5278690Y-5928167D01*
X5288214Y-5947214D01*
X5288214Y-6051976D01*
X5412024Y-6051976D02*
X5392976Y-6042452D01*
X5383452Y-6032928D01*
X5373929Y-6013881D01*
X5373929Y-5956738D01*
X5383452Y-5937690D01*
X5392976Y-5928167D01*
X5412024Y-5918643D01*
X5440595Y-5918643D01*
X5459643Y-5928167D01*
X5469167Y-5937690D01*
X5478690Y-5956738D01*
X5478690Y-6013881D01*
X5469167Y-6032928D01*
X5459643Y-6042452D01*
X5440595Y-6051976D01*
X5412024Y-6051976D01*
X5535833Y-5918643D02*
X5612024Y-5918643D01*
X5564405Y-5851976D02*
X5564405Y-6023405D01*
X5573929Y-6042452D01*
X5592976Y-6051976D01*
X5612024Y-6051976D01*
X5831071Y-5918643D02*
X5831071Y-6118643D01*
X5831071Y-5928167D02*
X5850119Y-5918643D01*
X5888214Y-5918643D01*
X5907262Y-5928167D01*
X5916786Y-5937690D01*
X5926309Y-5956738D01*
X5926309Y-6013881D01*
X5916786Y-6032928D01*
X5907262Y-6042452D01*
X5888214Y-6051976D01*
X5850119Y-6051976D01*
X5831071Y-6042452D01*
X6040595Y-6051976D02*
X6021548Y-6042452D01*
X6012024Y-6023405D01*
X6012024Y-5851976D01*
X6202500Y-6051976D02*
X6202500Y-5947214D01*
X6192976Y-5928167D01*
X6173928Y-5918643D01*
X6135833Y-5918643D01*
X6116786Y-5928167D01*
X6202500Y-6042452D02*
X6183452Y-6051976D01*
X6135833Y-6051976D01*
X6116786Y-6042452D01*
X6107262Y-6023405D01*
X6107262Y-6004357D01*
X6116786Y-5985309D01*
X6135833Y-5975786D01*
X6183452Y-5975786D01*
X6202500Y-5966262D01*
X6269167Y-5918643D02*
X6345357Y-5918643D01*
X6297738Y-5851976D02*
X6297738Y-6023405D01*
X6307262Y-6042452D01*
X6326309Y-6051976D01*
X6345357Y-6051976D01*
X6488214Y-6042452D02*
X6469167Y-6051976D01*
X6431071Y-6051976D01*
X6412024Y-6042452D01*
X6402500Y-6023405D01*
X6402500Y-5947214D01*
X6412024Y-5928167D01*
X6431071Y-5918643D01*
X6469167Y-5918643D01*
X6488214Y-5928167D01*
X6497738Y-5947214D01*
X6497738Y-5966262D01*
X6402500Y-5985309D01*
X6669167Y-6051976D02*
X6669167Y-5851976D01*
X6669167Y-6042452D02*
X6650119Y-6051976D01*
X6612024Y-6051976D01*
X6592976Y-6042452D01*
X6583452Y-6032928D01*
X6573928Y-6013881D01*
X6573928Y-5956738D01*
X6583452Y-5937690D01*
X6592976Y-5928167D01*
X6612024Y-5918643D01*
X6650119Y-5918643D01*
X6669167Y-5928167D01*
X6745357Y-6128167D02*
X6754881Y-6118643D01*
X6773928Y-6090071D01*
X6783452Y-6071024D01*
X6792976Y-6042452D01*
X6802500Y-5994833D01*
X6802500Y-5956738D01*
X6792976Y-5909119D01*
X6783452Y-5880548D01*
X6773928Y-5861500D01*
X6754881Y-5832928D01*
X6745357Y-5823405D01*
X-107500Y-6151500D02*
X-107500Y-6351500D01*
X-207500Y-6251500D02*
X-7500Y-6251500D01*
X231071Y-6141976D02*
X354881Y-6141976D01*
X288214Y-6218167D01*
X316786Y-6218167D01*
X335833Y-6227690D01*
X345357Y-6237214D01*
X354881Y-6256262D01*
X354881Y-6303881D01*
X345357Y-6322928D01*
X335833Y-6332452D01*
X316786Y-6341976D01*
X259643Y-6341976D01*
X240595Y-6332452D01*
X231071Y-6322928D01*
X440595Y-6322928D02*
X450119Y-6332452D01*
X440595Y-6341976D01*
X431071Y-6332452D01*
X440595Y-6322928D01*
X440595Y-6341976D01*
X621548Y-6208643D02*
X621548Y-6341976D01*
X573929Y-6132452D02*
X526310Y-6275309D01*
X650119Y-6275309D01*
X764405Y-6141976D02*
X783452Y-6141976D01*
X802500Y-6151500D01*
X812024Y-6161024D01*
X821548Y-6180071D01*
X831071Y-6218167D01*
X831071Y-6265786D01*
X821548Y-6303881D01*
X812024Y-6322928D01*
X802500Y-6332452D01*
X783452Y-6341976D01*
X764405Y-6341976D01*
X745357Y-6332452D01*
X735833Y-6322928D01*
X726309Y-6303881D01*
X716786Y-6265786D01*
X716786Y-6218167D01*
X726309Y-6180071D01*
X735833Y-6161024D01*
X745357Y-6151500D01*
X764405Y-6141976D01*
X954881Y-6141976D02*
X973928Y-6141976D01*
X992976Y-6151500D01*
X1002500Y-6161024D01*
X1012024Y-6180071D01*
X1021548Y-6218167D01*
X1021548Y-6265786D01*
X1012024Y-6303881D01*
X1002500Y-6322928D01*
X992976Y-6332452D01*
X973928Y-6341976D01*
X954881Y-6341976D01*
X935833Y-6332452D01*
X926309Y-6322928D01*
X916786Y-6303881D01*
X907262Y-6265786D01*
X907262Y-6218167D01*
X916786Y-6180071D01*
X926309Y-6161024D01*
X935833Y-6151500D01*
X954881Y-6141976D01*
X1107262Y-6341976D02*
X1107262Y-6208643D01*
X1107262Y-6227690D02*
X1116786Y-6218167D01*
X1135833Y-6208643D01*
X1164405Y-6208643D01*
X1183452Y-6218167D01*
X1192976Y-6237214D01*
X1192976Y-6341976D01*
X1192976Y-6237214D02*
X1202500Y-6218167D01*
X1221548Y-6208643D01*
X1250119Y-6208643D01*
X1269167Y-6218167D01*
X1278690Y-6237214D01*
X1278690Y-6341976D01*
X1373929Y-6341976D02*
X1373929Y-6208643D01*
X1373929Y-6227690D02*
X1383452Y-6218167D01*
X1402500Y-6208643D01*
X1431071Y-6208643D01*
X1450119Y-6218167D01*
X1459643Y-6237214D01*
X1459643Y-6341976D01*
X1459643Y-6237214D02*
X1469167Y-6218167D01*
X1488214Y-6208643D01*
X1516786Y-6208643D01*
X1535833Y-6218167D01*
X1545357Y-6237214D01*
X1545357Y-6341976D01*
X1935833Y-6132452D02*
X1764405Y-6389595D01*
X2192976Y-6141976D02*
X2212024Y-6141976D01*
X2231071Y-6151500D01*
X2240595Y-6161024D01*
X2250119Y-6180071D01*
X2259643Y-6218167D01*
X2259643Y-6265786D01*
X2250119Y-6303881D01*
X2240595Y-6322928D01*
X2231071Y-6332452D01*
X2212024Y-6341976D01*
X2192976Y-6341976D01*
X2173929Y-6332452D01*
X2164405Y-6322928D01*
X2154881Y-6303881D01*
X2145357Y-6265786D01*
X2145357Y-6218167D01*
X2154881Y-6180071D01*
X2164405Y-6161024D01*
X2173929Y-6151500D01*
X2192976Y-6141976D01*
X2345357Y-6322928D02*
X2354881Y-6332452D01*
X2345357Y-6341976D01*
X2335833Y-6332452D01*
X2345357Y-6322928D01*
X2345357Y-6341976D01*
X2545357Y-6341976D02*
X2431071Y-6341976D01*
X2488214Y-6341976D02*
X2488214Y-6141976D01*
X2469167Y-6170548D01*
X2450119Y-6189595D01*
X2431071Y-6199119D01*
X2612024Y-6141976D02*
X2735833Y-6141976D01*
X2669167Y-6218167D01*
X2697738Y-6218167D01*
X2716786Y-6227690D01*
X2726310Y-6237214D01*
X2735833Y-6256262D01*
X2735833Y-6303881D01*
X2726310Y-6322928D01*
X2716786Y-6332452D01*
X2697738Y-6341976D01*
X2640595Y-6341976D01*
X2621548Y-6332452D01*
X2612024Y-6322928D01*
X2802500Y-6141976D02*
X2926309Y-6141976D01*
X2859643Y-6218167D01*
X2888214Y-6218167D01*
X2907262Y-6227690D01*
X2916786Y-6237214D01*
X2926309Y-6256262D01*
X2926309Y-6303881D01*
X2916786Y-6322928D01*
X2907262Y-6332452D01*
X2888214Y-6341976D01*
X2831071Y-6341976D01*
X2812024Y-6332452D01*
X2802500Y-6322928D01*
X3021548Y-6341976D02*
X3059643Y-6341976D01*
X3078690Y-6332452D01*
X3088214Y-6322928D01*
X3107262Y-6294357D01*
X3116786Y-6256262D01*
X3116786Y-6180071D01*
X3107262Y-6161024D01*
X3097738Y-6151500D01*
X3078690Y-6141976D01*
X3040595Y-6141976D01*
X3021548Y-6151500D01*
X3012024Y-6161024D01*
X3002500Y-6180071D01*
X3002500Y-6227690D01*
X3012024Y-6246738D01*
X3021548Y-6256262D01*
X3040595Y-6265786D01*
X3078690Y-6265786D01*
X3097738Y-6256262D01*
X3107262Y-6246738D01*
X3116786Y-6227690D01*
X3192976Y-6141976D02*
X3192976Y-6180071D01*
X3269167Y-6141976D02*
X3269167Y-6180071D01*
X3564405Y-6418167D02*
X3554881Y-6408643D01*
X3535833Y-6380071D01*
X3526309Y-6361024D01*
X3516786Y-6332452D01*
X3507262Y-6284833D01*
X3507262Y-6246738D01*
X3516786Y-6199119D01*
X3526309Y-6170548D01*
X3535833Y-6151500D01*
X3554881Y-6122928D01*
X3564405Y-6113405D01*
X3631071Y-6161024D02*
X3640595Y-6151500D01*
X3659643Y-6141976D01*
X3707262Y-6141976D01*
X3726309Y-6151500D01*
X3735833Y-6161024D01*
X3745357Y-6180071D01*
X3745357Y-6199119D01*
X3735833Y-6227690D01*
X3621548Y-6341976D01*
X3745357Y-6341976D01*
X3983452Y-6341976D02*
X3983452Y-6141976D01*
X4069167Y-6341976D02*
X4069167Y-6237214D01*
X4059643Y-6218167D01*
X4040595Y-6208643D01*
X4012024Y-6208643D01*
X3992976Y-6218167D01*
X3983452Y-6227690D01*
X4192976Y-6341976D02*
X4173928Y-6332452D01*
X4164405Y-6322928D01*
X4154881Y-6303881D01*
X4154881Y-6246738D01*
X4164405Y-6227690D01*
X4173928Y-6218167D01*
X4192976Y-6208643D01*
X4221548Y-6208643D01*
X4240595Y-6218167D01*
X4250119Y-6227690D01*
X4259643Y-6246738D01*
X4259643Y-6303881D01*
X4250119Y-6322928D01*
X4240595Y-6332452D01*
X4221548Y-6341976D01*
X4192976Y-6341976D01*
X4373929Y-6341976D02*
X4354881Y-6332452D01*
X4345357Y-6313405D01*
X4345357Y-6141976D01*
X4526310Y-6332452D02*
X4507262Y-6341976D01*
X4469167Y-6341976D01*
X4450119Y-6332452D01*
X4440595Y-6313405D01*
X4440595Y-6237214D01*
X4450119Y-6218167D01*
X4469167Y-6208643D01*
X4507262Y-6208643D01*
X4526310Y-6218167D01*
X4535833Y-6237214D01*
X4535833Y-6256262D01*
X4440595Y-6275309D01*
X4612024Y-6332452D02*
X4631071Y-6341976D01*
X4669167Y-6341976D01*
X4688214Y-6332452D01*
X4697738Y-6313405D01*
X4697738Y-6303881D01*
X4688214Y-6284833D01*
X4669167Y-6275309D01*
X4640595Y-6275309D01*
X4621548Y-6265786D01*
X4612024Y-6246738D01*
X4612024Y-6237214D01*
X4621548Y-6218167D01*
X4640595Y-6208643D01*
X4669167Y-6208643D01*
X4688214Y-6218167D01*
X4764405Y-6418167D02*
X4773929Y-6408643D01*
X4792976Y-6380071D01*
X4802500Y-6361024D01*
X4812024Y-6332452D01*
X4821548Y-6284833D01*
X4821548Y-6246738D01*
X4812024Y-6199119D01*
X4802500Y-6170548D01*
X4792976Y-6151500D01*
X4773929Y-6122928D01*
X4764405Y-6113405D01*
X5126310Y-6418167D02*
X5116786Y-6408643D01*
X5097738Y-6380071D01*
X5088214Y-6361024D01*
X5078690Y-6332452D01*
X5069167Y-6284833D01*
X5069167Y-6246738D01*
X5078690Y-6199119D01*
X5088214Y-6170548D01*
X5097738Y-6151500D01*
X5116786Y-6122928D01*
X5126310Y-6113405D01*
X5202500Y-6208643D02*
X5202500Y-6341976D01*
X5202500Y-6227690D02*
X5212024Y-6218167D01*
X5231071Y-6208643D01*
X5259643Y-6208643D01*
X5278690Y-6218167D01*
X5288214Y-6237214D01*
X5288214Y-6341976D01*
X5412024Y-6341976D02*
X5392976Y-6332452D01*
X5383452Y-6322928D01*
X5373929Y-6303881D01*
X5373929Y-6246738D01*
X5383452Y-6227690D01*
X5392976Y-6218167D01*
X5412024Y-6208643D01*
X5440595Y-6208643D01*
X5459643Y-6218167D01*
X5469167Y-6227690D01*
X5478690Y-6246738D01*
X5478690Y-6303881D01*
X5469167Y-6322928D01*
X5459643Y-6332452D01*
X5440595Y-6341976D01*
X5412024Y-6341976D01*
X5535833Y-6208643D02*
X5612024Y-6208643D01*
X5564405Y-6141976D02*
X5564405Y-6313405D01*
X5573929Y-6332452D01*
X5592976Y-6341976D01*
X5612024Y-6341976D01*
X5831071Y-6208643D02*
X5831071Y-6408643D01*
X5831071Y-6218167D02*
X5850119Y-6208643D01*
X5888214Y-6208643D01*
X5907262Y-6218167D01*
X5916786Y-6227690D01*
X5926309Y-6246738D01*
X5926309Y-6303881D01*
X5916786Y-6322928D01*
X5907262Y-6332452D01*
X5888214Y-6341976D01*
X5850119Y-6341976D01*
X5831071Y-6332452D01*
X6040595Y-6341976D02*
X6021548Y-6332452D01*
X6012024Y-6313405D01*
X6012024Y-6141976D01*
X6202500Y-6341976D02*
X6202500Y-6237214D01*
X6192976Y-6218167D01*
X6173928Y-6208643D01*
X6135833Y-6208643D01*
X6116786Y-6218167D01*
X6202500Y-6332452D02*
X6183452Y-6341976D01*
X6135833Y-6341976D01*
X6116786Y-6332452D01*
X6107262Y-6313405D01*
X6107262Y-6294357D01*
X6116786Y-6275309D01*
X6135833Y-6265786D01*
X6183452Y-6265786D01*
X6202500Y-6256262D01*
X6269167Y-6208643D02*
X6345357Y-6208643D01*
X6297738Y-6141976D02*
X6297738Y-6313405D01*
X6307262Y-6332452D01*
X6326309Y-6341976D01*
X6345357Y-6341976D01*
X6488214Y-6332452D02*
X6469167Y-6341976D01*
X6431071Y-6341976D01*
X6412024Y-6332452D01*
X6402500Y-6313405D01*
X6402500Y-6237214D01*
X6412024Y-6218167D01*
X6431071Y-6208643D01*
X6469167Y-6208643D01*
X6488214Y-6218167D01*
X6497738Y-6237214D01*
X6497738Y-6256262D01*
X6402500Y-6275309D01*
X6669167Y-6341976D02*
X6669167Y-6141976D01*
X6669167Y-6332452D02*
X6650119Y-6341976D01*
X6612024Y-6341976D01*
X6592976Y-6332452D01*
X6583452Y-6322928D01*
X6573928Y-6303881D01*
X6573928Y-6246738D01*
X6583452Y-6227690D01*
X6592976Y-6218167D01*
X6612024Y-6208643D01*
X6650119Y-6208643D01*
X6669167Y-6218167D01*
X6745357Y-6418167D02*
X6754881Y-6408643D01*
X6773928Y-6380071D01*
X6783452Y-6361024D01*
X6792976Y-6332452D01*
X6802500Y-6284833D01*
X6802500Y-6246738D01*
X6792976Y-6199119D01*
X6783452Y-6170548D01*
X6773928Y-6151500D01*
X6754881Y-6122928D01*
X6745357Y-6113405D01*
M02*
