%TF.GenerationSoftware,KiCad,Pcbnew,(6.0.0)*%
%TF.CreationDate,2021-12-27T13:21:06-08:00*%
%TF.ProjectId,Microtus-rp2040,4d696372-6f74-4757-932d-727032303430,rev?*%
%TF.SameCoordinates,Original*%
%TF.FileFunction,Legend,Top*%
%TF.FilePolarity,Positive*%
%FSLAX46Y46*%
G04 Gerber Fmt 4.6, Leading zero omitted, Abs format (unit mm)*
G04 Created by KiCad (PCBNEW (6.0.0)) date 2021-12-27 13:21:06*
%MOMM*%
%LPD*%
G01*
G04 APERTURE LIST*
%ADD10C,0.300000*%
%ADD11C,0.150000*%
%ADD12C,0.127000*%
%ADD13C,0.120000*%
%ADD14C,0.203200*%
%ADD15R,1.700000X1.700000*%
%ADD16O,1.700000X1.700000*%
%ADD17R,1.350000X1.350000*%
%ADD18O,1.350000X1.350000*%
%ADD19O,1.000000X1.600000*%
%ADD20C,0.650000*%
%ADD21O,1.000000X2.100000*%
%ADD22C,1.500000*%
%ADD23R,3.200000X2.000000*%
%ADD24C,2.000000*%
%ADD25R,2.000000X2.000000*%
%ADD26C,3.400000*%
%ADD27C,1.700000*%
%ADD28C,1.981200*%
%ADD29C,2.489200*%
G04 APERTURE END LIST*
D10*
X29290000Y-10608571D02*
X29290000Y-11680000D01*
X29218571Y-11894285D01*
X29075714Y-12037142D01*
X28861428Y-12108571D01*
X28718571Y-12108571D01*
X30718571Y-12108571D02*
X30004285Y-12108571D01*
X30004285Y-10608571D01*
X32075714Y-11965714D02*
X32004285Y-12037142D01*
X31790000Y-12108571D01*
X31647142Y-12108571D01*
X31432857Y-12037142D01*
X31290000Y-11894285D01*
X31218571Y-11751428D01*
X31147142Y-11465714D01*
X31147142Y-11251428D01*
X31218571Y-10965714D01*
X31290000Y-10822857D01*
X31432857Y-10680000D01*
X31647142Y-10608571D01*
X31790000Y-10608571D01*
X32004285Y-10680000D01*
X32075714Y-10751428D01*
X33147142Y-10608571D02*
X33147142Y-11680000D01*
X33075714Y-11894285D01*
X32932857Y-12037142D01*
X32718571Y-12108571D01*
X32575714Y-12108571D01*
X34575714Y-12108571D02*
X33861428Y-12108571D01*
X33861428Y-10608571D01*
X35932857Y-11965714D02*
X35861428Y-12037142D01*
X35647142Y-12108571D01*
X35504285Y-12108571D01*
X35290000Y-12037142D01*
X35147142Y-11894285D01*
X35075714Y-11751428D01*
X35004285Y-11465714D01*
X35004285Y-11251428D01*
X35075714Y-10965714D01*
X35147142Y-10822857D01*
X35290000Y-10680000D01*
X35504285Y-10608571D01*
X35647142Y-10608571D01*
X35861428Y-10680000D01*
X35932857Y-10751428D01*
X37004285Y-10608571D02*
X37004285Y-11680000D01*
X36932857Y-11894285D01*
X36790000Y-12037142D01*
X36575714Y-12108571D01*
X36432857Y-12108571D01*
X38432857Y-12108571D02*
X37718571Y-12108571D01*
X37718571Y-10608571D01*
X39790000Y-11965714D02*
X39718571Y-12037142D01*
X39504285Y-12108571D01*
X39361428Y-12108571D01*
X39147142Y-12037142D01*
X39004285Y-11894285D01*
X38932857Y-11751428D01*
X38861428Y-11465714D01*
X38861428Y-11251428D01*
X38932857Y-10965714D01*
X39004285Y-10822857D01*
X39147142Y-10680000D01*
X39361428Y-10608571D01*
X39504285Y-10608571D01*
X39718571Y-10680000D01*
X39790000Y-10751428D01*
D11*
%TO.C,J3*%
X40517380Y-48663333D02*
X41231666Y-48663333D01*
X41374523Y-48710952D01*
X41469761Y-48806190D01*
X41517380Y-48949047D01*
X41517380Y-49044285D01*
X40517380Y-48282380D02*
X40517380Y-47663333D01*
X40898333Y-47996666D01*
X40898333Y-47853809D01*
X40945952Y-47758571D01*
X40993571Y-47710952D01*
X41088809Y-47663333D01*
X41326904Y-47663333D01*
X41422142Y-47710952D01*
X41469761Y-47758571D01*
X41517380Y-47853809D01*
X41517380Y-48139523D01*
X41469761Y-48234761D01*
X41422142Y-48282380D01*
%TO.C,SW5*%
X11876666Y-21868761D02*
X12019523Y-21916380D01*
X12257619Y-21916380D01*
X12352857Y-21868761D01*
X12400476Y-21821142D01*
X12448095Y-21725904D01*
X12448095Y-21630666D01*
X12400476Y-21535428D01*
X12352857Y-21487809D01*
X12257619Y-21440190D01*
X12067142Y-21392571D01*
X11971904Y-21344952D01*
X11924285Y-21297333D01*
X11876666Y-21202095D01*
X11876666Y-21106857D01*
X11924285Y-21011619D01*
X11971904Y-20964000D01*
X12067142Y-20916380D01*
X12305238Y-20916380D01*
X12448095Y-20964000D01*
X12781428Y-20916380D02*
X13019523Y-21916380D01*
X13210000Y-21202095D01*
X13400476Y-21916380D01*
X13638571Y-20916380D01*
X14495714Y-20916380D02*
X14019523Y-20916380D01*
X13971904Y-21392571D01*
X14019523Y-21344952D01*
X14114761Y-21297333D01*
X14352857Y-21297333D01*
X14448095Y-21344952D01*
X14495714Y-21392571D01*
X14543333Y-21487809D01*
X14543333Y-21725904D01*
X14495714Y-21821142D01*
X14448095Y-21868761D01*
X14352857Y-21916380D01*
X14114761Y-21916380D01*
X14019523Y-21868761D01*
X13971904Y-21821142D01*
D12*
%TO.C,S1*%
X21411742Y-14688457D02*
X21440771Y-14601371D01*
X21440771Y-14456228D01*
X21411742Y-14398171D01*
X21382714Y-14369142D01*
X21324657Y-14340114D01*
X21266600Y-14340114D01*
X21208542Y-14369142D01*
X21179514Y-14398171D01*
X21150485Y-14456228D01*
X21121457Y-14572342D01*
X21092428Y-14630400D01*
X21063400Y-14659428D01*
X21005342Y-14688457D01*
X20947285Y-14688457D01*
X20889228Y-14659428D01*
X20860200Y-14630400D01*
X20831171Y-14572342D01*
X20831171Y-14427200D01*
X20860200Y-14340114D01*
X21440771Y-13759542D02*
X21440771Y-14107885D01*
X21440771Y-13933714D02*
X20831171Y-13933714D01*
X20918257Y-13991771D01*
X20976314Y-14049828D01*
X21005342Y-14107885D01*
D13*
%TO.C,J3*%
X32325000Y-47000000D02*
X32325000Y-49660000D01*
X37465000Y-47000000D02*
X32325000Y-47000000D01*
X37465000Y-49660000D02*
X32325000Y-49660000D01*
X37465000Y-47000000D02*
X37465000Y-49660000D01*
X38735000Y-47000000D02*
X40065000Y-47000000D01*
X40065000Y-47000000D02*
X40065000Y-48330000D01*
%TO.C,SW5*%
X11510000Y-14264000D02*
G75*
G03*
X11510000Y-14264000I-3000000J0D01*
G01*
X6510000Y-20164000D02*
X2410000Y-20164000D01*
X2410000Y-8364000D02*
X6510000Y-8364000D01*
X10510000Y-8364000D02*
X14610000Y-8364000D01*
X10510000Y-20064000D02*
X14610000Y-20064000D01*
X14610000Y-20064000D02*
X14610000Y-8364000D01*
X16010000Y-18064000D02*
X16310000Y-18364000D01*
X16310000Y-18364000D02*
X15710000Y-18364000D01*
X15710000Y-18364000D02*
X16010000Y-18064000D01*
X2410000Y-20164000D02*
X2410000Y-17564000D01*
X2410000Y-15564000D02*
X2410000Y-12964000D01*
X2410000Y-10964000D02*
X2410000Y-8364000D01*
X8510000Y-14764000D02*
X8510000Y-13764000D01*
X9010000Y-14264000D02*
X8010000Y-14264000D01*
D14*
%TO.C,S1*%
X35135000Y-14224000D02*
G75*
G03*
X35135000Y-14224000I-635000J0D01*
G01*
X26880000Y-19050000D02*
X26880000Y-23114000D01*
X26880000Y-9398000D02*
X26880000Y-7239000D01*
X23324000Y-9398000D02*
X23324000Y-19050000D01*
X26880000Y-19050000D02*
X23324000Y-19050000D01*
X26880000Y-9398000D02*
X23324000Y-9398000D01*
X28912000Y-254000D02*
X28912000Y-7239000D01*
X40088000Y-254000D02*
X40088000Y-7239000D01*
X28912000Y-7239000D02*
X26880000Y-7239000D01*
X42120000Y-7239000D02*
X40088000Y-7239000D01*
X42120000Y-18288000D02*
X44025000Y-18288000D01*
X42120000Y-10160000D02*
X44025000Y-10160000D01*
X42120000Y-18288000D02*
X42120000Y-23114000D01*
X42120000Y-10160000D02*
X42120000Y-7239000D01*
X44025000Y-10160000D02*
X44025000Y-18288000D01*
X29674000Y-23114000D02*
X26880000Y-23114000D01*
X39326000Y-23114000D02*
X42120000Y-23114000D01*
X29674000Y-25654000D02*
X29674000Y-23114000D01*
X39326000Y-25654000D02*
X39326000Y-23114000D01*
X39326000Y-25654000D02*
X29674000Y-25654000D01*
X40088000Y-254000D02*
X28912000Y-254000D01*
%TD*%
%LPC*%
D15*
%TO.C,J3*%
X38735000Y-48330000D03*
D16*
X36195000Y-48330000D03*
X33655000Y-48330000D03*
%TD*%
D17*
%TO.C,JP1*%
X20066000Y-41656000D03*
D18*
X20066000Y-39656000D03*
%TD*%
D19*
%TO.C,J2*%
X57914000Y-3268000D03*
D20*
X56484000Y-6918000D03*
D19*
X49274000Y-3268000D03*
D20*
X50704000Y-6918000D03*
D21*
X49274000Y-7448000D03*
X57914000Y-7448000D03*
%TD*%
D22*
%TO.C,SW5*%
X1510000Y-11764000D03*
X1510000Y-16764000D03*
D23*
X8510000Y-8664000D03*
X8510000Y-19864000D03*
D24*
X16010000Y-11764000D03*
X16010000Y-14264000D03*
D25*
X16010000Y-16764000D03*
%TD*%
D26*
%TO.C,SW3*%
X59500000Y-33000000D03*
D24*
X59500000Y-38900000D03*
X54500000Y-36800000D03*
D27*
X54000000Y-33000000D03*
X65000000Y-33000000D03*
%TD*%
D26*
%TO.C,SW1*%
X9500000Y-33000000D03*
D24*
X9500000Y-38900000D03*
X4500000Y-36800000D03*
D27*
X4000000Y-33000000D03*
X15000000Y-33000000D03*
%TD*%
D28*
%TO.C,S1*%
X31325000Y-1524000D03*
X37675000Y-1524000D03*
X31325000Y-6604000D03*
X37675000Y-6604000D03*
X31960000Y-24384000D03*
X34500000Y-24384000D03*
X37040000Y-24384000D03*
D29*
X26880000Y-7556500D03*
X26880000Y-20891500D03*
X42120000Y-20891500D03*
X42120000Y-7556500D03*
D28*
X24340000Y-11684000D03*
X24340000Y-14224000D03*
X24340000Y-16764000D03*
%TD*%
M02*
