%TF.GenerationSoftware,KiCad,Pcbnew,(6.0.0)*%
%TF.CreationDate,2021-12-27T13:21:06-08:00*%
%TF.ProjectId,Microtus-rp2040,4d696372-6f74-4757-932d-727032303430,rev?*%
%TF.SameCoordinates,Original*%
%TF.FileFunction,Paste,Bot*%
%TF.FilePolarity,Positive*%
%FSLAX46Y46*%
G04 Gerber Fmt 4.6, Leading zero omitted, Abs format (unit mm)*
G04 Created by KiCad (PCBNEW (6.0.0)) date 2021-12-27 13:21:06*
%MOMM*%
%LPD*%
G01*
G04 APERTURE LIST*
G04 Aperture macros list*
%AMRoundRect*
0 Rectangle with rounded corners*
0 $1 Rounding radius*
0 $2 $3 $4 $5 $6 $7 $8 $9 X,Y pos of 4 corners*
0 Add a 4 corners polygon primitive as box body*
4,1,4,$2,$3,$4,$5,$6,$7,$8,$9,$2,$3,0*
0 Add four circle primitives for the rounded corners*
1,1,$1+$1,$2,$3*
1,1,$1+$1,$4,$5*
1,1,$1+$1,$6,$7*
1,1,$1+$1,$8,$9*
0 Add four rect primitives between the rounded corners*
20,1,$1+$1,$2,$3,$4,$5,0*
20,1,$1+$1,$4,$5,$6,$7,0*
20,1,$1+$1,$6,$7,$8,$9,0*
20,1,$1+$1,$8,$9,$2,$3,0*%
G04 Aperture macros list end*
%ADD10RoundRect,0.225000X-0.250000X0.225000X-0.250000X-0.225000X0.250000X-0.225000X0.250000X0.225000X0*%
%ADD11RoundRect,0.225000X0.250000X-0.225000X0.250000X0.225000X-0.250000X0.225000X-0.250000X-0.225000X0*%
%ADD12RoundRect,0.135000X0.135000X0.185000X-0.135000X0.185000X-0.135000X-0.185000X0.135000X-0.185000X0*%
%ADD13R,0.300000X1.450000*%
%ADD14R,0.600000X1.450000*%
%ADD15RoundRect,0.135000X-0.135000X-0.185000X0.135000X-0.185000X0.135000X0.185000X-0.135000X0.185000X0*%
%ADD16RoundRect,0.135000X0.185000X-0.135000X0.185000X0.135000X-0.185000X0.135000X-0.185000X-0.135000X0*%
%ADD17RoundRect,0.140000X-0.140000X-0.170000X0.140000X-0.170000X0.140000X0.170000X-0.140000X0.170000X0*%
%ADD18RoundRect,0.140000X0.170000X-0.140000X0.170000X0.140000X-0.170000X0.140000X-0.170000X-0.140000X0*%
%ADD19RoundRect,0.140000X-0.170000X0.140000X-0.170000X-0.140000X0.170000X-0.140000X0.170000X0.140000X0*%
%ADD20RoundRect,0.140000X0.140000X0.170000X-0.140000X0.170000X-0.140000X-0.170000X0.140000X-0.170000X0*%
%ADD21RoundRect,0.250000X-0.292217X0.292217X-0.292217X-0.292217X0.292217X-0.292217X0.292217X0.292217X0*%
%ADD22RoundRect,0.050000X-0.050000X0.387500X-0.050000X-0.387500X0.050000X-0.387500X0.050000X0.387500X0*%
%ADD23RoundRect,0.050000X-0.387500X0.050000X-0.387500X-0.050000X0.387500X-0.050000X0.387500X0.050000X0*%
%ADD24RoundRect,0.150000X-0.150000X-0.625000X0.150000X-0.625000X0.150000X0.625000X-0.150000X0.625000X0*%
%ADD25RoundRect,0.250000X-0.350000X-0.650000X0.350000X-0.650000X0.350000X0.650000X-0.350000X0.650000X0*%
%ADD26R,1.200000X1.400000*%
%ADD27R,0.650000X1.060000*%
%ADD28RoundRect,0.150000X0.650000X0.150000X-0.650000X0.150000X-0.650000X-0.150000X0.650000X-0.150000X0*%
%ADD29R,2.000000X3.800000*%
%ADD30R,2.000000X1.500000*%
%ADD31R,2.750000X1.000000*%
G04 APERTURE END LIST*
D10*
%TO.C,C2*%
X56642000Y-17287000D03*
X56642000Y-18837000D03*
%TD*%
D11*
%TO.C,C1*%
X56642000Y-15253000D03*
X56642000Y-13703000D03*
%TD*%
D12*
%TO.C,R2*%
X33272000Y-32131000D03*
X34292000Y-32131000D03*
%TD*%
D13*
%TO.C,J2*%
X53344000Y-8363000D03*
X55344000Y-8363000D03*
X54844000Y-8363000D03*
X54344000Y-8363000D03*
X53844000Y-8363000D03*
X52844000Y-8363000D03*
X52344000Y-8363000D03*
X51844000Y-8363000D03*
D14*
X56844000Y-8363000D03*
X56044000Y-8363000D03*
X51144000Y-8363000D03*
X50344000Y-8363000D03*
X50344000Y-8363000D03*
X51144000Y-8363000D03*
X56044000Y-8363000D03*
X56844000Y-8363000D03*
%TD*%
D15*
%TO.C,R7*%
X30482000Y-39243000D03*
X29462000Y-39243000D03*
%TD*%
%TO.C,R6*%
X29462000Y-38100000D03*
X30482000Y-38100000D03*
%TD*%
%TO.C,R5*%
X45544000Y-36957000D03*
X46564000Y-36957000D03*
%TD*%
D16*
%TO.C,R4*%
X59944000Y-6098000D03*
X59944000Y-5078000D03*
%TD*%
%TO.C,R3*%
X47244000Y-6098000D03*
X47244000Y-5078000D03*
%TD*%
D12*
%TO.C,R1*%
X21719000Y-33074000D03*
X20699000Y-33074000D03*
%TD*%
D17*
%TO.C,C16*%
X46603000Y-38100000D03*
X45643000Y-38100000D03*
%TD*%
D18*
%TO.C,C15*%
X40386000Y-31214000D03*
X40386000Y-30254000D03*
%TD*%
%TO.C,C14*%
X35306000Y-30254000D03*
X35306000Y-31214000D03*
%TD*%
D19*
%TO.C,C13*%
X35306000Y-42954000D03*
X35306000Y-43914000D03*
%TD*%
%TO.C,C12*%
X36576000Y-42954000D03*
X36576000Y-43914000D03*
%TD*%
D20*
%TO.C,C11*%
X32611000Y-37719000D03*
X31651000Y-37719000D03*
%TD*%
D19*
%TO.C,C10*%
X37846000Y-42954000D03*
X37846000Y-43914000D03*
%TD*%
D20*
%TO.C,C9*%
X32286000Y-40894000D03*
X33246000Y-40894000D03*
%TD*%
%TO.C,C8*%
X32738000Y-39624000D03*
X31778000Y-39624000D03*
%TD*%
D17*
%TO.C,C7*%
X45643000Y-39116000D03*
X46603000Y-39116000D03*
%TD*%
D20*
%TO.C,C6*%
X34516000Y-37084000D03*
X33556000Y-37084000D03*
%TD*%
D17*
%TO.C,C5*%
X48893000Y-39262000D03*
X47933000Y-39262000D03*
%TD*%
D20*
%TO.C,C4*%
X48060000Y-33782000D03*
X49020000Y-33782000D03*
%TD*%
D17*
%TO.C,C3*%
X20729000Y-31931000D03*
X21689000Y-31931000D03*
%TD*%
D21*
%TO.C,U4*%
X38478500Y-36446500D03*
X39753500Y-36446500D03*
X38478500Y-37721500D03*
X39753500Y-37721500D03*
D22*
X36516000Y-33646500D03*
X36916000Y-33646500D03*
X37316000Y-33646500D03*
X37716000Y-33646500D03*
X38116000Y-33646500D03*
X38516000Y-33646500D03*
X38916000Y-33646500D03*
X39316000Y-33646500D03*
X39716000Y-33646500D03*
X40116000Y-33646500D03*
X40516000Y-33646500D03*
X40916000Y-33646500D03*
X41316000Y-33646500D03*
X41716000Y-33646500D03*
D23*
X42553500Y-34484000D03*
X42553500Y-34884000D03*
X42553500Y-35284000D03*
X42553500Y-35684000D03*
X42553500Y-36084000D03*
X42553500Y-36484000D03*
X42553500Y-36884000D03*
X42553500Y-37284000D03*
X42553500Y-37684000D03*
X42553500Y-38084000D03*
X42553500Y-38484000D03*
X42553500Y-38884000D03*
X42553500Y-39284000D03*
X42553500Y-39684000D03*
D22*
X41716000Y-40521500D03*
X41316000Y-40521500D03*
X40916000Y-40521500D03*
X40516000Y-40521500D03*
X40116000Y-40521500D03*
X39716000Y-40521500D03*
X39316000Y-40521500D03*
X38916000Y-40521500D03*
X38516000Y-40521500D03*
X38116000Y-40521500D03*
X37716000Y-40521500D03*
X37316000Y-40521500D03*
X36916000Y-40521500D03*
X36516000Y-40521500D03*
D23*
X35678500Y-39684000D03*
X35678500Y-39284000D03*
X35678500Y-38884000D03*
X35678500Y-38484000D03*
X35678500Y-38084000D03*
X35678500Y-37684000D03*
X35678500Y-37284000D03*
X35678500Y-36884000D03*
X35678500Y-36484000D03*
X35678500Y-36084000D03*
X35678500Y-35684000D03*
X35678500Y-35284000D03*
X35678500Y-34884000D03*
X35678500Y-34484000D03*
%TD*%
D24*
%TO.C,J1*%
X18820000Y-5810000D03*
X19820000Y-5810000D03*
X20820000Y-5810000D03*
X21820000Y-5810000D03*
D25*
X17520000Y-1935000D03*
X23120000Y-1935000D03*
%TD*%
D26*
%TO.C,Y1*%
X49644000Y-35349000D03*
X49644000Y-37549000D03*
X47944000Y-37549000D03*
X47944000Y-35349000D03*
%TD*%
D27*
%TO.C,U3*%
X52898000Y-12362000D03*
X53848000Y-12362000D03*
X54798000Y-12362000D03*
X54798000Y-14562000D03*
X52898000Y-14562000D03*
X53848000Y-14562000D03*
%TD*%
D28*
%TO.C,U2*%
X31667000Y-31931000D03*
X31667000Y-33201000D03*
X31667000Y-34471000D03*
X31667000Y-35741000D03*
X24467000Y-35741000D03*
X24467000Y-34471000D03*
X24467000Y-33201000D03*
X24467000Y-31931000D03*
%TD*%
D29*
%TO.C,U1*%
X65888000Y-17272000D03*
D30*
X59588000Y-17272000D03*
X59588000Y-14972000D03*
X59588000Y-19572000D03*
%TD*%
D31*
%TO.C,SW4*%
X49870000Y-47720000D03*
X44110000Y-47720000D03*
X44110000Y-43720000D03*
X49870000Y-43720000D03*
%TD*%
M02*
