%FSLAX45Y45*%
G04 Gerber Fmt 4.5, Leading zero omitted, Abs format (unit mm)*
G04 Created by KiCad (PCBNEW (6.0.0)) date 2021-12-27 13:21:02*
%MOMM*%
%LPD*%
G01*
G04 APERTURE LIST*
%TA.AperFunction,Profile*%
%ADD10C,0.150000*%
%TD*%
%ADD11C,0.200000*%
%ADD12C,0.030480*%
%ADD13C,0.035000*%
%ADD14C,0.040000*%
%ADD15C,0.060000*%
%ADD16C,0.080000*%
%ADD17C,0.088900*%
%ADD18C,0.089916*%
%ADD19C,0.100000*%
%ADD20C,0.120000*%
%ADD21C,0.139700*%
%ADD22C,0.150000*%
G04 APERTURE END LIST*
D10*
X6700000Y-5050000D02*
G75*
G03*
X6900000Y-4850000I0J200000D01*
G01*
X0Y-4850000D02*
G75*
G03*
X200000Y-5050000I200000J0D01*
G01*
X200000Y0D02*
G75*
G03*
X0Y-200000I0J-200000D01*
G01*
X6900000Y-200000D02*
G75*
G03*
X6700000Y0I-200000J0D01*
G01*
X0Y-4850000D02*
X0Y-200000D01*
X6700000Y-5050000D02*
X200000Y-5050000D01*
X6900000Y-200000D02*
X6900000Y-4850000D01*
X200000Y0D02*
X6700000Y0D01*
D11*
D12*
X1508760Y-619760D02*
X1539240Y-650240D01*
X1539240Y-619760D02*
X1508760Y-650240D01*
X1940560Y-1432560D02*
X1971040Y-1463040D01*
X1971040Y-1432560D02*
X1940560Y-1463040D01*
X2054660Y-3553260D02*
X2085140Y-3583740D01*
X2085140Y-3553260D02*
X2054660Y-3583740D01*
X2143760Y-3032760D02*
X2174240Y-3063240D01*
X2174240Y-3032760D02*
X2143760Y-3063240D01*
X2219960Y-4150360D02*
X2250440Y-4180840D01*
X2250440Y-4150360D02*
X2219960Y-4180840D01*
X2270760Y-746760D02*
X2301240Y-777240D01*
X2301240Y-746760D02*
X2270760Y-777240D01*
X2425760Y-2997760D02*
X2456240Y-3028240D01*
X2456240Y-2997760D02*
X2425760Y-3028240D01*
X2778760Y-111760D02*
X2809240Y-142240D01*
X2809240Y-111760D02*
X2778760Y-142240D01*
X2778760Y-3413760D02*
X2809240Y-3444240D01*
X2809240Y-3413760D02*
X2778760Y-3444240D01*
X3020060Y-3566160D02*
X3050540Y-3596640D01*
X3050540Y-3566160D02*
X3020060Y-3596640D01*
X3070860Y-3725064D02*
X3101340Y-3755544D01*
X3101340Y-3725064D02*
X3070860Y-3755544D01*
X3223260Y-3070860D02*
X3253740Y-3101340D01*
X3253740Y-3070860D02*
X3223260Y-3101340D01*
X3367047Y-3925847D02*
X3397527Y-3956327D01*
X3397527Y-3925847D02*
X3367047Y-3956327D01*
X3388360Y-3007360D02*
X3418840Y-3037840D01*
X3418840Y-3007360D02*
X3388360Y-3037840D01*
X3413760Y-2143760D02*
X3444240Y-2174240D01*
X3444240Y-2143760D02*
X3413760Y-2174240D01*
X3540760Y-2651760D02*
X3571240Y-2682240D01*
X3571240Y-2651760D02*
X3540760Y-2682240D01*
X3540760Y-3286760D02*
X3571240Y-3317240D01*
X3571240Y-3286760D02*
X3540760Y-3317240D01*
X3655060Y-3680460D02*
X3685540Y-3710940D01*
X3685540Y-3680460D02*
X3655060Y-3710940D01*
X3667760Y-3032760D02*
X3698240Y-3063240D01*
X3698240Y-3032760D02*
X3667760Y-3063240D01*
X3667763Y-4175760D02*
X3698243Y-4206240D01*
X3698243Y-4175760D02*
X3667763Y-4206240D01*
X3794758Y-2804001D02*
X3825238Y-2834481D01*
X3825238Y-2804001D02*
X3794758Y-2834481D01*
X3794760Y-2270760D02*
X3825240Y-2301240D01*
X3825240Y-2270760D02*
X3794760Y-2301240D01*
X3794760Y-2651760D02*
X3825240Y-2682240D01*
X3825240Y-2651760D02*
X3794760Y-2682240D01*
X3794760Y-3032760D02*
X3825240Y-3063240D01*
X3825240Y-3032760D02*
X3794760Y-3063240D01*
X3794760Y-4175760D02*
X3825240Y-4206240D01*
X3825240Y-4175760D02*
X3794760Y-4206240D01*
X3845560Y-3108960D02*
X3876040Y-3139440D01*
X3876040Y-3108960D02*
X3845560Y-3139440D01*
X3896360Y-3185160D02*
X3926840Y-3215640D01*
X3926840Y-3185160D02*
X3896360Y-3215640D01*
X3921760Y-2778760D02*
X3952240Y-2809240D01*
X3952240Y-2778760D02*
X3921760Y-2809240D01*
X4036360Y-4302763D02*
X4066840Y-4333243D01*
X4066840Y-4302763D02*
X4036360Y-4333243D01*
X4099560Y-3769360D02*
X4130040Y-3799840D01*
X4130040Y-3769360D02*
X4099560Y-3799840D01*
X4135760Y-4307760D02*
X4166240Y-4338240D01*
X4166240Y-4307760D02*
X4135760Y-4338240D01*
X4175760Y-3007360D02*
X4206240Y-3037840D01*
X4206240Y-3007360D02*
X4175760Y-3037840D01*
X4302760Y-111760D02*
X4333240Y-142240D01*
X4333240Y-111760D02*
X4302760Y-142240D01*
X4302760Y-3007360D02*
X4333240Y-3037840D01*
X4333240Y-3007360D02*
X4302760Y-3037840D01*
X4302760Y-4175760D02*
X4333240Y-4206240D01*
X4333240Y-4175760D02*
X4302760Y-4206240D01*
X4365760Y-3867760D02*
X4396240Y-3898240D01*
X4396240Y-3867760D02*
X4365760Y-3898240D01*
X4455760Y-3897760D02*
X4486240Y-3928240D01*
X4486240Y-3897760D02*
X4455760Y-3928240D01*
X4458960Y-3806260D02*
X4489440Y-3836740D01*
X4489440Y-3806260D02*
X4458960Y-3836740D01*
X4648260Y-3540760D02*
X4678740Y-3571240D01*
X4678740Y-3540760D02*
X4648260Y-3571240D01*
X4683760Y-4429760D02*
X4714240Y-4460240D01*
X4714240Y-4429760D02*
X4683760Y-4460240D01*
X4699060Y-3362960D02*
X4729540Y-3393440D01*
X4729540Y-3362960D02*
X4699060Y-3393440D01*
X4734560Y-949960D02*
X4765040Y-980440D01*
X4765040Y-949960D02*
X4734560Y-980440D01*
X4965760Y-3870960D02*
X4996240Y-3901440D01*
X4996240Y-3870960D02*
X4965760Y-3901440D01*
X5369560Y-1127760D02*
X5400040Y-1158240D01*
X5400040Y-1127760D02*
X5369560Y-1158240D01*
X5902960Y-975360D02*
X5933440Y-1005840D01*
X5933440Y-975360D02*
X5902960Y-1005840D01*
D13*
X3801600Y-3580900D02*
G75*
G03*
X3801600Y-3580900I-17500J0D01*
G01*
X3801600Y-3708400D02*
G75*
G03*
X3801600Y-3708400I-17500J0D01*
G01*
X3801600Y-3835900D02*
G75*
G03*
X3801600Y-3835900I-17500J0D01*
G01*
X3929100Y-3580900D02*
G75*
G03*
X3929100Y-3580900I-17500J0D01*
G01*
X3929100Y-3708400D02*
G75*
G03*
X3929100Y-3708400I-17500J0D01*
G01*
X3929100Y-3835900D02*
G75*
G03*
X3929100Y-3835900I-17500J0D01*
G01*
X4056600Y-3580900D02*
G75*
G03*
X4056600Y-3580900I-17500J0D01*
G01*
X4056600Y-3708400D02*
G75*
G03*
X4056600Y-3708400I-17500J0D01*
G01*
X4056600Y-3835900D02*
G75*
G03*
X4056600Y-3835900I-17500J0D01*
G01*
D14*
X3048000Y-4044000D02*
X3048000Y-4084000D01*
X3028000Y-4064000D02*
X3068000Y-4064000D01*
X3175000Y-4171000D02*
X3175000Y-4211000D01*
X3155000Y-4191000D02*
X3195000Y-4191000D01*
X3556000Y-4552000D02*
X3556000Y-4592000D01*
X3536000Y-4572000D02*
X3576000Y-4572000D01*
X3683000Y-4552000D02*
X3683000Y-4592000D01*
X3663000Y-4572000D02*
X3703000Y-4572000D01*
X3810000Y-4552000D02*
X3810000Y-4592000D01*
X3790000Y-4572000D02*
X3830000Y-4572000D01*
X4064000Y-4806000D02*
X4064000Y-4846000D01*
X4044000Y-4826000D02*
X4084000Y-4826000D01*
X5207000Y-996000D02*
X5207000Y-1036000D01*
X5187000Y-1016000D02*
X5227000Y-1016000D01*
X5334000Y-4806000D02*
X5334000Y-4846000D01*
X5314000Y-4826000D02*
X5354000Y-4826000D01*
X5588000Y-996000D02*
X5588000Y-1036000D01*
X5568000Y-1016000D02*
X5608000Y-1016000D01*
X5715000Y-1250000D02*
X5715000Y-1290000D01*
X5695000Y-1270000D02*
X5735000Y-1270000D01*
D15*
X4948613Y-348013D02*
X4948613Y-305587D01*
X4906187Y-305587D01*
X4906187Y-348013D01*
X4948613Y-348013D01*
D11*
X4907400Y-296800D02*
X4907400Y-356800D01*
X4947400Y-296800D02*
X4947400Y-356800D01*
X4907400Y-356800D02*
G75*
G03*
X4947400Y-356800I20000J0D01*
G01*
X4947400Y-296800D02*
G75*
G03*
X4907400Y-296800I-20000J0D01*
G01*
D15*
X4948613Y-766013D02*
X4948613Y-723587D01*
X4906187Y-723587D01*
X4906187Y-766013D01*
X4948613Y-766013D01*
D11*
X4907400Y-689800D02*
X4907400Y-799800D01*
X4947400Y-689800D02*
X4947400Y-799800D01*
X4907400Y-799800D02*
G75*
G03*
X4947400Y-799800I20000J0D01*
G01*
X4947400Y-689800D02*
G75*
G03*
X4907400Y-689800I-20000J0D01*
G01*
D15*
X5812613Y-348013D02*
X5812613Y-305587D01*
X5770187Y-305587D01*
X5770187Y-348013D01*
X5812613Y-348013D01*
D11*
X5771400Y-296800D02*
X5771400Y-356800D01*
X5811400Y-296800D02*
X5811400Y-356800D01*
X5771400Y-356800D02*
G75*
G03*
X5811400Y-356800I20000J0D01*
G01*
X5811400Y-296800D02*
G75*
G03*
X5771400Y-296800I-20000J0D01*
G01*
D15*
X5812613Y-766013D02*
X5812613Y-723587D01*
X5770187Y-723587D01*
X5770187Y-766013D01*
X5812613Y-766013D01*
D11*
X5771400Y-689800D02*
X5771400Y-799800D01*
X5811400Y-689800D02*
X5811400Y-799800D01*
X5771400Y-799800D02*
G75*
G03*
X5811400Y-799800I20000J0D01*
G01*
X5811400Y-689800D02*
G75*
G03*
X5771400Y-689800I-20000J0D01*
G01*
D16*
X2006600Y-4005600D02*
X2046600Y-3965600D01*
X2006600Y-3925600D01*
X1966600Y-3965600D01*
X2006600Y-4005600D01*
X2006600Y-4205600D02*
X2046600Y-4165600D01*
X2006600Y-4125600D01*
X1966600Y-4165600D01*
X2006600Y-4205600D01*
D17*
X2389550Y-1123950D02*
X2478450Y-1212850D01*
X2478450Y-1123950D02*
X2389550Y-1212850D01*
X2478450Y-1168400D02*
G75*
G03*
X2478450Y-1168400I-44450J0D01*
G01*
X2389550Y-1377950D02*
X2478450Y-1466850D01*
X2478450Y-1377950D02*
X2389550Y-1466850D01*
X2478450Y-1422400D02*
G75*
G03*
X2478450Y-1422400I-44450J0D01*
G01*
X2389550Y-1631950D02*
X2478450Y-1720850D01*
X2478450Y-1631950D02*
X2389550Y-1720850D01*
X2478450Y-1676400D02*
G75*
G03*
X2478450Y-1676400I-44450J0D01*
G01*
X3151550Y-2393950D02*
X3240450Y-2482850D01*
X3240450Y-2393950D02*
X3151550Y-2482850D01*
X3240450Y-2438400D02*
G75*
G03*
X3240450Y-2438400I-44450J0D01*
G01*
X3405550Y-2393950D02*
X3494450Y-2482850D01*
X3494450Y-2393950D02*
X3405550Y-2482850D01*
X3494450Y-2438400D02*
G75*
G03*
X3494450Y-2438400I-44450J0D01*
G01*
X3659550Y-2393950D02*
X3748450Y-2482850D01*
X3748450Y-2393950D02*
X3659550Y-2482850D01*
X3748450Y-2438400D02*
G75*
G03*
X3748450Y-2438400I-44450J0D01*
G01*
D18*
X3087542Y-107442D02*
X3177458Y-197358D01*
X3177458Y-107442D02*
X3087542Y-197358D01*
X3132500Y-107442D02*
X3132500Y-197358D01*
X3087542Y-152400D02*
X3177458Y-152400D01*
X3087542Y-615442D02*
X3177458Y-705358D01*
X3177458Y-615442D02*
X3087542Y-705358D01*
X3132500Y-615442D02*
X3132500Y-705358D01*
X3087542Y-660400D02*
X3177458Y-660400D01*
X3722542Y-107442D02*
X3812458Y-197358D01*
X3812458Y-107442D02*
X3722542Y-197358D01*
X3767500Y-107442D02*
X3767500Y-197358D01*
X3722542Y-152400D02*
X3812458Y-152400D01*
X3722542Y-615442D02*
X3812458Y-705358D01*
X3812458Y-615442D02*
X3722542Y-705358D01*
X3767500Y-615442D02*
X3767500Y-705358D01*
X3722542Y-660400D02*
X3812458Y-660400D01*
D19*
X101000Y-1126400D02*
X201000Y-1226400D01*
X201000Y-1126400D02*
X101000Y-1226400D01*
X186356Y-1211756D02*
X186356Y-1141044D01*
X115644Y-1141044D01*
X115644Y-1211756D01*
X186356Y-1211756D01*
X101000Y-1626400D02*
X201000Y-1726400D01*
X201000Y-1626400D02*
X101000Y-1726400D01*
X186356Y-1711756D02*
X186356Y-1641044D01*
X115644Y-1641044D01*
X115644Y-1711756D01*
X186356Y-1711756D01*
X1551000Y-1126400D02*
X1651000Y-1226400D01*
X1651000Y-1126400D02*
X1551000Y-1226400D01*
X1636356Y-1211756D02*
X1636356Y-1141044D01*
X1565644Y-1141044D01*
X1565644Y-1211756D01*
X1636356Y-1211756D01*
X1551000Y-1376400D02*
X1651000Y-1476400D01*
X1651000Y-1376400D02*
X1551000Y-1476400D01*
X1636356Y-1461756D02*
X1636356Y-1391044D01*
X1565644Y-1391044D01*
X1565644Y-1461756D01*
X1636356Y-1461756D01*
X1551000Y-1626400D02*
X1651000Y-1726400D01*
X1651000Y-1626400D02*
X1551000Y-1726400D01*
X1636356Y-1711756D02*
X1636356Y-1641044D01*
X1565644Y-1641044D01*
X1565644Y-1711756D01*
X1636356Y-1711756D01*
X3315500Y-4783000D02*
X3415500Y-4883000D01*
X3415500Y-4783000D02*
X3315500Y-4883000D01*
X3400856Y-4868356D02*
X3400856Y-4797644D01*
X3330144Y-4797644D01*
X3330144Y-4868356D01*
X3400856Y-4868356D01*
X3569500Y-4783000D02*
X3669500Y-4883000D01*
X3669500Y-4783000D02*
X3569500Y-4883000D01*
X3654856Y-4868356D02*
X3654856Y-4797644D01*
X3584144Y-4797644D01*
X3584144Y-4868356D01*
X3654856Y-4868356D01*
X3823500Y-4783000D02*
X3923500Y-4883000D01*
X3923500Y-4783000D02*
X3823500Y-4883000D01*
X3908856Y-4868356D02*
X3908856Y-4797644D01*
X3838144Y-4797644D01*
X3838144Y-4868356D01*
X3908856Y-4868356D01*
D20*
X390000Y-3620000D02*
X510000Y-3740000D01*
X510000Y-3620000D02*
X390000Y-3740000D01*
X450000Y-3740000D02*
X510000Y-3680000D01*
X450000Y-3620000D01*
X390000Y-3680000D01*
X450000Y-3740000D01*
X890000Y-3830000D02*
X1010000Y-3950000D01*
X1010000Y-3830000D02*
X890000Y-3950000D01*
X950000Y-3950000D02*
X1010000Y-3890000D01*
X950000Y-3830000D01*
X890000Y-3890000D01*
X950000Y-3950000D01*
X5390000Y-3620000D02*
X5510000Y-3740000D01*
X5510000Y-3620000D02*
X5390000Y-3740000D01*
X5450000Y-3740000D02*
X5510000Y-3680000D01*
X5450000Y-3620000D01*
X5390000Y-3680000D01*
X5450000Y-3740000D01*
X5890000Y-3830000D02*
X6010000Y-3950000D01*
X6010000Y-3830000D02*
X5890000Y-3950000D01*
X5950000Y-3950000D02*
X6010000Y-3890000D01*
X5950000Y-3830000D01*
X5890000Y-3890000D01*
X5950000Y-3950000D01*
D21*
X2688000Y-685800D02*
X2688000Y-825500D01*
X2618150Y-755650D02*
X2757850Y-755650D01*
X2757850Y-755650D02*
G75*
G03*
X2757850Y-755650I-69850J0D01*
G01*
X2688000Y-2019300D02*
X2688000Y-2159000D01*
X2618150Y-2089150D02*
X2757850Y-2089150D01*
X2757850Y-2089150D02*
G75*
G03*
X2757850Y-2089150I-69850J0D01*
G01*
X4212000Y-685800D02*
X4212000Y-825500D01*
X4142150Y-755650D02*
X4281850Y-755650D01*
X4281850Y-755650D02*
G75*
G03*
X4281850Y-755650I-69850J0D01*
G01*
X4212000Y-2019300D02*
X4212000Y-2159000D01*
X4142150Y-2089150D02*
X4281850Y-2089150D01*
X4281850Y-2089150D02*
G75*
G03*
X4281850Y-2089150I-69850J0D01*
G01*
D22*
X904033Y-919433D02*
X904033Y-813366D01*
X797966Y-813366D01*
X797966Y-919433D01*
X904033Y-919433D01*
X926000Y-866400D02*
G75*
G03*
X926000Y-866400I-75000J0D01*
G01*
D11*
X916000Y-801400D02*
X786000Y-801400D01*
X916000Y-931400D02*
X786000Y-931400D01*
X786000Y-801400D02*
G75*
G03*
X786000Y-931400I0J-65000D01*
G01*
X916000Y-931400D02*
G75*
G03*
X916000Y-801400I0J65000D01*
G01*
D22*
X904033Y-2039433D02*
X904033Y-1933366D01*
X797966Y-1933366D01*
X797966Y-2039433D01*
X904033Y-2039433D01*
X926000Y-1986400D02*
G75*
G03*
X926000Y-1986400I-75000J0D01*
G01*
D11*
X916000Y-1921400D02*
X786000Y-1921400D01*
X916000Y-2051400D02*
X786000Y-2051400D01*
X786000Y-1921400D02*
G75*
G03*
X786000Y-2051400I0J-65000D01*
G01*
X916000Y-2051400D02*
G75*
G03*
X916000Y-1921400I0J65000D01*
G01*
X250119Y-5367976D02*
X250119Y-5167976D01*
X297738Y-5167976D01*
X326310Y-5177500D01*
X345357Y-5196548D01*
X354881Y-5215595D01*
X364405Y-5253690D01*
X364405Y-5282262D01*
X354881Y-5320357D01*
X345357Y-5339405D01*
X326310Y-5358452D01*
X297738Y-5367976D01*
X250119Y-5367976D01*
X450119Y-5367976D02*
X450119Y-5234643D01*
X450119Y-5272738D02*
X459643Y-5253690D01*
X469167Y-5244167D01*
X488214Y-5234643D01*
X507262Y-5234643D01*
X573929Y-5367976D02*
X573929Y-5234643D01*
X573929Y-5167976D02*
X564405Y-5177500D01*
X573929Y-5187024D01*
X583452Y-5177500D01*
X573929Y-5167976D01*
X573929Y-5187024D01*
X697738Y-5367976D02*
X678690Y-5358452D01*
X669167Y-5339405D01*
X669167Y-5167976D01*
X802500Y-5367976D02*
X783452Y-5358452D01*
X773928Y-5339405D01*
X773928Y-5167976D01*
X1031071Y-5367976D02*
X1031071Y-5167976D01*
X1097738Y-5310833D01*
X1164405Y-5167976D01*
X1164405Y-5367976D01*
X1345357Y-5367976D02*
X1345357Y-5263214D01*
X1335833Y-5244167D01*
X1316786Y-5234643D01*
X1278690Y-5234643D01*
X1259643Y-5244167D01*
X1345357Y-5358452D02*
X1326310Y-5367976D01*
X1278690Y-5367976D01*
X1259643Y-5358452D01*
X1250119Y-5339405D01*
X1250119Y-5320357D01*
X1259643Y-5301310D01*
X1278690Y-5291786D01*
X1326310Y-5291786D01*
X1345357Y-5282262D01*
X1440595Y-5234643D02*
X1440595Y-5434643D01*
X1440595Y-5244167D02*
X1459643Y-5234643D01*
X1497738Y-5234643D01*
X1516786Y-5244167D01*
X1526309Y-5253690D01*
X1535833Y-5272738D01*
X1535833Y-5329881D01*
X1526309Y-5348929D01*
X1516786Y-5358452D01*
X1497738Y-5367976D01*
X1459643Y-5367976D01*
X1440595Y-5358452D01*
X1621548Y-5348929D02*
X1631071Y-5358452D01*
X1621548Y-5367976D01*
X1612024Y-5358452D01*
X1621548Y-5348929D01*
X1621548Y-5367976D01*
X1621548Y-5244167D02*
X1631071Y-5253690D01*
X1621548Y-5263214D01*
X1612024Y-5253690D01*
X1621548Y-5244167D01*
X1621548Y-5263214D01*
D12*
X-37980Y-5682260D02*
X-7500Y-5712740D01*
X-7500Y-5682260D02*
X-37980Y-5712740D01*
D11*
X288214Y-5587976D02*
X307262Y-5587976D01*
X326310Y-5597500D01*
X335833Y-5607024D01*
X345357Y-5626071D01*
X354881Y-5664167D01*
X354881Y-5711786D01*
X345357Y-5749881D01*
X335833Y-5768928D01*
X326310Y-5778452D01*
X307262Y-5787976D01*
X288214Y-5787976D01*
X269167Y-5778452D01*
X259643Y-5768928D01*
X250119Y-5749881D01*
X240595Y-5711786D01*
X240595Y-5664167D01*
X250119Y-5626071D01*
X259643Y-5607024D01*
X269167Y-5597500D01*
X288214Y-5587976D01*
X440595Y-5768928D02*
X450119Y-5778452D01*
X440595Y-5787976D01*
X431071Y-5778452D01*
X440595Y-5768928D01*
X440595Y-5787976D01*
X516786Y-5587976D02*
X640595Y-5587976D01*
X573929Y-5664167D01*
X602500Y-5664167D01*
X621548Y-5673690D01*
X631071Y-5683214D01*
X640595Y-5702262D01*
X640595Y-5749881D01*
X631071Y-5768928D01*
X621548Y-5778452D01*
X602500Y-5787976D01*
X545357Y-5787976D01*
X526310Y-5778452D01*
X516786Y-5768928D01*
X764405Y-5587976D02*
X783452Y-5587976D01*
X802500Y-5597500D01*
X812024Y-5607024D01*
X821548Y-5626071D01*
X831071Y-5664167D01*
X831071Y-5711786D01*
X821548Y-5749881D01*
X812024Y-5768928D01*
X802500Y-5778452D01*
X783452Y-5787976D01*
X764405Y-5787976D01*
X745357Y-5778452D01*
X735833Y-5768928D01*
X726309Y-5749881D01*
X716786Y-5711786D01*
X716786Y-5664167D01*
X726309Y-5626071D01*
X735833Y-5607024D01*
X745357Y-5597500D01*
X764405Y-5587976D01*
X1012024Y-5587976D02*
X916786Y-5587976D01*
X907262Y-5683214D01*
X916786Y-5673690D01*
X935833Y-5664167D01*
X983452Y-5664167D01*
X1002500Y-5673690D01*
X1012024Y-5683214D01*
X1021548Y-5702262D01*
X1021548Y-5749881D01*
X1012024Y-5768928D01*
X1002500Y-5778452D01*
X983452Y-5787976D01*
X935833Y-5787976D01*
X916786Y-5778452D01*
X907262Y-5768928D01*
X1107262Y-5787976D02*
X1107262Y-5654643D01*
X1107262Y-5673690D02*
X1116786Y-5664167D01*
X1135833Y-5654643D01*
X1164405Y-5654643D01*
X1183452Y-5664167D01*
X1192976Y-5683214D01*
X1192976Y-5787976D01*
X1192976Y-5683214D02*
X1202500Y-5664167D01*
X1221548Y-5654643D01*
X1250119Y-5654643D01*
X1269167Y-5664167D01*
X1278690Y-5683214D01*
X1278690Y-5787976D01*
X1373929Y-5787976D02*
X1373929Y-5654643D01*
X1373929Y-5673690D02*
X1383452Y-5664167D01*
X1402500Y-5654643D01*
X1431071Y-5654643D01*
X1450119Y-5664167D01*
X1459643Y-5683214D01*
X1459643Y-5787976D01*
X1459643Y-5683214D02*
X1469167Y-5664167D01*
X1488214Y-5654643D01*
X1516786Y-5654643D01*
X1535833Y-5664167D01*
X1545357Y-5683214D01*
X1545357Y-5787976D01*
X1935833Y-5578452D02*
X1764405Y-5835595D01*
X2192976Y-5587976D02*
X2212024Y-5587976D01*
X2231071Y-5597500D01*
X2240595Y-5607024D01*
X2250119Y-5626071D01*
X2259643Y-5664167D01*
X2259643Y-5711786D01*
X2250119Y-5749881D01*
X2240595Y-5768928D01*
X2231071Y-5778452D01*
X2212024Y-5787976D01*
X2192976Y-5787976D01*
X2173929Y-5778452D01*
X2164405Y-5768928D01*
X2154881Y-5749881D01*
X2145357Y-5711786D01*
X2145357Y-5664167D01*
X2154881Y-5626071D01*
X2164405Y-5607024D01*
X2173929Y-5597500D01*
X2192976Y-5587976D01*
X2345357Y-5768928D02*
X2354881Y-5778452D01*
X2345357Y-5787976D01*
X2335833Y-5778452D01*
X2345357Y-5768928D01*
X2345357Y-5787976D01*
X2478690Y-5587976D02*
X2497738Y-5587976D01*
X2516786Y-5597500D01*
X2526310Y-5607024D01*
X2535833Y-5626071D01*
X2545357Y-5664167D01*
X2545357Y-5711786D01*
X2535833Y-5749881D01*
X2526310Y-5768928D01*
X2516786Y-5778452D01*
X2497738Y-5787976D01*
X2478690Y-5787976D01*
X2459643Y-5778452D01*
X2450119Y-5768928D01*
X2440595Y-5749881D01*
X2431071Y-5711786D01*
X2431071Y-5664167D01*
X2440595Y-5626071D01*
X2450119Y-5607024D01*
X2459643Y-5597500D01*
X2478690Y-5587976D01*
X2735833Y-5787976D02*
X2621548Y-5787976D01*
X2678690Y-5787976D02*
X2678690Y-5587976D01*
X2659643Y-5616548D01*
X2640595Y-5635595D01*
X2621548Y-5645119D01*
X2812024Y-5607024D02*
X2821548Y-5597500D01*
X2840595Y-5587976D01*
X2888214Y-5587976D01*
X2907262Y-5597500D01*
X2916786Y-5607024D01*
X2926309Y-5626071D01*
X2926309Y-5645119D01*
X2916786Y-5673690D01*
X2802500Y-5787976D01*
X2926309Y-5787976D01*
X3050119Y-5587976D02*
X3069167Y-5587976D01*
X3088214Y-5597500D01*
X3097738Y-5607024D01*
X3107262Y-5626071D01*
X3116786Y-5664167D01*
X3116786Y-5711786D01*
X3107262Y-5749881D01*
X3097738Y-5768928D01*
X3088214Y-5778452D01*
X3069167Y-5787976D01*
X3050119Y-5787976D01*
X3031071Y-5778452D01*
X3021548Y-5768928D01*
X3012024Y-5749881D01*
X3002500Y-5711786D01*
X3002500Y-5664167D01*
X3012024Y-5626071D01*
X3021548Y-5607024D01*
X3031071Y-5597500D01*
X3050119Y-5587976D01*
X3192976Y-5587976D02*
X3192976Y-5626071D01*
X3269167Y-5587976D02*
X3269167Y-5626071D01*
X3564405Y-5864167D02*
X3554881Y-5854643D01*
X3535833Y-5826071D01*
X3526309Y-5807024D01*
X3516786Y-5778452D01*
X3507262Y-5730833D01*
X3507262Y-5692738D01*
X3516786Y-5645119D01*
X3526309Y-5616548D01*
X3535833Y-5597500D01*
X3554881Y-5568929D01*
X3564405Y-5559405D01*
X3726309Y-5654643D02*
X3726309Y-5787976D01*
X3678690Y-5578452D02*
X3631071Y-5721309D01*
X3754881Y-5721309D01*
X3926309Y-5587976D02*
X3831071Y-5587976D01*
X3821548Y-5683214D01*
X3831071Y-5673690D01*
X3850119Y-5664167D01*
X3897738Y-5664167D01*
X3916786Y-5673690D01*
X3926309Y-5683214D01*
X3935833Y-5702262D01*
X3935833Y-5749881D01*
X3926309Y-5768928D01*
X3916786Y-5778452D01*
X3897738Y-5787976D01*
X3850119Y-5787976D01*
X3831071Y-5778452D01*
X3821548Y-5768928D01*
X4173928Y-5787976D02*
X4173928Y-5587976D01*
X4259643Y-5787976D02*
X4259643Y-5683214D01*
X4250119Y-5664167D01*
X4231071Y-5654643D01*
X4202500Y-5654643D01*
X4183452Y-5664167D01*
X4173928Y-5673690D01*
X4383452Y-5787976D02*
X4364405Y-5778452D01*
X4354881Y-5768928D01*
X4345357Y-5749881D01*
X4345357Y-5692738D01*
X4354881Y-5673690D01*
X4364405Y-5664167D01*
X4383452Y-5654643D01*
X4412024Y-5654643D01*
X4431071Y-5664167D01*
X4440595Y-5673690D01*
X4450119Y-5692738D01*
X4450119Y-5749881D01*
X4440595Y-5768928D01*
X4431071Y-5778452D01*
X4412024Y-5787976D01*
X4383452Y-5787976D01*
X4564405Y-5787976D02*
X4545357Y-5778452D01*
X4535833Y-5759405D01*
X4535833Y-5587976D01*
X4716786Y-5778452D02*
X4697738Y-5787976D01*
X4659643Y-5787976D01*
X4640595Y-5778452D01*
X4631071Y-5759405D01*
X4631071Y-5683214D01*
X4640595Y-5664167D01*
X4659643Y-5654643D01*
X4697738Y-5654643D01*
X4716786Y-5664167D01*
X4726310Y-5683214D01*
X4726310Y-5702262D01*
X4631071Y-5721309D01*
X4802500Y-5778452D02*
X4821548Y-5787976D01*
X4859643Y-5787976D01*
X4878690Y-5778452D01*
X4888214Y-5759405D01*
X4888214Y-5749881D01*
X4878690Y-5730833D01*
X4859643Y-5721309D01*
X4831071Y-5721309D01*
X4812024Y-5711786D01*
X4802500Y-5692738D01*
X4802500Y-5683214D01*
X4812024Y-5664167D01*
X4831071Y-5654643D01*
X4859643Y-5654643D01*
X4878690Y-5664167D01*
X4954881Y-5864167D02*
X4964405Y-5854643D01*
X4983452Y-5826071D01*
X4992976Y-5807024D01*
X5002500Y-5778452D01*
X5012024Y-5730833D01*
X5012024Y-5692738D01*
X5002500Y-5645119D01*
X4992976Y-5616548D01*
X4983452Y-5597500D01*
X4964405Y-5568929D01*
X4954881Y-5559405D01*
D13*
X-7500Y-5961500D02*
G75*
G03*
X-7500Y-5961500I-17500J0D01*
G01*
D11*
X288214Y-5851976D02*
X307262Y-5851976D01*
X326310Y-5861500D01*
X335833Y-5871024D01*
X345357Y-5890071D01*
X354881Y-5928167D01*
X354881Y-5975786D01*
X345357Y-6013881D01*
X335833Y-6032928D01*
X326310Y-6042452D01*
X307262Y-6051976D01*
X288214Y-6051976D01*
X269167Y-6042452D01*
X259643Y-6032928D01*
X250119Y-6013881D01*
X240595Y-5975786D01*
X240595Y-5928167D01*
X250119Y-5890071D01*
X259643Y-5871024D01*
X269167Y-5861500D01*
X288214Y-5851976D01*
X440595Y-6032928D02*
X450119Y-6042452D01*
X440595Y-6051976D01*
X431071Y-6042452D01*
X440595Y-6032928D01*
X440595Y-6051976D01*
X516786Y-5851976D02*
X640595Y-5851976D01*
X573929Y-5928167D01*
X602500Y-5928167D01*
X621548Y-5937690D01*
X631071Y-5947214D01*
X640595Y-5966262D01*
X640595Y-6013881D01*
X631071Y-6032928D01*
X621548Y-6042452D01*
X602500Y-6051976D01*
X545357Y-6051976D01*
X526310Y-6042452D01*
X516786Y-6032928D01*
X821548Y-5851976D02*
X726309Y-5851976D01*
X716786Y-5947214D01*
X726309Y-5937690D01*
X745357Y-5928167D01*
X792976Y-5928167D01*
X812024Y-5937690D01*
X821548Y-5947214D01*
X831071Y-5966262D01*
X831071Y-6013881D01*
X821548Y-6032928D01*
X812024Y-6042452D01*
X792976Y-6051976D01*
X745357Y-6051976D01*
X726309Y-6042452D01*
X716786Y-6032928D01*
X954881Y-5851976D02*
X973928Y-5851976D01*
X992976Y-5861500D01*
X1002500Y-5871024D01*
X1012024Y-5890071D01*
X1021548Y-5928167D01*
X1021548Y-5975786D01*
X1012024Y-6013881D01*
X1002500Y-6032928D01*
X992976Y-6042452D01*
X973928Y-6051976D01*
X954881Y-6051976D01*
X935833Y-6042452D01*
X926309Y-6032928D01*
X916786Y-6013881D01*
X907262Y-5975786D01*
X907262Y-5928167D01*
X916786Y-5890071D01*
X926309Y-5871024D01*
X935833Y-5861500D01*
X954881Y-5851976D01*
X1107262Y-6051976D02*
X1107262Y-5918643D01*
X1107262Y-5937690D02*
X1116786Y-5928167D01*
X1135833Y-5918643D01*
X1164405Y-5918643D01*
X1183452Y-5928167D01*
X1192976Y-5947214D01*
X1192976Y-6051976D01*
X1192976Y-5947214D02*
X1202500Y-5928167D01*
X1221548Y-5918643D01*
X1250119Y-5918643D01*
X1269167Y-5928167D01*
X1278690Y-5947214D01*
X1278690Y-6051976D01*
X1373929Y-6051976D02*
X1373929Y-5918643D01*
X1373929Y-5937690D02*
X1383452Y-5928167D01*
X1402500Y-5918643D01*
X1431071Y-5918643D01*
X1450119Y-5928167D01*
X1459643Y-5947214D01*
X1459643Y-6051976D01*
X1459643Y-5947214D02*
X1469167Y-5928167D01*
X1488214Y-5918643D01*
X1516786Y-5918643D01*
X1535833Y-5928167D01*
X1545357Y-5947214D01*
X1545357Y-6051976D01*
X1935833Y-5842452D02*
X1764405Y-6099595D01*
X2192976Y-5851976D02*
X2212024Y-5851976D01*
X2231071Y-5861500D01*
X2240595Y-5871024D01*
X2250119Y-5890071D01*
X2259643Y-5928167D01*
X2259643Y-5975786D01*
X2250119Y-6013881D01*
X2240595Y-6032928D01*
X2231071Y-6042452D01*
X2212024Y-6051976D01*
X2192976Y-6051976D01*
X2173929Y-6042452D01*
X2164405Y-6032928D01*
X2154881Y-6013881D01*
X2145357Y-5975786D01*
X2145357Y-5928167D01*
X2154881Y-5890071D01*
X2164405Y-5871024D01*
X2173929Y-5861500D01*
X2192976Y-5851976D01*
X2345357Y-6032928D02*
X2354881Y-6042452D01*
X2345357Y-6051976D01*
X2335833Y-6042452D01*
X2345357Y-6032928D01*
X2345357Y-6051976D01*
X2478690Y-5851976D02*
X2497738Y-5851976D01*
X2516786Y-5861500D01*
X2526310Y-5871024D01*
X2535833Y-5890071D01*
X2545357Y-5928167D01*
X2545357Y-5975786D01*
X2535833Y-6013881D01*
X2526310Y-6032928D01*
X2516786Y-6042452D01*
X2497738Y-6051976D01*
X2478690Y-6051976D01*
X2459643Y-6042452D01*
X2450119Y-6032928D01*
X2440595Y-6013881D01*
X2431071Y-5975786D01*
X2431071Y-5928167D01*
X2440595Y-5890071D01*
X2450119Y-5871024D01*
X2459643Y-5861500D01*
X2478690Y-5851976D01*
X2735833Y-6051976D02*
X2621548Y-6051976D01*
X2678690Y-6051976D02*
X2678690Y-5851976D01*
X2659643Y-5880548D01*
X2640595Y-5899595D01*
X2621548Y-5909119D01*
X2802500Y-5851976D02*
X2926309Y-5851976D01*
X2859643Y-5928167D01*
X2888214Y-5928167D01*
X2907262Y-5937690D01*
X2916786Y-5947214D01*
X2926309Y-5966262D01*
X2926309Y-6013881D01*
X2916786Y-6032928D01*
X2907262Y-6042452D01*
X2888214Y-6051976D01*
X2831071Y-6051976D01*
X2812024Y-6042452D01*
X2802500Y-6032928D01*
X3040595Y-5937690D02*
X3021548Y-5928167D01*
X3012024Y-5918643D01*
X3002500Y-5899595D01*
X3002500Y-5890071D01*
X3012024Y-5871024D01*
X3021548Y-5861500D01*
X3040595Y-5851976D01*
X3078690Y-5851976D01*
X3097738Y-5861500D01*
X3107262Y-5871024D01*
X3116786Y-5890071D01*
X3116786Y-5899595D01*
X3107262Y-5918643D01*
X3097738Y-5928167D01*
X3078690Y-5937690D01*
X3040595Y-5937690D01*
X3021548Y-5947214D01*
X3012024Y-5956738D01*
X3002500Y-5975786D01*
X3002500Y-6013881D01*
X3012024Y-6032928D01*
X3021548Y-6042452D01*
X3040595Y-6051976D01*
X3078690Y-6051976D01*
X3097738Y-6042452D01*
X3107262Y-6032928D01*
X3116786Y-6013881D01*
X3116786Y-5975786D01*
X3107262Y-5956738D01*
X3097738Y-5947214D01*
X3078690Y-5937690D01*
X3192976Y-5851976D02*
X3192976Y-5890071D01*
X3269167Y-5851976D02*
X3269167Y-5890071D01*
X3564405Y-6128167D02*
X3554881Y-6118643D01*
X3535833Y-6090071D01*
X3526309Y-6071024D01*
X3516786Y-6042452D01*
X3507262Y-5994833D01*
X3507262Y-5956738D01*
X3516786Y-5909119D01*
X3526309Y-5880548D01*
X3535833Y-5861500D01*
X3554881Y-5832928D01*
X3564405Y-5823405D01*
X3650119Y-6051976D02*
X3688214Y-6051976D01*
X3707262Y-6042452D01*
X3716786Y-6032928D01*
X3735833Y-6004357D01*
X3745357Y-5966262D01*
X3745357Y-5890071D01*
X3735833Y-5871024D01*
X3726309Y-5861500D01*
X3707262Y-5851976D01*
X3669167Y-5851976D01*
X3650119Y-5861500D01*
X3640595Y-5871024D01*
X3631071Y-5890071D01*
X3631071Y-5937690D01*
X3640595Y-5956738D01*
X3650119Y-5966262D01*
X3669167Y-5975786D01*
X3707262Y-5975786D01*
X3726309Y-5966262D01*
X3735833Y-5956738D01*
X3745357Y-5937690D01*
X3983452Y-6051976D02*
X3983452Y-5851976D01*
X4069167Y-6051976D02*
X4069167Y-5947214D01*
X4059643Y-5928167D01*
X4040595Y-5918643D01*
X4012024Y-5918643D01*
X3992976Y-5928167D01*
X3983452Y-5937690D01*
X4192976Y-6051976D02*
X4173928Y-6042452D01*
X4164405Y-6032928D01*
X4154881Y-6013881D01*
X4154881Y-5956738D01*
X4164405Y-5937690D01*
X4173928Y-5928167D01*
X4192976Y-5918643D01*
X4221548Y-5918643D01*
X4240595Y-5928167D01*
X4250119Y-5937690D01*
X4259643Y-5956738D01*
X4259643Y-6013881D01*
X4250119Y-6032928D01*
X4240595Y-6042452D01*
X4221548Y-6051976D01*
X4192976Y-6051976D01*
X4373929Y-6051976D02*
X4354881Y-6042452D01*
X4345357Y-6023405D01*
X4345357Y-5851976D01*
X4526310Y-6042452D02*
X4507262Y-6051976D01*
X4469167Y-6051976D01*
X4450119Y-6042452D01*
X4440595Y-6023405D01*
X4440595Y-5947214D01*
X4450119Y-5928167D01*
X4469167Y-5918643D01*
X4507262Y-5918643D01*
X4526310Y-5928167D01*
X4535833Y-5947214D01*
X4535833Y-5966262D01*
X4440595Y-5985309D01*
X4612024Y-6042452D02*
X4631071Y-6051976D01*
X4669167Y-6051976D01*
X4688214Y-6042452D01*
X4697738Y-6023405D01*
X4697738Y-6013881D01*
X4688214Y-5994833D01*
X4669167Y-5985309D01*
X4640595Y-5985309D01*
X4621548Y-5975786D01*
X4612024Y-5956738D01*
X4612024Y-5947214D01*
X4621548Y-5928167D01*
X4640595Y-5918643D01*
X4669167Y-5918643D01*
X4688214Y-5928167D01*
X4764405Y-6128167D02*
X4773929Y-6118643D01*
X4792976Y-6090071D01*
X4802500Y-6071024D01*
X4812024Y-6042452D01*
X4821548Y-5994833D01*
X4821548Y-5956738D01*
X4812024Y-5909119D01*
X4802500Y-5880548D01*
X4792976Y-5861500D01*
X4773929Y-5832928D01*
X4764405Y-5823405D01*
D14*
X-27500Y-6205500D02*
X-27500Y-6245500D01*
X-47500Y-6225500D02*
X-7500Y-6225500D01*
D11*
X288214Y-6115976D02*
X307262Y-6115976D01*
X326310Y-6125500D01*
X335833Y-6135024D01*
X345357Y-6154071D01*
X354881Y-6192167D01*
X354881Y-6239786D01*
X345357Y-6277881D01*
X335833Y-6296928D01*
X326310Y-6306452D01*
X307262Y-6315976D01*
X288214Y-6315976D01*
X269167Y-6306452D01*
X259643Y-6296928D01*
X250119Y-6277881D01*
X240595Y-6239786D01*
X240595Y-6192167D01*
X250119Y-6154071D01*
X259643Y-6135024D01*
X269167Y-6125500D01*
X288214Y-6115976D01*
X440595Y-6296928D02*
X450119Y-6306452D01*
X440595Y-6315976D01*
X431071Y-6306452D01*
X440595Y-6296928D01*
X440595Y-6315976D01*
X621548Y-6182643D02*
X621548Y-6315976D01*
X573929Y-6106452D02*
X526310Y-6249309D01*
X650119Y-6249309D01*
X764405Y-6115976D02*
X783452Y-6115976D01*
X802500Y-6125500D01*
X812024Y-6135024D01*
X821548Y-6154071D01*
X831071Y-6192167D01*
X831071Y-6239786D01*
X821548Y-6277881D01*
X812024Y-6296928D01*
X802500Y-6306452D01*
X783452Y-6315976D01*
X764405Y-6315976D01*
X745357Y-6306452D01*
X735833Y-6296928D01*
X726309Y-6277881D01*
X716786Y-6239786D01*
X716786Y-6192167D01*
X726309Y-6154071D01*
X735833Y-6135024D01*
X745357Y-6125500D01*
X764405Y-6115976D01*
X954881Y-6115976D02*
X973928Y-6115976D01*
X992976Y-6125500D01*
X1002500Y-6135024D01*
X1012024Y-6154071D01*
X1021548Y-6192167D01*
X1021548Y-6239786D01*
X1012024Y-6277881D01*
X1002500Y-6296928D01*
X992976Y-6306452D01*
X973928Y-6315976D01*
X954881Y-6315976D01*
X935833Y-6306452D01*
X926309Y-6296928D01*
X916786Y-6277881D01*
X907262Y-6239786D01*
X907262Y-6192167D01*
X916786Y-6154071D01*
X926309Y-6135024D01*
X935833Y-6125500D01*
X954881Y-6115976D01*
X1107262Y-6315976D02*
X1107262Y-6182643D01*
X1107262Y-6201690D02*
X1116786Y-6192167D01*
X1135833Y-6182643D01*
X1164405Y-6182643D01*
X1183452Y-6192167D01*
X1192976Y-6211214D01*
X1192976Y-6315976D01*
X1192976Y-6211214D02*
X1202500Y-6192167D01*
X1221548Y-6182643D01*
X1250119Y-6182643D01*
X1269167Y-6192167D01*
X1278690Y-6211214D01*
X1278690Y-6315976D01*
X1373929Y-6315976D02*
X1373929Y-6182643D01*
X1373929Y-6201690D02*
X1383452Y-6192167D01*
X1402500Y-6182643D01*
X1431071Y-6182643D01*
X1450119Y-6192167D01*
X1459643Y-6211214D01*
X1459643Y-6315976D01*
X1459643Y-6211214D02*
X1469167Y-6192167D01*
X1488214Y-6182643D01*
X1516786Y-6182643D01*
X1535833Y-6192167D01*
X1545357Y-6211214D01*
X1545357Y-6315976D01*
X1935833Y-6106452D02*
X1764405Y-6363595D01*
X2192976Y-6115976D02*
X2212024Y-6115976D01*
X2231071Y-6125500D01*
X2240595Y-6135024D01*
X2250119Y-6154071D01*
X2259643Y-6192167D01*
X2259643Y-6239786D01*
X2250119Y-6277881D01*
X2240595Y-6296928D01*
X2231071Y-6306452D01*
X2212024Y-6315976D01*
X2192976Y-6315976D01*
X2173929Y-6306452D01*
X2164405Y-6296928D01*
X2154881Y-6277881D01*
X2145357Y-6239786D01*
X2145357Y-6192167D01*
X2154881Y-6154071D01*
X2164405Y-6135024D01*
X2173929Y-6125500D01*
X2192976Y-6115976D01*
X2345357Y-6296928D02*
X2354881Y-6306452D01*
X2345357Y-6315976D01*
X2335833Y-6306452D01*
X2345357Y-6296928D01*
X2345357Y-6315976D01*
X2478690Y-6115976D02*
X2497738Y-6115976D01*
X2516786Y-6125500D01*
X2526310Y-6135024D01*
X2535833Y-6154071D01*
X2545357Y-6192167D01*
X2545357Y-6239786D01*
X2535833Y-6277881D01*
X2526310Y-6296928D01*
X2516786Y-6306452D01*
X2497738Y-6315976D01*
X2478690Y-6315976D01*
X2459643Y-6306452D01*
X2450119Y-6296928D01*
X2440595Y-6277881D01*
X2431071Y-6239786D01*
X2431071Y-6192167D01*
X2440595Y-6154071D01*
X2450119Y-6135024D01*
X2459643Y-6125500D01*
X2478690Y-6115976D01*
X2735833Y-6315976D02*
X2621548Y-6315976D01*
X2678690Y-6315976D02*
X2678690Y-6115976D01*
X2659643Y-6144548D01*
X2640595Y-6163595D01*
X2621548Y-6173119D01*
X2916786Y-6115976D02*
X2821548Y-6115976D01*
X2812024Y-6211214D01*
X2821548Y-6201690D01*
X2840595Y-6192167D01*
X2888214Y-6192167D01*
X2907262Y-6201690D01*
X2916786Y-6211214D01*
X2926309Y-6230262D01*
X2926309Y-6277881D01*
X2916786Y-6296928D01*
X2907262Y-6306452D01*
X2888214Y-6315976D01*
X2840595Y-6315976D01*
X2821548Y-6306452D01*
X2812024Y-6296928D01*
X2992976Y-6115976D02*
X3126309Y-6115976D01*
X3040595Y-6315976D01*
X3192976Y-6115976D02*
X3192976Y-6154071D01*
X3269167Y-6115976D02*
X3269167Y-6154071D01*
X3564405Y-6392167D02*
X3554881Y-6382643D01*
X3535833Y-6354071D01*
X3526309Y-6335024D01*
X3516786Y-6306452D01*
X3507262Y-6258833D01*
X3507262Y-6220738D01*
X3516786Y-6173119D01*
X3526309Y-6144548D01*
X3535833Y-6125500D01*
X3554881Y-6096928D01*
X3564405Y-6087405D01*
X3745357Y-6315976D02*
X3631071Y-6315976D01*
X3688214Y-6315976D02*
X3688214Y-6115976D01*
X3669167Y-6144548D01*
X3650119Y-6163595D01*
X3631071Y-6173119D01*
X3869167Y-6115976D02*
X3888214Y-6115976D01*
X3907262Y-6125500D01*
X3916786Y-6135024D01*
X3926309Y-6154071D01*
X3935833Y-6192167D01*
X3935833Y-6239786D01*
X3926309Y-6277881D01*
X3916786Y-6296928D01*
X3907262Y-6306452D01*
X3888214Y-6315976D01*
X3869167Y-6315976D01*
X3850119Y-6306452D01*
X3840595Y-6296928D01*
X3831071Y-6277881D01*
X3821548Y-6239786D01*
X3821548Y-6192167D01*
X3831071Y-6154071D01*
X3840595Y-6135024D01*
X3850119Y-6125500D01*
X3869167Y-6115976D01*
X4173928Y-6315976D02*
X4173928Y-6115976D01*
X4259643Y-6315976D02*
X4259643Y-6211214D01*
X4250119Y-6192167D01*
X4231071Y-6182643D01*
X4202500Y-6182643D01*
X4183452Y-6192167D01*
X4173928Y-6201690D01*
X4383452Y-6315976D02*
X4364405Y-6306452D01*
X4354881Y-6296928D01*
X4345357Y-6277881D01*
X4345357Y-6220738D01*
X4354881Y-6201690D01*
X4364405Y-6192167D01*
X4383452Y-6182643D01*
X4412024Y-6182643D01*
X4431071Y-6192167D01*
X4440595Y-6201690D01*
X4450119Y-6220738D01*
X4450119Y-6277881D01*
X4440595Y-6296928D01*
X4431071Y-6306452D01*
X4412024Y-6315976D01*
X4383452Y-6315976D01*
X4564405Y-6315976D02*
X4545357Y-6306452D01*
X4535833Y-6287405D01*
X4535833Y-6115976D01*
X4716786Y-6306452D02*
X4697738Y-6315976D01*
X4659643Y-6315976D01*
X4640595Y-6306452D01*
X4631071Y-6287405D01*
X4631071Y-6211214D01*
X4640595Y-6192167D01*
X4659643Y-6182643D01*
X4697738Y-6182643D01*
X4716786Y-6192167D01*
X4726310Y-6211214D01*
X4726310Y-6230262D01*
X4631071Y-6249309D01*
X4802500Y-6306452D02*
X4821548Y-6315976D01*
X4859643Y-6315976D01*
X4878690Y-6306452D01*
X4888214Y-6287405D01*
X4888214Y-6277881D01*
X4878690Y-6258833D01*
X4859643Y-6249309D01*
X4831071Y-6249309D01*
X4812024Y-6239786D01*
X4802500Y-6220738D01*
X4802500Y-6211214D01*
X4812024Y-6192167D01*
X4831071Y-6182643D01*
X4859643Y-6182643D01*
X4878690Y-6192167D01*
X4954881Y-6392167D02*
X4964405Y-6382643D01*
X4983452Y-6354071D01*
X4992976Y-6335024D01*
X5002500Y-6306452D01*
X5012024Y-6258833D01*
X5012024Y-6220738D01*
X5002500Y-6173119D01*
X4992976Y-6144548D01*
X4983452Y-6125500D01*
X4964405Y-6096928D01*
X4954881Y-6087405D01*
D15*
X-16287Y-6510713D02*
X-16287Y-6468287D01*
X-58713Y-6468287D01*
X-58713Y-6510713D01*
X-16287Y-6510713D01*
D11*
X288214Y-6379976D02*
X307262Y-6379976D01*
X326310Y-6389500D01*
X335833Y-6399024D01*
X345357Y-6418071D01*
X354881Y-6456167D01*
X354881Y-6503786D01*
X345357Y-6541881D01*
X335833Y-6560928D01*
X326310Y-6570452D01*
X307262Y-6579976D01*
X288214Y-6579976D01*
X269167Y-6570452D01*
X259643Y-6560928D01*
X250119Y-6541881D01*
X240595Y-6503786D01*
X240595Y-6456167D01*
X250119Y-6418071D01*
X259643Y-6399024D01*
X269167Y-6389500D01*
X288214Y-6379976D01*
X440595Y-6560928D02*
X450119Y-6570452D01*
X440595Y-6579976D01*
X431071Y-6570452D01*
X440595Y-6560928D01*
X440595Y-6579976D01*
X621548Y-6379976D02*
X583452Y-6379976D01*
X564405Y-6389500D01*
X554881Y-6399024D01*
X535833Y-6427595D01*
X526310Y-6465690D01*
X526310Y-6541881D01*
X535833Y-6560928D01*
X545357Y-6570452D01*
X564405Y-6579976D01*
X602500Y-6579976D01*
X621548Y-6570452D01*
X631071Y-6560928D01*
X640595Y-6541881D01*
X640595Y-6494262D01*
X631071Y-6475214D01*
X621548Y-6465690D01*
X602500Y-6456167D01*
X564405Y-6456167D01*
X545357Y-6465690D01*
X535833Y-6475214D01*
X526310Y-6494262D01*
X764405Y-6379976D02*
X783452Y-6379976D01*
X802500Y-6389500D01*
X812024Y-6399024D01*
X821548Y-6418071D01*
X831071Y-6456167D01*
X831071Y-6503786D01*
X821548Y-6541881D01*
X812024Y-6560928D01*
X802500Y-6570452D01*
X783452Y-6579976D01*
X764405Y-6579976D01*
X745357Y-6570452D01*
X735833Y-6560928D01*
X726309Y-6541881D01*
X716786Y-6503786D01*
X716786Y-6456167D01*
X726309Y-6418071D01*
X735833Y-6399024D01*
X745357Y-6389500D01*
X764405Y-6379976D01*
X954881Y-6379976D02*
X973928Y-6379976D01*
X992976Y-6389500D01*
X1002500Y-6399024D01*
X1012024Y-6418071D01*
X1021548Y-6456167D01*
X1021548Y-6503786D01*
X1012024Y-6541881D01*
X1002500Y-6560928D01*
X992976Y-6570452D01*
X973928Y-6579976D01*
X954881Y-6579976D01*
X935833Y-6570452D01*
X926309Y-6560928D01*
X916786Y-6541881D01*
X907262Y-6503786D01*
X907262Y-6456167D01*
X916786Y-6418071D01*
X926309Y-6399024D01*
X935833Y-6389500D01*
X954881Y-6379976D01*
X1107262Y-6579976D02*
X1107262Y-6446643D01*
X1107262Y-6465690D02*
X1116786Y-6456167D01*
X1135833Y-6446643D01*
X1164405Y-6446643D01*
X1183452Y-6456167D01*
X1192976Y-6475214D01*
X1192976Y-6579976D01*
X1192976Y-6475214D02*
X1202500Y-6456167D01*
X1221548Y-6446643D01*
X1250119Y-6446643D01*
X1269167Y-6456167D01*
X1278690Y-6475214D01*
X1278690Y-6579976D01*
X1373929Y-6579976D02*
X1373929Y-6446643D01*
X1373929Y-6465690D02*
X1383452Y-6456167D01*
X1402500Y-6446643D01*
X1431071Y-6446643D01*
X1450119Y-6456167D01*
X1459643Y-6475214D01*
X1459643Y-6579976D01*
X1459643Y-6475214D02*
X1469167Y-6456167D01*
X1488214Y-6446643D01*
X1516786Y-6446643D01*
X1535833Y-6456167D01*
X1545357Y-6475214D01*
X1545357Y-6579976D01*
X1935833Y-6370452D02*
X1764405Y-6627595D01*
X2192976Y-6379976D02*
X2212024Y-6379976D01*
X2231071Y-6389500D01*
X2240595Y-6399024D01*
X2250119Y-6418071D01*
X2259643Y-6456167D01*
X2259643Y-6503786D01*
X2250119Y-6541881D01*
X2240595Y-6560928D01*
X2231071Y-6570452D01*
X2212024Y-6579976D01*
X2192976Y-6579976D01*
X2173929Y-6570452D01*
X2164405Y-6560928D01*
X2154881Y-6541881D01*
X2145357Y-6503786D01*
X2145357Y-6456167D01*
X2154881Y-6418071D01*
X2164405Y-6399024D01*
X2173929Y-6389500D01*
X2192976Y-6379976D01*
X2345357Y-6560928D02*
X2354881Y-6570452D01*
X2345357Y-6579976D01*
X2335833Y-6570452D01*
X2345357Y-6560928D01*
X2345357Y-6579976D01*
X2478690Y-6379976D02*
X2497738Y-6379976D01*
X2516786Y-6389500D01*
X2526310Y-6399024D01*
X2535833Y-6418071D01*
X2545357Y-6456167D01*
X2545357Y-6503786D01*
X2535833Y-6541881D01*
X2526310Y-6560928D01*
X2516786Y-6570452D01*
X2497738Y-6579976D01*
X2478690Y-6579976D01*
X2459643Y-6570452D01*
X2450119Y-6560928D01*
X2440595Y-6541881D01*
X2431071Y-6503786D01*
X2431071Y-6456167D01*
X2440595Y-6418071D01*
X2450119Y-6399024D01*
X2459643Y-6389500D01*
X2478690Y-6379976D01*
X2621548Y-6399024D02*
X2631071Y-6389500D01*
X2650119Y-6379976D01*
X2697738Y-6379976D01*
X2716786Y-6389500D01*
X2726310Y-6399024D01*
X2735833Y-6418071D01*
X2735833Y-6437119D01*
X2726310Y-6465690D01*
X2612024Y-6579976D01*
X2735833Y-6579976D01*
X2802500Y-6379976D02*
X2926309Y-6379976D01*
X2859643Y-6456167D01*
X2888214Y-6456167D01*
X2907262Y-6465690D01*
X2916786Y-6475214D01*
X2926309Y-6494262D01*
X2926309Y-6541881D01*
X2916786Y-6560928D01*
X2907262Y-6570452D01*
X2888214Y-6579976D01*
X2831071Y-6579976D01*
X2812024Y-6570452D01*
X2802500Y-6560928D01*
X3097738Y-6379976D02*
X3059643Y-6379976D01*
X3040595Y-6389500D01*
X3031071Y-6399024D01*
X3012024Y-6427595D01*
X3002500Y-6465690D01*
X3002500Y-6541881D01*
X3012024Y-6560928D01*
X3021548Y-6570452D01*
X3040595Y-6579976D01*
X3078690Y-6579976D01*
X3097738Y-6570452D01*
X3107262Y-6560928D01*
X3116786Y-6541881D01*
X3116786Y-6494262D01*
X3107262Y-6475214D01*
X3097738Y-6465690D01*
X3078690Y-6456167D01*
X3040595Y-6456167D01*
X3021548Y-6465690D01*
X3012024Y-6475214D01*
X3002500Y-6494262D01*
X3192976Y-6379976D02*
X3192976Y-6418071D01*
X3269167Y-6379976D02*
X3269167Y-6418071D01*
X3564405Y-6656167D02*
X3554881Y-6646643D01*
X3535833Y-6618071D01*
X3526309Y-6599024D01*
X3516786Y-6570452D01*
X3507262Y-6522833D01*
X3507262Y-6484738D01*
X3516786Y-6437119D01*
X3526309Y-6408548D01*
X3535833Y-6389500D01*
X3554881Y-6360928D01*
X3564405Y-6351405D01*
X3678690Y-6379976D02*
X3697738Y-6379976D01*
X3716786Y-6389500D01*
X3726309Y-6399024D01*
X3735833Y-6418071D01*
X3745357Y-6456167D01*
X3745357Y-6503786D01*
X3735833Y-6541881D01*
X3726309Y-6560928D01*
X3716786Y-6570452D01*
X3697738Y-6579976D01*
X3678690Y-6579976D01*
X3659643Y-6570452D01*
X3650119Y-6560928D01*
X3640595Y-6541881D01*
X3631071Y-6503786D01*
X3631071Y-6456167D01*
X3640595Y-6418071D01*
X3650119Y-6399024D01*
X3659643Y-6389500D01*
X3678690Y-6379976D01*
X3983452Y-6579976D02*
X3983452Y-6379976D01*
X4069167Y-6579976D02*
X4069167Y-6475214D01*
X4059643Y-6456167D01*
X4040595Y-6446643D01*
X4012024Y-6446643D01*
X3992976Y-6456167D01*
X3983452Y-6465690D01*
X4192976Y-6579976D02*
X4173928Y-6570452D01*
X4164405Y-6560928D01*
X4154881Y-6541881D01*
X4154881Y-6484738D01*
X4164405Y-6465690D01*
X4173928Y-6456167D01*
X4192976Y-6446643D01*
X4221548Y-6446643D01*
X4240595Y-6456167D01*
X4250119Y-6465690D01*
X4259643Y-6484738D01*
X4259643Y-6541881D01*
X4250119Y-6560928D01*
X4240595Y-6570452D01*
X4221548Y-6579976D01*
X4192976Y-6579976D01*
X4373929Y-6579976D02*
X4354881Y-6570452D01*
X4345357Y-6551405D01*
X4345357Y-6379976D01*
X4526310Y-6570452D02*
X4507262Y-6579976D01*
X4469167Y-6579976D01*
X4450119Y-6570452D01*
X4440595Y-6551405D01*
X4440595Y-6475214D01*
X4450119Y-6456167D01*
X4469167Y-6446643D01*
X4507262Y-6446643D01*
X4526310Y-6456167D01*
X4535833Y-6475214D01*
X4535833Y-6494262D01*
X4440595Y-6513309D01*
X4612024Y-6570452D02*
X4631071Y-6579976D01*
X4669167Y-6579976D01*
X4688214Y-6570452D01*
X4697738Y-6551405D01*
X4697738Y-6541881D01*
X4688214Y-6522833D01*
X4669167Y-6513309D01*
X4640595Y-6513309D01*
X4621548Y-6503786D01*
X4612024Y-6484738D01*
X4612024Y-6475214D01*
X4621548Y-6456167D01*
X4640595Y-6446643D01*
X4669167Y-6446643D01*
X4688214Y-6456167D01*
X4935833Y-6503786D02*
X5088214Y-6503786D01*
X5012024Y-6579976D02*
X5012024Y-6427595D01*
X5421548Y-6446643D02*
X5421548Y-6579976D01*
X5373929Y-6370452D02*
X5326310Y-6513309D01*
X5450119Y-6513309D01*
X5669167Y-6570452D02*
X5688214Y-6579976D01*
X5726309Y-6579976D01*
X5745357Y-6570452D01*
X5754881Y-6551405D01*
X5754881Y-6541881D01*
X5745357Y-6522833D01*
X5726309Y-6513309D01*
X5697738Y-6513309D01*
X5678690Y-6503786D01*
X5669167Y-6484738D01*
X5669167Y-6475214D01*
X5678690Y-6456167D01*
X5697738Y-6446643D01*
X5726309Y-6446643D01*
X5745357Y-6456167D01*
X5869167Y-6579976D02*
X5850119Y-6570452D01*
X5840595Y-6551405D01*
X5840595Y-6379976D01*
X5973928Y-6579976D02*
X5954881Y-6570452D01*
X5945357Y-6560928D01*
X5935833Y-6541881D01*
X5935833Y-6484738D01*
X5945357Y-6465690D01*
X5954881Y-6456167D01*
X5973928Y-6446643D01*
X6002500Y-6446643D01*
X6021548Y-6456167D01*
X6031071Y-6465690D01*
X6040595Y-6484738D01*
X6040595Y-6541881D01*
X6031071Y-6560928D01*
X6021548Y-6570452D01*
X6002500Y-6579976D01*
X5973928Y-6579976D01*
X6097738Y-6446643D02*
X6173928Y-6446643D01*
X6126309Y-6379976D02*
X6126309Y-6551405D01*
X6135833Y-6570452D01*
X6154881Y-6579976D01*
X6173928Y-6579976D01*
X6231071Y-6570452D02*
X6250119Y-6579976D01*
X6288214Y-6579976D01*
X6307262Y-6570452D01*
X6316786Y-6551405D01*
X6316786Y-6541881D01*
X6307262Y-6522833D01*
X6288214Y-6513309D01*
X6259643Y-6513309D01*
X6240595Y-6503786D01*
X6231071Y-6484738D01*
X6231071Y-6475214D01*
X6240595Y-6456167D01*
X6259643Y-6446643D01*
X6288214Y-6446643D01*
X6307262Y-6456167D01*
X6383452Y-6656167D02*
X6392976Y-6646643D01*
X6412024Y-6618071D01*
X6421548Y-6599024D01*
X6431071Y-6570452D01*
X6440595Y-6522833D01*
X6440595Y-6484738D01*
X6431071Y-6437119D01*
X6421548Y-6408548D01*
X6412024Y-6389500D01*
X6392976Y-6360928D01*
X6383452Y-6351405D01*
D16*
X-47500Y-6793500D02*
X-7500Y-6753500D01*
X-47500Y-6713500D01*
X-87500Y-6753500D01*
X-47500Y-6793500D01*
D11*
X288214Y-6643976D02*
X307262Y-6643976D01*
X326310Y-6653500D01*
X335833Y-6663024D01*
X345357Y-6682071D01*
X354881Y-6720167D01*
X354881Y-6767786D01*
X345357Y-6805881D01*
X335833Y-6824928D01*
X326310Y-6834452D01*
X307262Y-6843976D01*
X288214Y-6843976D01*
X269167Y-6834452D01*
X259643Y-6824928D01*
X250119Y-6805881D01*
X240595Y-6767786D01*
X240595Y-6720167D01*
X250119Y-6682071D01*
X259643Y-6663024D01*
X269167Y-6653500D01*
X288214Y-6643976D01*
X440595Y-6824928D02*
X450119Y-6834452D01*
X440595Y-6843976D01*
X431071Y-6834452D01*
X440595Y-6824928D01*
X440595Y-6843976D01*
X564405Y-6729690D02*
X545357Y-6720167D01*
X535833Y-6710643D01*
X526310Y-6691595D01*
X526310Y-6682071D01*
X535833Y-6663024D01*
X545357Y-6653500D01*
X564405Y-6643976D01*
X602500Y-6643976D01*
X621548Y-6653500D01*
X631071Y-6663024D01*
X640595Y-6682071D01*
X640595Y-6691595D01*
X631071Y-6710643D01*
X621548Y-6720167D01*
X602500Y-6729690D01*
X564405Y-6729690D01*
X545357Y-6739214D01*
X535833Y-6748738D01*
X526310Y-6767786D01*
X526310Y-6805881D01*
X535833Y-6824928D01*
X545357Y-6834452D01*
X564405Y-6843976D01*
X602500Y-6843976D01*
X621548Y-6834452D01*
X631071Y-6824928D01*
X640595Y-6805881D01*
X640595Y-6767786D01*
X631071Y-6748738D01*
X621548Y-6739214D01*
X602500Y-6729690D01*
X764405Y-6643976D02*
X783452Y-6643976D01*
X802500Y-6653500D01*
X812024Y-6663024D01*
X821548Y-6682071D01*
X831071Y-6720167D01*
X831071Y-6767786D01*
X821548Y-6805881D01*
X812024Y-6824928D01*
X802500Y-6834452D01*
X783452Y-6843976D01*
X764405Y-6843976D01*
X745357Y-6834452D01*
X735833Y-6824928D01*
X726309Y-6805881D01*
X716786Y-6767786D01*
X716786Y-6720167D01*
X726309Y-6682071D01*
X735833Y-6663024D01*
X745357Y-6653500D01*
X764405Y-6643976D01*
X954881Y-6643976D02*
X973928Y-6643976D01*
X992976Y-6653500D01*
X1002500Y-6663024D01*
X1012024Y-6682071D01*
X1021548Y-6720167D01*
X1021548Y-6767786D01*
X1012024Y-6805881D01*
X1002500Y-6824928D01*
X992976Y-6834452D01*
X973928Y-6843976D01*
X954881Y-6843976D01*
X935833Y-6834452D01*
X926309Y-6824928D01*
X916786Y-6805881D01*
X907262Y-6767786D01*
X907262Y-6720167D01*
X916786Y-6682071D01*
X926309Y-6663024D01*
X935833Y-6653500D01*
X954881Y-6643976D01*
X1107262Y-6843976D02*
X1107262Y-6710643D01*
X1107262Y-6729690D02*
X1116786Y-6720167D01*
X1135833Y-6710643D01*
X1164405Y-6710643D01*
X1183452Y-6720167D01*
X1192976Y-6739214D01*
X1192976Y-6843976D01*
X1192976Y-6739214D02*
X1202500Y-6720167D01*
X1221548Y-6710643D01*
X1250119Y-6710643D01*
X1269167Y-6720167D01*
X1278690Y-6739214D01*
X1278690Y-6843976D01*
X1373929Y-6843976D02*
X1373929Y-6710643D01*
X1373929Y-6729690D02*
X1383452Y-6720167D01*
X1402500Y-6710643D01*
X1431071Y-6710643D01*
X1450119Y-6720167D01*
X1459643Y-6739214D01*
X1459643Y-6843976D01*
X1459643Y-6739214D02*
X1469167Y-6720167D01*
X1488214Y-6710643D01*
X1516786Y-6710643D01*
X1535833Y-6720167D01*
X1545357Y-6739214D01*
X1545357Y-6843976D01*
X1935833Y-6634452D02*
X1764405Y-6891595D01*
X2192976Y-6643976D02*
X2212024Y-6643976D01*
X2231071Y-6653500D01*
X2240595Y-6663024D01*
X2250119Y-6682071D01*
X2259643Y-6720167D01*
X2259643Y-6767786D01*
X2250119Y-6805881D01*
X2240595Y-6824928D01*
X2231071Y-6834452D01*
X2212024Y-6843976D01*
X2192976Y-6843976D01*
X2173929Y-6834452D01*
X2164405Y-6824928D01*
X2154881Y-6805881D01*
X2145357Y-6767786D01*
X2145357Y-6720167D01*
X2154881Y-6682071D01*
X2164405Y-6663024D01*
X2173929Y-6653500D01*
X2192976Y-6643976D01*
X2345357Y-6824928D02*
X2354881Y-6834452D01*
X2345357Y-6843976D01*
X2335833Y-6834452D01*
X2345357Y-6824928D01*
X2345357Y-6843976D01*
X2478690Y-6643976D02*
X2497738Y-6643976D01*
X2516786Y-6653500D01*
X2526310Y-6663024D01*
X2535833Y-6682071D01*
X2545357Y-6720167D01*
X2545357Y-6767786D01*
X2535833Y-6805881D01*
X2526310Y-6824928D01*
X2516786Y-6834452D01*
X2497738Y-6843976D01*
X2478690Y-6843976D01*
X2459643Y-6834452D01*
X2450119Y-6824928D01*
X2440595Y-6805881D01*
X2431071Y-6767786D01*
X2431071Y-6720167D01*
X2440595Y-6682071D01*
X2450119Y-6663024D01*
X2459643Y-6653500D01*
X2478690Y-6643976D01*
X2612024Y-6643976D02*
X2735833Y-6643976D01*
X2669167Y-6720167D01*
X2697738Y-6720167D01*
X2716786Y-6729690D01*
X2726310Y-6739214D01*
X2735833Y-6758262D01*
X2735833Y-6805881D01*
X2726310Y-6824928D01*
X2716786Y-6834452D01*
X2697738Y-6843976D01*
X2640595Y-6843976D01*
X2621548Y-6834452D01*
X2612024Y-6824928D01*
X2926309Y-6843976D02*
X2812024Y-6843976D01*
X2869167Y-6843976D02*
X2869167Y-6643976D01*
X2850119Y-6672548D01*
X2831071Y-6691595D01*
X2812024Y-6701119D01*
X3107262Y-6643976D02*
X3012024Y-6643976D01*
X3002500Y-6739214D01*
X3012024Y-6729690D01*
X3031071Y-6720167D01*
X3078690Y-6720167D01*
X3097738Y-6729690D01*
X3107262Y-6739214D01*
X3116786Y-6758262D01*
X3116786Y-6805881D01*
X3107262Y-6824928D01*
X3097738Y-6834452D01*
X3078690Y-6843976D01*
X3031071Y-6843976D01*
X3012024Y-6834452D01*
X3002500Y-6824928D01*
X3192976Y-6643976D02*
X3192976Y-6682071D01*
X3269167Y-6643976D02*
X3269167Y-6682071D01*
X3564405Y-6920167D02*
X3554881Y-6910643D01*
X3535833Y-6882071D01*
X3526309Y-6863024D01*
X3516786Y-6834452D01*
X3507262Y-6786833D01*
X3507262Y-6748738D01*
X3516786Y-6701119D01*
X3526309Y-6672548D01*
X3535833Y-6653500D01*
X3554881Y-6624928D01*
X3564405Y-6615405D01*
X3631071Y-6663024D02*
X3640595Y-6653500D01*
X3659643Y-6643976D01*
X3707262Y-6643976D01*
X3726309Y-6653500D01*
X3735833Y-6663024D01*
X3745357Y-6682071D01*
X3745357Y-6701119D01*
X3735833Y-6729690D01*
X3621548Y-6843976D01*
X3745357Y-6843976D01*
X3983452Y-6843976D02*
X3983452Y-6643976D01*
X4069167Y-6843976D02*
X4069167Y-6739214D01*
X4059643Y-6720167D01*
X4040595Y-6710643D01*
X4012024Y-6710643D01*
X3992976Y-6720167D01*
X3983452Y-6729690D01*
X4192976Y-6843976D02*
X4173928Y-6834452D01*
X4164405Y-6824928D01*
X4154881Y-6805881D01*
X4154881Y-6748738D01*
X4164405Y-6729690D01*
X4173928Y-6720167D01*
X4192976Y-6710643D01*
X4221548Y-6710643D01*
X4240595Y-6720167D01*
X4250119Y-6729690D01*
X4259643Y-6748738D01*
X4259643Y-6805881D01*
X4250119Y-6824928D01*
X4240595Y-6834452D01*
X4221548Y-6843976D01*
X4192976Y-6843976D01*
X4373929Y-6843976D02*
X4354881Y-6834452D01*
X4345357Y-6815405D01*
X4345357Y-6643976D01*
X4526310Y-6834452D02*
X4507262Y-6843976D01*
X4469167Y-6843976D01*
X4450119Y-6834452D01*
X4440595Y-6815405D01*
X4440595Y-6739214D01*
X4450119Y-6720167D01*
X4469167Y-6710643D01*
X4507262Y-6710643D01*
X4526310Y-6720167D01*
X4535833Y-6739214D01*
X4535833Y-6758262D01*
X4440595Y-6777309D01*
X4612024Y-6834452D02*
X4631071Y-6843976D01*
X4669167Y-6843976D01*
X4688214Y-6834452D01*
X4697738Y-6815405D01*
X4697738Y-6805881D01*
X4688214Y-6786833D01*
X4669167Y-6777309D01*
X4640595Y-6777309D01*
X4621548Y-6767786D01*
X4612024Y-6748738D01*
X4612024Y-6739214D01*
X4621548Y-6720167D01*
X4640595Y-6710643D01*
X4669167Y-6710643D01*
X4688214Y-6720167D01*
X4764405Y-6920167D02*
X4773929Y-6910643D01*
X4792976Y-6882071D01*
X4802500Y-6863024D01*
X4812024Y-6834452D01*
X4821548Y-6786833D01*
X4821548Y-6748738D01*
X4812024Y-6701119D01*
X4802500Y-6672548D01*
X4792976Y-6653500D01*
X4773929Y-6624928D01*
X4764405Y-6615405D01*
D17*
X-96400Y-6973050D02*
X-7500Y-7061950D01*
X-7500Y-6973050D02*
X-96400Y-7061950D01*
X-7500Y-7017500D02*
G75*
G03*
X-7500Y-7017500I-44450J0D01*
G01*
D11*
X288214Y-6907976D02*
X307262Y-6907976D01*
X326310Y-6917500D01*
X335833Y-6927024D01*
X345357Y-6946071D01*
X354881Y-6984167D01*
X354881Y-7031786D01*
X345357Y-7069881D01*
X335833Y-7088928D01*
X326310Y-7098452D01*
X307262Y-7107976D01*
X288214Y-7107976D01*
X269167Y-7098452D01*
X259643Y-7088928D01*
X250119Y-7069881D01*
X240595Y-7031786D01*
X240595Y-6984167D01*
X250119Y-6946071D01*
X259643Y-6927024D01*
X269167Y-6917500D01*
X288214Y-6907976D01*
X440595Y-7088928D02*
X450119Y-7098452D01*
X440595Y-7107976D01*
X431071Y-7098452D01*
X440595Y-7088928D01*
X440595Y-7107976D01*
X564405Y-6993690D02*
X545357Y-6984167D01*
X535833Y-6974643D01*
X526310Y-6955595D01*
X526310Y-6946071D01*
X535833Y-6927024D01*
X545357Y-6917500D01*
X564405Y-6907976D01*
X602500Y-6907976D01*
X621548Y-6917500D01*
X631071Y-6927024D01*
X640595Y-6946071D01*
X640595Y-6955595D01*
X631071Y-6974643D01*
X621548Y-6984167D01*
X602500Y-6993690D01*
X564405Y-6993690D01*
X545357Y-7003214D01*
X535833Y-7012738D01*
X526310Y-7031786D01*
X526310Y-7069881D01*
X535833Y-7088928D01*
X545357Y-7098452D01*
X564405Y-7107976D01*
X602500Y-7107976D01*
X621548Y-7098452D01*
X631071Y-7088928D01*
X640595Y-7069881D01*
X640595Y-7031786D01*
X631071Y-7012738D01*
X621548Y-7003214D01*
X602500Y-6993690D01*
X754881Y-6993690D02*
X735833Y-6984167D01*
X726309Y-6974643D01*
X716786Y-6955595D01*
X716786Y-6946071D01*
X726309Y-6927024D01*
X735833Y-6917500D01*
X754881Y-6907976D01*
X792976Y-6907976D01*
X812024Y-6917500D01*
X821548Y-6927024D01*
X831071Y-6946071D01*
X831071Y-6955595D01*
X821548Y-6974643D01*
X812024Y-6984167D01*
X792976Y-6993690D01*
X754881Y-6993690D01*
X735833Y-7003214D01*
X726309Y-7012738D01*
X716786Y-7031786D01*
X716786Y-7069881D01*
X726309Y-7088928D01*
X735833Y-7098452D01*
X754881Y-7107976D01*
X792976Y-7107976D01*
X812024Y-7098452D01*
X821548Y-7088928D01*
X831071Y-7069881D01*
X831071Y-7031786D01*
X821548Y-7012738D01*
X812024Y-7003214D01*
X792976Y-6993690D01*
X926309Y-7107976D02*
X964405Y-7107976D01*
X983452Y-7098452D01*
X992976Y-7088928D01*
X1012024Y-7060357D01*
X1021548Y-7022262D01*
X1021548Y-6946071D01*
X1012024Y-6927024D01*
X1002500Y-6917500D01*
X983452Y-6907976D01*
X945357Y-6907976D01*
X926309Y-6917500D01*
X916786Y-6927024D01*
X907262Y-6946071D01*
X907262Y-6993690D01*
X916786Y-7012738D01*
X926309Y-7022262D01*
X945357Y-7031786D01*
X983452Y-7031786D01*
X1002500Y-7022262D01*
X1012024Y-7012738D01*
X1021548Y-6993690D01*
X1107262Y-7107976D02*
X1107262Y-6974643D01*
X1107262Y-6993690D02*
X1116786Y-6984167D01*
X1135833Y-6974643D01*
X1164405Y-6974643D01*
X1183452Y-6984167D01*
X1192976Y-7003214D01*
X1192976Y-7107976D01*
X1192976Y-7003214D02*
X1202500Y-6984167D01*
X1221548Y-6974643D01*
X1250119Y-6974643D01*
X1269167Y-6984167D01*
X1278690Y-7003214D01*
X1278690Y-7107976D01*
X1373929Y-7107976D02*
X1373929Y-6974643D01*
X1373929Y-6993690D02*
X1383452Y-6984167D01*
X1402500Y-6974643D01*
X1431071Y-6974643D01*
X1450119Y-6984167D01*
X1459643Y-7003214D01*
X1459643Y-7107976D01*
X1459643Y-7003214D02*
X1469167Y-6984167D01*
X1488214Y-6974643D01*
X1516786Y-6974643D01*
X1535833Y-6984167D01*
X1545357Y-7003214D01*
X1545357Y-7107976D01*
X1935833Y-6898452D02*
X1764405Y-7155595D01*
X2192976Y-6907976D02*
X2212024Y-6907976D01*
X2231071Y-6917500D01*
X2240595Y-6927024D01*
X2250119Y-6946071D01*
X2259643Y-6984167D01*
X2259643Y-7031786D01*
X2250119Y-7069881D01*
X2240595Y-7088928D01*
X2231071Y-7098452D01*
X2212024Y-7107976D01*
X2192976Y-7107976D01*
X2173929Y-7098452D01*
X2164405Y-7088928D01*
X2154881Y-7069881D01*
X2145357Y-7031786D01*
X2145357Y-6984167D01*
X2154881Y-6946071D01*
X2164405Y-6927024D01*
X2173929Y-6917500D01*
X2192976Y-6907976D01*
X2345357Y-7088928D02*
X2354881Y-7098452D01*
X2345357Y-7107976D01*
X2335833Y-7098452D01*
X2345357Y-7088928D01*
X2345357Y-7107976D01*
X2478690Y-6907976D02*
X2497738Y-6907976D01*
X2516786Y-6917500D01*
X2526310Y-6927024D01*
X2535833Y-6946071D01*
X2545357Y-6984167D01*
X2545357Y-7031786D01*
X2535833Y-7069881D01*
X2526310Y-7088928D01*
X2516786Y-7098452D01*
X2497738Y-7107976D01*
X2478690Y-7107976D01*
X2459643Y-7098452D01*
X2450119Y-7088928D01*
X2440595Y-7069881D01*
X2431071Y-7031786D01*
X2431071Y-6984167D01*
X2440595Y-6946071D01*
X2450119Y-6927024D01*
X2459643Y-6917500D01*
X2478690Y-6907976D01*
X2612024Y-6907976D02*
X2735833Y-6907976D01*
X2669167Y-6984167D01*
X2697738Y-6984167D01*
X2716786Y-6993690D01*
X2726310Y-7003214D01*
X2735833Y-7022262D01*
X2735833Y-7069881D01*
X2726310Y-7088928D01*
X2716786Y-7098452D01*
X2697738Y-7107976D01*
X2640595Y-7107976D01*
X2621548Y-7098452D01*
X2612024Y-7088928D01*
X2916786Y-6907976D02*
X2821548Y-6907976D01*
X2812024Y-7003214D01*
X2821548Y-6993690D01*
X2840595Y-6984167D01*
X2888214Y-6984167D01*
X2907262Y-6993690D01*
X2916786Y-7003214D01*
X2926309Y-7022262D01*
X2926309Y-7069881D01*
X2916786Y-7088928D01*
X2907262Y-7098452D01*
X2888214Y-7107976D01*
X2840595Y-7107976D01*
X2821548Y-7098452D01*
X2812024Y-7088928D01*
X3050119Y-6907976D02*
X3069167Y-6907976D01*
X3088214Y-6917500D01*
X3097738Y-6927024D01*
X3107262Y-6946071D01*
X3116786Y-6984167D01*
X3116786Y-7031786D01*
X3107262Y-7069881D01*
X3097738Y-7088928D01*
X3088214Y-7098452D01*
X3069167Y-7107976D01*
X3050119Y-7107976D01*
X3031071Y-7098452D01*
X3021548Y-7088928D01*
X3012024Y-7069881D01*
X3002500Y-7031786D01*
X3002500Y-6984167D01*
X3012024Y-6946071D01*
X3021548Y-6927024D01*
X3031071Y-6917500D01*
X3050119Y-6907976D01*
X3192976Y-6907976D02*
X3192976Y-6946071D01*
X3269167Y-6907976D02*
X3269167Y-6946071D01*
X3564405Y-7184167D02*
X3554881Y-7174643D01*
X3535833Y-7146071D01*
X3526309Y-7127024D01*
X3516786Y-7098452D01*
X3507262Y-7050833D01*
X3507262Y-7012738D01*
X3516786Y-6965119D01*
X3526309Y-6936548D01*
X3535833Y-6917500D01*
X3554881Y-6888928D01*
X3564405Y-6879405D01*
X3726309Y-6907976D02*
X3688214Y-6907976D01*
X3669167Y-6917500D01*
X3659643Y-6927024D01*
X3640595Y-6955595D01*
X3631071Y-6993690D01*
X3631071Y-7069881D01*
X3640595Y-7088928D01*
X3650119Y-7098452D01*
X3669167Y-7107976D01*
X3707262Y-7107976D01*
X3726309Y-7098452D01*
X3735833Y-7088928D01*
X3745357Y-7069881D01*
X3745357Y-7022262D01*
X3735833Y-7003214D01*
X3726309Y-6993690D01*
X3707262Y-6984167D01*
X3669167Y-6984167D01*
X3650119Y-6993690D01*
X3640595Y-7003214D01*
X3631071Y-7022262D01*
X3983452Y-7107976D02*
X3983452Y-6907976D01*
X4069167Y-7107976D02*
X4069167Y-7003214D01*
X4059643Y-6984167D01*
X4040595Y-6974643D01*
X4012024Y-6974643D01*
X3992976Y-6984167D01*
X3983452Y-6993690D01*
X4192976Y-7107976D02*
X4173928Y-7098452D01*
X4164405Y-7088928D01*
X4154881Y-7069881D01*
X4154881Y-7012738D01*
X4164405Y-6993690D01*
X4173928Y-6984167D01*
X4192976Y-6974643D01*
X4221548Y-6974643D01*
X4240595Y-6984167D01*
X4250119Y-6993690D01*
X4259643Y-7012738D01*
X4259643Y-7069881D01*
X4250119Y-7088928D01*
X4240595Y-7098452D01*
X4221548Y-7107976D01*
X4192976Y-7107976D01*
X4373929Y-7107976D02*
X4354881Y-7098452D01*
X4345357Y-7079405D01*
X4345357Y-6907976D01*
X4526310Y-7098452D02*
X4507262Y-7107976D01*
X4469167Y-7107976D01*
X4450119Y-7098452D01*
X4440595Y-7079405D01*
X4440595Y-7003214D01*
X4450119Y-6984167D01*
X4469167Y-6974643D01*
X4507262Y-6974643D01*
X4526310Y-6984167D01*
X4535833Y-7003214D01*
X4535833Y-7022262D01*
X4440595Y-7041309D01*
X4612024Y-7098452D02*
X4631071Y-7107976D01*
X4669167Y-7107976D01*
X4688214Y-7098452D01*
X4697738Y-7079405D01*
X4697738Y-7069881D01*
X4688214Y-7050833D01*
X4669167Y-7041309D01*
X4640595Y-7041309D01*
X4621548Y-7031786D01*
X4612024Y-7012738D01*
X4612024Y-7003214D01*
X4621548Y-6984167D01*
X4640595Y-6974643D01*
X4669167Y-6974643D01*
X4688214Y-6984167D01*
X4764405Y-7184167D02*
X4773929Y-7174643D01*
X4792976Y-7146071D01*
X4802500Y-7127024D01*
X4812024Y-7098452D01*
X4821548Y-7050833D01*
X4821548Y-7012738D01*
X4812024Y-6965119D01*
X4802500Y-6936548D01*
X4792976Y-6917500D01*
X4773929Y-6888928D01*
X4764405Y-6879405D01*
D18*
X-97416Y-7236542D02*
X-7500Y-7326458D01*
X-7500Y-7236542D02*
X-97416Y-7326458D01*
X-52458Y-7236542D02*
X-52458Y-7326458D01*
X-97416Y-7281500D02*
X-7500Y-7281500D01*
D11*
X288214Y-7171976D02*
X307262Y-7171976D01*
X326310Y-7181500D01*
X335833Y-7191024D01*
X345357Y-7210071D01*
X354881Y-7248167D01*
X354881Y-7295786D01*
X345357Y-7333881D01*
X335833Y-7352928D01*
X326310Y-7362452D01*
X307262Y-7371976D01*
X288214Y-7371976D01*
X269167Y-7362452D01*
X259643Y-7352928D01*
X250119Y-7333881D01*
X240595Y-7295786D01*
X240595Y-7248167D01*
X250119Y-7210071D01*
X259643Y-7191024D01*
X269167Y-7181500D01*
X288214Y-7171976D01*
X440595Y-7352928D02*
X450119Y-7362452D01*
X440595Y-7371976D01*
X431071Y-7362452D01*
X440595Y-7352928D01*
X440595Y-7371976D01*
X564405Y-7257690D02*
X545357Y-7248167D01*
X535833Y-7238643D01*
X526310Y-7219595D01*
X526310Y-7210071D01*
X535833Y-7191024D01*
X545357Y-7181500D01*
X564405Y-7171976D01*
X602500Y-7171976D01*
X621548Y-7181500D01*
X631071Y-7191024D01*
X640595Y-7210071D01*
X640595Y-7219595D01*
X631071Y-7238643D01*
X621548Y-7248167D01*
X602500Y-7257690D01*
X564405Y-7257690D01*
X545357Y-7267214D01*
X535833Y-7276738D01*
X526310Y-7295786D01*
X526310Y-7333881D01*
X535833Y-7352928D01*
X545357Y-7362452D01*
X564405Y-7371976D01*
X602500Y-7371976D01*
X621548Y-7362452D01*
X631071Y-7352928D01*
X640595Y-7333881D01*
X640595Y-7295786D01*
X631071Y-7276738D01*
X621548Y-7267214D01*
X602500Y-7257690D01*
X735833Y-7371976D02*
X773928Y-7371976D01*
X792976Y-7362452D01*
X802500Y-7352928D01*
X821548Y-7324357D01*
X831071Y-7286262D01*
X831071Y-7210071D01*
X821548Y-7191024D01*
X812024Y-7181500D01*
X792976Y-7171976D01*
X754881Y-7171976D01*
X735833Y-7181500D01*
X726309Y-7191024D01*
X716786Y-7210071D01*
X716786Y-7257690D01*
X726309Y-7276738D01*
X735833Y-7286262D01*
X754881Y-7295786D01*
X792976Y-7295786D01*
X812024Y-7286262D01*
X821548Y-7276738D01*
X831071Y-7257690D01*
X926309Y-7371976D02*
X964405Y-7371976D01*
X983452Y-7362452D01*
X992976Y-7352928D01*
X1012024Y-7324357D01*
X1021548Y-7286262D01*
X1021548Y-7210071D01*
X1012024Y-7191024D01*
X1002500Y-7181500D01*
X983452Y-7171976D01*
X945357Y-7171976D01*
X926309Y-7181500D01*
X916786Y-7191024D01*
X907262Y-7210071D01*
X907262Y-7257690D01*
X916786Y-7276738D01*
X926309Y-7286262D01*
X945357Y-7295786D01*
X983452Y-7295786D01*
X1002500Y-7286262D01*
X1012024Y-7276738D01*
X1021548Y-7257690D01*
X1107262Y-7371976D02*
X1107262Y-7238643D01*
X1107262Y-7257690D02*
X1116786Y-7248167D01*
X1135833Y-7238643D01*
X1164405Y-7238643D01*
X1183452Y-7248167D01*
X1192976Y-7267214D01*
X1192976Y-7371976D01*
X1192976Y-7267214D02*
X1202500Y-7248167D01*
X1221548Y-7238643D01*
X1250119Y-7238643D01*
X1269167Y-7248167D01*
X1278690Y-7267214D01*
X1278690Y-7371976D01*
X1373929Y-7371976D02*
X1373929Y-7238643D01*
X1373929Y-7257690D02*
X1383452Y-7248167D01*
X1402500Y-7238643D01*
X1431071Y-7238643D01*
X1450119Y-7248167D01*
X1459643Y-7267214D01*
X1459643Y-7371976D01*
X1459643Y-7267214D02*
X1469167Y-7248167D01*
X1488214Y-7238643D01*
X1516786Y-7238643D01*
X1535833Y-7248167D01*
X1545357Y-7267214D01*
X1545357Y-7371976D01*
X1935833Y-7162452D02*
X1764405Y-7419595D01*
X2192976Y-7171976D02*
X2212024Y-7171976D01*
X2231071Y-7181500D01*
X2240595Y-7191024D01*
X2250119Y-7210071D01*
X2259643Y-7248167D01*
X2259643Y-7295786D01*
X2250119Y-7333881D01*
X2240595Y-7352928D01*
X2231071Y-7362452D01*
X2212024Y-7371976D01*
X2192976Y-7371976D01*
X2173929Y-7362452D01*
X2164405Y-7352928D01*
X2154881Y-7333881D01*
X2145357Y-7295786D01*
X2145357Y-7248167D01*
X2154881Y-7210071D01*
X2164405Y-7191024D01*
X2173929Y-7181500D01*
X2192976Y-7171976D01*
X2345357Y-7352928D02*
X2354881Y-7362452D01*
X2345357Y-7371976D01*
X2335833Y-7362452D01*
X2345357Y-7352928D01*
X2345357Y-7371976D01*
X2478690Y-7171976D02*
X2497738Y-7171976D01*
X2516786Y-7181500D01*
X2526310Y-7191024D01*
X2535833Y-7210071D01*
X2545357Y-7248167D01*
X2545357Y-7295786D01*
X2535833Y-7333881D01*
X2526310Y-7352928D01*
X2516786Y-7362452D01*
X2497738Y-7371976D01*
X2478690Y-7371976D01*
X2459643Y-7362452D01*
X2450119Y-7352928D01*
X2440595Y-7333881D01*
X2431071Y-7295786D01*
X2431071Y-7248167D01*
X2440595Y-7210071D01*
X2450119Y-7191024D01*
X2459643Y-7181500D01*
X2478690Y-7171976D01*
X2612024Y-7171976D02*
X2735833Y-7171976D01*
X2669167Y-7248167D01*
X2697738Y-7248167D01*
X2716786Y-7257690D01*
X2726310Y-7267214D01*
X2735833Y-7286262D01*
X2735833Y-7333881D01*
X2726310Y-7352928D01*
X2716786Y-7362452D01*
X2697738Y-7371976D01*
X2640595Y-7371976D01*
X2621548Y-7362452D01*
X2612024Y-7352928D01*
X2916786Y-7171976D02*
X2821548Y-7171976D01*
X2812024Y-7267214D01*
X2821548Y-7257690D01*
X2840595Y-7248167D01*
X2888214Y-7248167D01*
X2907262Y-7257690D01*
X2916786Y-7267214D01*
X2926309Y-7286262D01*
X2926309Y-7333881D01*
X2916786Y-7352928D01*
X2907262Y-7362452D01*
X2888214Y-7371976D01*
X2840595Y-7371976D01*
X2821548Y-7362452D01*
X2812024Y-7352928D01*
X3097738Y-7238643D02*
X3097738Y-7371976D01*
X3050119Y-7162452D02*
X3002500Y-7305309D01*
X3126309Y-7305309D01*
X3192976Y-7171976D02*
X3192976Y-7210071D01*
X3269167Y-7171976D02*
X3269167Y-7210071D01*
X3564405Y-7448167D02*
X3554881Y-7438643D01*
X3535833Y-7410071D01*
X3526309Y-7391024D01*
X3516786Y-7362452D01*
X3507262Y-7314833D01*
X3507262Y-7276738D01*
X3516786Y-7229119D01*
X3526309Y-7200548D01*
X3535833Y-7181500D01*
X3554881Y-7152928D01*
X3564405Y-7143405D01*
X3726309Y-7238643D02*
X3726309Y-7371976D01*
X3678690Y-7162452D02*
X3631071Y-7305309D01*
X3754881Y-7305309D01*
X3983452Y-7371976D02*
X3983452Y-7171976D01*
X4069167Y-7371976D02*
X4069167Y-7267214D01*
X4059643Y-7248167D01*
X4040595Y-7238643D01*
X4012024Y-7238643D01*
X3992976Y-7248167D01*
X3983452Y-7257690D01*
X4192976Y-7371976D02*
X4173928Y-7362452D01*
X4164405Y-7352928D01*
X4154881Y-7333881D01*
X4154881Y-7276738D01*
X4164405Y-7257690D01*
X4173928Y-7248167D01*
X4192976Y-7238643D01*
X4221548Y-7238643D01*
X4240595Y-7248167D01*
X4250119Y-7257690D01*
X4259643Y-7276738D01*
X4259643Y-7333881D01*
X4250119Y-7352928D01*
X4240595Y-7362452D01*
X4221548Y-7371976D01*
X4192976Y-7371976D01*
X4373929Y-7371976D02*
X4354881Y-7362452D01*
X4345357Y-7343405D01*
X4345357Y-7171976D01*
X4526310Y-7362452D02*
X4507262Y-7371976D01*
X4469167Y-7371976D01*
X4450119Y-7362452D01*
X4440595Y-7343405D01*
X4440595Y-7267214D01*
X4450119Y-7248167D01*
X4469167Y-7238643D01*
X4507262Y-7238643D01*
X4526310Y-7248167D01*
X4535833Y-7267214D01*
X4535833Y-7286262D01*
X4440595Y-7305309D01*
X4612024Y-7362452D02*
X4631071Y-7371976D01*
X4669167Y-7371976D01*
X4688214Y-7362452D01*
X4697738Y-7343405D01*
X4697738Y-7333881D01*
X4688214Y-7314833D01*
X4669167Y-7305309D01*
X4640595Y-7305309D01*
X4621548Y-7295786D01*
X4612024Y-7276738D01*
X4612024Y-7267214D01*
X4621548Y-7248167D01*
X4640595Y-7238643D01*
X4669167Y-7238643D01*
X4688214Y-7248167D01*
X4764405Y-7448167D02*
X4773929Y-7438643D01*
X4792976Y-7410071D01*
X4802500Y-7391024D01*
X4812024Y-7362452D01*
X4821548Y-7314833D01*
X4821548Y-7276738D01*
X4812024Y-7229119D01*
X4802500Y-7200548D01*
X4792976Y-7181500D01*
X4773929Y-7152928D01*
X4764405Y-7143405D01*
D19*
X-107500Y-7495500D02*
X-7500Y-7595500D01*
X-7500Y-7495500D02*
X-107500Y-7595500D01*
X-22144Y-7580856D02*
X-22144Y-7510144D01*
X-92856Y-7510144D01*
X-92856Y-7580856D01*
X-22144Y-7580856D01*
D11*
X354881Y-7635976D02*
X240595Y-7635976D01*
X297738Y-7635976D02*
X297738Y-7435976D01*
X278690Y-7464548D01*
X259643Y-7483595D01*
X240595Y-7493119D01*
X440595Y-7616928D02*
X450119Y-7626452D01*
X440595Y-7635976D01*
X431071Y-7626452D01*
X440595Y-7616928D01*
X440595Y-7635976D01*
X573929Y-7435976D02*
X592976Y-7435976D01*
X612024Y-7445500D01*
X621548Y-7455024D01*
X631071Y-7474071D01*
X640595Y-7512167D01*
X640595Y-7559786D01*
X631071Y-7597881D01*
X621548Y-7616928D01*
X612024Y-7626452D01*
X592976Y-7635976D01*
X573929Y-7635976D01*
X554881Y-7626452D01*
X545357Y-7616928D01*
X535833Y-7597881D01*
X526310Y-7559786D01*
X526310Y-7512167D01*
X535833Y-7474071D01*
X545357Y-7455024D01*
X554881Y-7445500D01*
X573929Y-7435976D01*
X764405Y-7435976D02*
X783452Y-7435976D01*
X802500Y-7445500D01*
X812024Y-7455024D01*
X821548Y-7474071D01*
X831071Y-7512167D01*
X831071Y-7559786D01*
X821548Y-7597881D01*
X812024Y-7616928D01*
X802500Y-7626452D01*
X783452Y-7635976D01*
X764405Y-7635976D01*
X745357Y-7626452D01*
X735833Y-7616928D01*
X726309Y-7597881D01*
X716786Y-7559786D01*
X716786Y-7512167D01*
X726309Y-7474071D01*
X735833Y-7455024D01*
X745357Y-7445500D01*
X764405Y-7435976D01*
X954881Y-7435976D02*
X973928Y-7435976D01*
X992976Y-7445500D01*
X1002500Y-7455024D01*
X1012024Y-7474071D01*
X1021548Y-7512167D01*
X1021548Y-7559786D01*
X1012024Y-7597881D01*
X1002500Y-7616928D01*
X992976Y-7626452D01*
X973928Y-7635976D01*
X954881Y-7635976D01*
X935833Y-7626452D01*
X926309Y-7616928D01*
X916786Y-7597881D01*
X907262Y-7559786D01*
X907262Y-7512167D01*
X916786Y-7474071D01*
X926309Y-7455024D01*
X935833Y-7445500D01*
X954881Y-7435976D01*
X1107262Y-7635976D02*
X1107262Y-7502643D01*
X1107262Y-7521690D02*
X1116786Y-7512167D01*
X1135833Y-7502643D01*
X1164405Y-7502643D01*
X1183452Y-7512167D01*
X1192976Y-7531214D01*
X1192976Y-7635976D01*
X1192976Y-7531214D02*
X1202500Y-7512167D01*
X1221548Y-7502643D01*
X1250119Y-7502643D01*
X1269167Y-7512167D01*
X1278690Y-7531214D01*
X1278690Y-7635976D01*
X1373929Y-7635976D02*
X1373929Y-7502643D01*
X1373929Y-7521690D02*
X1383452Y-7512167D01*
X1402500Y-7502643D01*
X1431071Y-7502643D01*
X1450119Y-7512167D01*
X1459643Y-7531214D01*
X1459643Y-7635976D01*
X1459643Y-7531214D02*
X1469167Y-7512167D01*
X1488214Y-7502643D01*
X1516786Y-7502643D01*
X1535833Y-7512167D01*
X1545357Y-7531214D01*
X1545357Y-7635976D01*
X1935833Y-7426452D02*
X1764405Y-7683595D01*
X2192976Y-7435976D02*
X2212024Y-7435976D01*
X2231071Y-7445500D01*
X2240595Y-7455024D01*
X2250119Y-7474071D01*
X2259643Y-7512167D01*
X2259643Y-7559786D01*
X2250119Y-7597881D01*
X2240595Y-7616928D01*
X2231071Y-7626452D01*
X2212024Y-7635976D01*
X2192976Y-7635976D01*
X2173929Y-7626452D01*
X2164405Y-7616928D01*
X2154881Y-7597881D01*
X2145357Y-7559786D01*
X2145357Y-7512167D01*
X2154881Y-7474071D01*
X2164405Y-7455024D01*
X2173929Y-7445500D01*
X2192976Y-7435976D01*
X2345357Y-7616928D02*
X2354881Y-7626452D01*
X2345357Y-7635976D01*
X2335833Y-7626452D01*
X2345357Y-7616928D01*
X2345357Y-7635976D01*
X2478690Y-7435976D02*
X2497738Y-7435976D01*
X2516786Y-7445500D01*
X2526310Y-7455024D01*
X2535833Y-7474071D01*
X2545357Y-7512167D01*
X2545357Y-7559786D01*
X2535833Y-7597881D01*
X2526310Y-7616928D01*
X2516786Y-7626452D01*
X2497738Y-7635976D01*
X2478690Y-7635976D01*
X2459643Y-7626452D01*
X2450119Y-7616928D01*
X2440595Y-7597881D01*
X2431071Y-7559786D01*
X2431071Y-7512167D01*
X2440595Y-7474071D01*
X2450119Y-7455024D01*
X2459643Y-7445500D01*
X2478690Y-7435976D01*
X2612024Y-7435976D02*
X2735833Y-7435976D01*
X2669167Y-7512167D01*
X2697738Y-7512167D01*
X2716786Y-7521690D01*
X2726310Y-7531214D01*
X2735833Y-7550262D01*
X2735833Y-7597881D01*
X2726310Y-7616928D01*
X2716786Y-7626452D01*
X2697738Y-7635976D01*
X2640595Y-7635976D01*
X2621548Y-7626452D01*
X2612024Y-7616928D01*
X2831071Y-7635976D02*
X2869167Y-7635976D01*
X2888214Y-7626452D01*
X2897738Y-7616928D01*
X2916786Y-7588357D01*
X2926309Y-7550262D01*
X2926309Y-7474071D01*
X2916786Y-7455024D01*
X2907262Y-7445500D01*
X2888214Y-7435976D01*
X2850119Y-7435976D01*
X2831071Y-7445500D01*
X2821548Y-7455024D01*
X2812024Y-7474071D01*
X2812024Y-7521690D01*
X2821548Y-7540738D01*
X2831071Y-7550262D01*
X2850119Y-7559786D01*
X2888214Y-7559786D01*
X2907262Y-7550262D01*
X2916786Y-7540738D01*
X2926309Y-7521690D01*
X3097738Y-7502643D02*
X3097738Y-7635976D01*
X3050119Y-7426452D02*
X3002500Y-7569309D01*
X3126309Y-7569309D01*
X3192976Y-7435976D02*
X3192976Y-7474071D01*
X3269167Y-7435976D02*
X3269167Y-7474071D01*
X3564405Y-7712167D02*
X3554881Y-7702643D01*
X3535833Y-7674071D01*
X3526309Y-7655024D01*
X3516786Y-7626452D01*
X3507262Y-7578833D01*
X3507262Y-7540738D01*
X3516786Y-7493119D01*
X3526309Y-7464548D01*
X3535833Y-7445500D01*
X3554881Y-7416928D01*
X3564405Y-7407405D01*
X3669167Y-7521690D02*
X3650119Y-7512167D01*
X3640595Y-7502643D01*
X3631071Y-7483595D01*
X3631071Y-7474071D01*
X3640595Y-7455024D01*
X3650119Y-7445500D01*
X3669167Y-7435976D01*
X3707262Y-7435976D01*
X3726309Y-7445500D01*
X3735833Y-7455024D01*
X3745357Y-7474071D01*
X3745357Y-7483595D01*
X3735833Y-7502643D01*
X3726309Y-7512167D01*
X3707262Y-7521690D01*
X3669167Y-7521690D01*
X3650119Y-7531214D01*
X3640595Y-7540738D01*
X3631071Y-7559786D01*
X3631071Y-7597881D01*
X3640595Y-7616928D01*
X3650119Y-7626452D01*
X3669167Y-7635976D01*
X3707262Y-7635976D01*
X3726309Y-7626452D01*
X3735833Y-7616928D01*
X3745357Y-7597881D01*
X3745357Y-7559786D01*
X3735833Y-7540738D01*
X3726309Y-7531214D01*
X3707262Y-7521690D01*
X3983452Y-7635976D02*
X3983452Y-7435976D01*
X4069167Y-7635976D02*
X4069167Y-7531214D01*
X4059643Y-7512167D01*
X4040595Y-7502643D01*
X4012024Y-7502643D01*
X3992976Y-7512167D01*
X3983452Y-7521690D01*
X4192976Y-7635976D02*
X4173928Y-7626452D01*
X4164405Y-7616928D01*
X4154881Y-7597881D01*
X4154881Y-7540738D01*
X4164405Y-7521690D01*
X4173928Y-7512167D01*
X4192976Y-7502643D01*
X4221548Y-7502643D01*
X4240595Y-7512167D01*
X4250119Y-7521690D01*
X4259643Y-7540738D01*
X4259643Y-7597881D01*
X4250119Y-7616928D01*
X4240595Y-7626452D01*
X4221548Y-7635976D01*
X4192976Y-7635976D01*
X4373929Y-7635976D02*
X4354881Y-7626452D01*
X4345357Y-7607405D01*
X4345357Y-7435976D01*
X4526310Y-7626452D02*
X4507262Y-7635976D01*
X4469167Y-7635976D01*
X4450119Y-7626452D01*
X4440595Y-7607405D01*
X4440595Y-7531214D01*
X4450119Y-7512167D01*
X4469167Y-7502643D01*
X4507262Y-7502643D01*
X4526310Y-7512167D01*
X4535833Y-7531214D01*
X4535833Y-7550262D01*
X4440595Y-7569309D01*
X4612024Y-7626452D02*
X4631071Y-7635976D01*
X4669167Y-7635976D01*
X4688214Y-7626452D01*
X4697738Y-7607405D01*
X4697738Y-7597881D01*
X4688214Y-7578833D01*
X4669167Y-7569309D01*
X4640595Y-7569309D01*
X4621548Y-7559786D01*
X4612024Y-7540738D01*
X4612024Y-7531214D01*
X4621548Y-7512167D01*
X4640595Y-7502643D01*
X4669167Y-7502643D01*
X4688214Y-7512167D01*
X4764405Y-7712167D02*
X4773929Y-7702643D01*
X4792976Y-7674071D01*
X4802500Y-7655024D01*
X4812024Y-7626452D01*
X4821548Y-7578833D01*
X4821548Y-7540738D01*
X4812024Y-7493119D01*
X4802500Y-7464548D01*
X4792976Y-7445500D01*
X4773929Y-7416928D01*
X4764405Y-7407405D01*
D20*
X-127500Y-7749500D02*
X-7500Y-7869500D01*
X-7500Y-7749500D02*
X-127500Y-7869500D01*
X-67500Y-7869500D02*
X-7500Y-7809500D01*
X-67500Y-7749500D01*
X-127500Y-7809500D01*
X-67500Y-7869500D01*
D11*
X354881Y-7899976D02*
X240595Y-7899976D01*
X297738Y-7899976D02*
X297738Y-7699976D01*
X278690Y-7728548D01*
X259643Y-7747595D01*
X240595Y-7757119D01*
X440595Y-7880928D02*
X450119Y-7890452D01*
X440595Y-7899976D01*
X431071Y-7890452D01*
X440595Y-7880928D01*
X440595Y-7899976D01*
X526310Y-7719024D02*
X535833Y-7709500D01*
X554881Y-7699976D01*
X602500Y-7699976D01*
X621548Y-7709500D01*
X631071Y-7719024D01*
X640595Y-7738071D01*
X640595Y-7757119D01*
X631071Y-7785690D01*
X516786Y-7899976D01*
X640595Y-7899976D01*
X764405Y-7699976D02*
X783452Y-7699976D01*
X802500Y-7709500D01*
X812024Y-7719024D01*
X821548Y-7738071D01*
X831071Y-7776167D01*
X831071Y-7823786D01*
X821548Y-7861881D01*
X812024Y-7880928D01*
X802500Y-7890452D01*
X783452Y-7899976D01*
X764405Y-7899976D01*
X745357Y-7890452D01*
X735833Y-7880928D01*
X726309Y-7861881D01*
X716786Y-7823786D01*
X716786Y-7776167D01*
X726309Y-7738071D01*
X735833Y-7719024D01*
X745357Y-7709500D01*
X764405Y-7699976D01*
X954881Y-7699976D02*
X973928Y-7699976D01*
X992976Y-7709500D01*
X1002500Y-7719024D01*
X1012024Y-7738071D01*
X1021548Y-7776167D01*
X1021548Y-7823786D01*
X1012024Y-7861881D01*
X1002500Y-7880928D01*
X992976Y-7890452D01*
X973928Y-7899976D01*
X954881Y-7899976D01*
X935833Y-7890452D01*
X926309Y-7880928D01*
X916786Y-7861881D01*
X907262Y-7823786D01*
X907262Y-7776167D01*
X916786Y-7738071D01*
X926309Y-7719024D01*
X935833Y-7709500D01*
X954881Y-7699976D01*
X1107262Y-7899976D02*
X1107262Y-7766643D01*
X1107262Y-7785690D02*
X1116786Y-7776167D01*
X1135833Y-7766643D01*
X1164405Y-7766643D01*
X1183452Y-7776167D01*
X1192976Y-7795214D01*
X1192976Y-7899976D01*
X1192976Y-7795214D02*
X1202500Y-7776167D01*
X1221548Y-7766643D01*
X1250119Y-7766643D01*
X1269167Y-7776167D01*
X1278690Y-7795214D01*
X1278690Y-7899976D01*
X1373929Y-7899976D02*
X1373929Y-7766643D01*
X1373929Y-7785690D02*
X1383452Y-7776167D01*
X1402500Y-7766643D01*
X1431071Y-7766643D01*
X1450119Y-7776167D01*
X1459643Y-7795214D01*
X1459643Y-7899976D01*
X1459643Y-7795214D02*
X1469167Y-7776167D01*
X1488214Y-7766643D01*
X1516786Y-7766643D01*
X1535833Y-7776167D01*
X1545357Y-7795214D01*
X1545357Y-7899976D01*
X1935833Y-7690452D02*
X1764405Y-7947595D01*
X2192976Y-7699976D02*
X2212024Y-7699976D01*
X2231071Y-7709500D01*
X2240595Y-7719024D01*
X2250119Y-7738071D01*
X2259643Y-7776167D01*
X2259643Y-7823786D01*
X2250119Y-7861881D01*
X2240595Y-7880928D01*
X2231071Y-7890452D01*
X2212024Y-7899976D01*
X2192976Y-7899976D01*
X2173929Y-7890452D01*
X2164405Y-7880928D01*
X2154881Y-7861881D01*
X2145357Y-7823786D01*
X2145357Y-7776167D01*
X2154881Y-7738071D01*
X2164405Y-7719024D01*
X2173929Y-7709500D01*
X2192976Y-7699976D01*
X2345357Y-7880928D02*
X2354881Y-7890452D01*
X2345357Y-7899976D01*
X2335833Y-7890452D01*
X2345357Y-7880928D01*
X2345357Y-7899976D01*
X2478690Y-7699976D02*
X2497738Y-7699976D01*
X2516786Y-7709500D01*
X2526310Y-7719024D01*
X2535833Y-7738071D01*
X2545357Y-7776167D01*
X2545357Y-7823786D01*
X2535833Y-7861881D01*
X2526310Y-7880928D01*
X2516786Y-7890452D01*
X2497738Y-7899976D01*
X2478690Y-7899976D01*
X2459643Y-7890452D01*
X2450119Y-7880928D01*
X2440595Y-7861881D01*
X2431071Y-7823786D01*
X2431071Y-7776167D01*
X2440595Y-7738071D01*
X2450119Y-7719024D01*
X2459643Y-7709500D01*
X2478690Y-7699976D01*
X2716786Y-7766643D02*
X2716786Y-7899976D01*
X2669167Y-7690452D02*
X2621548Y-7833309D01*
X2745357Y-7833309D01*
X2802500Y-7699976D02*
X2935833Y-7699976D01*
X2850119Y-7899976D01*
X3002500Y-7719024D02*
X3012024Y-7709500D01*
X3031071Y-7699976D01*
X3078690Y-7699976D01*
X3097738Y-7709500D01*
X3107262Y-7719024D01*
X3116786Y-7738071D01*
X3116786Y-7757119D01*
X3107262Y-7785690D01*
X2992976Y-7899976D01*
X3116786Y-7899976D01*
X3192976Y-7699976D02*
X3192976Y-7738071D01*
X3269167Y-7699976D02*
X3269167Y-7738071D01*
X3564405Y-7976167D02*
X3554881Y-7966643D01*
X3535833Y-7938071D01*
X3526309Y-7919024D01*
X3516786Y-7890452D01*
X3507262Y-7842833D01*
X3507262Y-7804738D01*
X3516786Y-7757119D01*
X3526309Y-7728548D01*
X3535833Y-7709500D01*
X3554881Y-7680928D01*
X3564405Y-7671405D01*
X3726309Y-7766643D02*
X3726309Y-7899976D01*
X3678690Y-7690452D02*
X3631071Y-7833309D01*
X3754881Y-7833309D01*
X3983452Y-7899976D02*
X3983452Y-7699976D01*
X4069167Y-7899976D02*
X4069167Y-7795214D01*
X4059643Y-7776167D01*
X4040595Y-7766643D01*
X4012024Y-7766643D01*
X3992976Y-7776167D01*
X3983452Y-7785690D01*
X4192976Y-7899976D02*
X4173928Y-7890452D01*
X4164405Y-7880928D01*
X4154881Y-7861881D01*
X4154881Y-7804738D01*
X4164405Y-7785690D01*
X4173928Y-7776167D01*
X4192976Y-7766643D01*
X4221548Y-7766643D01*
X4240595Y-7776167D01*
X4250119Y-7785690D01*
X4259643Y-7804738D01*
X4259643Y-7861881D01*
X4250119Y-7880928D01*
X4240595Y-7890452D01*
X4221548Y-7899976D01*
X4192976Y-7899976D01*
X4373929Y-7899976D02*
X4354881Y-7890452D01*
X4345357Y-7871405D01*
X4345357Y-7699976D01*
X4526310Y-7890452D02*
X4507262Y-7899976D01*
X4469167Y-7899976D01*
X4450119Y-7890452D01*
X4440595Y-7871405D01*
X4440595Y-7795214D01*
X4450119Y-7776167D01*
X4469167Y-7766643D01*
X4507262Y-7766643D01*
X4526310Y-7776167D01*
X4535833Y-7795214D01*
X4535833Y-7814262D01*
X4440595Y-7833309D01*
X4612024Y-7890452D02*
X4631071Y-7899976D01*
X4669167Y-7899976D01*
X4688214Y-7890452D01*
X4697738Y-7871405D01*
X4697738Y-7861881D01*
X4688214Y-7842833D01*
X4669167Y-7833309D01*
X4640595Y-7833309D01*
X4621548Y-7823786D01*
X4612024Y-7804738D01*
X4612024Y-7795214D01*
X4621548Y-7776167D01*
X4640595Y-7766643D01*
X4669167Y-7766643D01*
X4688214Y-7776167D01*
X4764405Y-7976167D02*
X4773929Y-7966643D01*
X4792976Y-7938071D01*
X4802500Y-7919024D01*
X4812024Y-7890452D01*
X4821548Y-7842833D01*
X4821548Y-7804738D01*
X4812024Y-7757119D01*
X4802500Y-7728548D01*
X4792976Y-7709500D01*
X4773929Y-7680928D01*
X4764405Y-7671405D01*
D21*
X-77350Y-8003650D02*
X-77350Y-8143350D01*
X-147200Y-8073500D02*
X-7500Y-8073500D01*
X-7500Y-8073500D02*
G75*
G03*
X-7500Y-8073500I-69850J0D01*
G01*
D11*
X354881Y-8163976D02*
X240595Y-8163976D01*
X297738Y-8163976D02*
X297738Y-7963976D01*
X278690Y-7992548D01*
X259643Y-8011595D01*
X240595Y-8021119D01*
X440595Y-8144928D02*
X450119Y-8154452D01*
X440595Y-8163976D01*
X431071Y-8154452D01*
X440595Y-8144928D01*
X440595Y-8163976D01*
X516786Y-7963976D02*
X640595Y-7963976D01*
X573929Y-8040167D01*
X602500Y-8040167D01*
X621548Y-8049690D01*
X631071Y-8059214D01*
X640595Y-8078262D01*
X640595Y-8125881D01*
X631071Y-8144928D01*
X621548Y-8154452D01*
X602500Y-8163976D01*
X545357Y-8163976D01*
X526310Y-8154452D01*
X516786Y-8144928D01*
X735833Y-8163976D02*
X773928Y-8163976D01*
X792976Y-8154452D01*
X802500Y-8144928D01*
X821548Y-8116357D01*
X831071Y-8078262D01*
X831071Y-8002071D01*
X821548Y-7983024D01*
X812024Y-7973500D01*
X792976Y-7963976D01*
X754881Y-7963976D01*
X735833Y-7973500D01*
X726309Y-7983024D01*
X716786Y-8002071D01*
X716786Y-8049690D01*
X726309Y-8068738D01*
X735833Y-8078262D01*
X754881Y-8087786D01*
X792976Y-8087786D01*
X812024Y-8078262D01*
X821548Y-8068738D01*
X831071Y-8049690D01*
X897738Y-7963976D02*
X1031071Y-7963976D01*
X945357Y-8163976D01*
X1107262Y-8163976D02*
X1107262Y-8030643D01*
X1107262Y-8049690D02*
X1116786Y-8040167D01*
X1135833Y-8030643D01*
X1164405Y-8030643D01*
X1183452Y-8040167D01*
X1192976Y-8059214D01*
X1192976Y-8163976D01*
X1192976Y-8059214D02*
X1202500Y-8040167D01*
X1221548Y-8030643D01*
X1250119Y-8030643D01*
X1269167Y-8040167D01*
X1278690Y-8059214D01*
X1278690Y-8163976D01*
X1373929Y-8163976D02*
X1373929Y-8030643D01*
X1373929Y-8049690D02*
X1383452Y-8040167D01*
X1402500Y-8030643D01*
X1431071Y-8030643D01*
X1450119Y-8040167D01*
X1459643Y-8059214D01*
X1459643Y-8163976D01*
X1459643Y-8059214D02*
X1469167Y-8040167D01*
X1488214Y-8030643D01*
X1516786Y-8030643D01*
X1535833Y-8040167D01*
X1545357Y-8059214D01*
X1545357Y-8163976D01*
X1935833Y-7954452D02*
X1764405Y-8211595D01*
X2192976Y-7963976D02*
X2212024Y-7963976D01*
X2231071Y-7973500D01*
X2240595Y-7983024D01*
X2250119Y-8002071D01*
X2259643Y-8040167D01*
X2259643Y-8087786D01*
X2250119Y-8125881D01*
X2240595Y-8144928D01*
X2231071Y-8154452D01*
X2212024Y-8163976D01*
X2192976Y-8163976D01*
X2173929Y-8154452D01*
X2164405Y-8144928D01*
X2154881Y-8125881D01*
X2145357Y-8087786D01*
X2145357Y-8040167D01*
X2154881Y-8002071D01*
X2164405Y-7983024D01*
X2173929Y-7973500D01*
X2192976Y-7963976D01*
X2345357Y-8144928D02*
X2354881Y-8154452D01*
X2345357Y-8163976D01*
X2335833Y-8154452D01*
X2345357Y-8144928D01*
X2345357Y-8163976D01*
X2478690Y-7963976D02*
X2497738Y-7963976D01*
X2516786Y-7973500D01*
X2526310Y-7983024D01*
X2535833Y-8002071D01*
X2545357Y-8040167D01*
X2545357Y-8087786D01*
X2535833Y-8125881D01*
X2526310Y-8144928D01*
X2516786Y-8154452D01*
X2497738Y-8163976D01*
X2478690Y-8163976D01*
X2459643Y-8154452D01*
X2450119Y-8144928D01*
X2440595Y-8125881D01*
X2431071Y-8087786D01*
X2431071Y-8040167D01*
X2440595Y-8002071D01*
X2450119Y-7983024D01*
X2459643Y-7973500D01*
X2478690Y-7963976D01*
X2726310Y-7963976D02*
X2631071Y-7963976D01*
X2621548Y-8059214D01*
X2631071Y-8049690D01*
X2650119Y-8040167D01*
X2697738Y-8040167D01*
X2716786Y-8049690D01*
X2726310Y-8059214D01*
X2735833Y-8078262D01*
X2735833Y-8125881D01*
X2726310Y-8144928D01*
X2716786Y-8154452D01*
X2697738Y-8163976D01*
X2650119Y-8163976D01*
X2631071Y-8154452D01*
X2621548Y-8144928D01*
X2916786Y-7963976D02*
X2821548Y-7963976D01*
X2812024Y-8059214D01*
X2821548Y-8049690D01*
X2840595Y-8040167D01*
X2888214Y-8040167D01*
X2907262Y-8049690D01*
X2916786Y-8059214D01*
X2926309Y-8078262D01*
X2926309Y-8125881D01*
X2916786Y-8144928D01*
X2907262Y-8154452D01*
X2888214Y-8163976D01*
X2840595Y-8163976D01*
X2821548Y-8154452D01*
X2812024Y-8144928D01*
X3050119Y-7963976D02*
X3069167Y-7963976D01*
X3088214Y-7973500D01*
X3097738Y-7983024D01*
X3107262Y-8002071D01*
X3116786Y-8040167D01*
X3116786Y-8087786D01*
X3107262Y-8125881D01*
X3097738Y-8144928D01*
X3088214Y-8154452D01*
X3069167Y-8163976D01*
X3050119Y-8163976D01*
X3031071Y-8154452D01*
X3021548Y-8144928D01*
X3012024Y-8125881D01*
X3002500Y-8087786D01*
X3002500Y-8040167D01*
X3012024Y-8002071D01*
X3021548Y-7983024D01*
X3031071Y-7973500D01*
X3050119Y-7963976D01*
X3192976Y-7963976D02*
X3192976Y-8002071D01*
X3269167Y-7963976D02*
X3269167Y-8002071D01*
X3564405Y-8240167D02*
X3554881Y-8230643D01*
X3535833Y-8202071D01*
X3526309Y-8183024D01*
X3516786Y-8154452D01*
X3507262Y-8106833D01*
X3507262Y-8068738D01*
X3516786Y-8021119D01*
X3526309Y-7992548D01*
X3535833Y-7973500D01*
X3554881Y-7944928D01*
X3564405Y-7935405D01*
X3726309Y-8030643D02*
X3726309Y-8163976D01*
X3678690Y-7954452D02*
X3631071Y-8097309D01*
X3754881Y-8097309D01*
X3983452Y-8163976D02*
X3983452Y-7963976D01*
X4069167Y-8163976D02*
X4069167Y-8059214D01*
X4059643Y-8040167D01*
X4040595Y-8030643D01*
X4012024Y-8030643D01*
X3992976Y-8040167D01*
X3983452Y-8049690D01*
X4192976Y-8163976D02*
X4173928Y-8154452D01*
X4164405Y-8144928D01*
X4154881Y-8125881D01*
X4154881Y-8068738D01*
X4164405Y-8049690D01*
X4173928Y-8040167D01*
X4192976Y-8030643D01*
X4221548Y-8030643D01*
X4240595Y-8040167D01*
X4250119Y-8049690D01*
X4259643Y-8068738D01*
X4259643Y-8125881D01*
X4250119Y-8144928D01*
X4240595Y-8154452D01*
X4221548Y-8163976D01*
X4192976Y-8163976D01*
X4373929Y-8163976D02*
X4354881Y-8154452D01*
X4345357Y-8135405D01*
X4345357Y-7963976D01*
X4526310Y-8154452D02*
X4507262Y-8163976D01*
X4469167Y-8163976D01*
X4450119Y-8154452D01*
X4440595Y-8135405D01*
X4440595Y-8059214D01*
X4450119Y-8040167D01*
X4469167Y-8030643D01*
X4507262Y-8030643D01*
X4526310Y-8040167D01*
X4535833Y-8059214D01*
X4535833Y-8078262D01*
X4440595Y-8097309D01*
X4612024Y-8154452D02*
X4631071Y-8163976D01*
X4669167Y-8163976D01*
X4688214Y-8154452D01*
X4697738Y-8135405D01*
X4697738Y-8125881D01*
X4688214Y-8106833D01*
X4669167Y-8097309D01*
X4640595Y-8097309D01*
X4621548Y-8087786D01*
X4612024Y-8068738D01*
X4612024Y-8059214D01*
X4621548Y-8040167D01*
X4640595Y-8030643D01*
X4669167Y-8030643D01*
X4688214Y-8040167D01*
X4764405Y-8240167D02*
X4773929Y-8230643D01*
X4792976Y-8202071D01*
X4802500Y-8183024D01*
X4812024Y-8154452D01*
X4821548Y-8106833D01*
X4821548Y-8068738D01*
X4812024Y-8021119D01*
X4802500Y-7992548D01*
X4792976Y-7973500D01*
X4773929Y-7944928D01*
X4764405Y-7935405D01*
D22*
X-29466Y-8390534D02*
X-29466Y-8284466D01*
X-135534Y-8284466D01*
X-135534Y-8390534D01*
X-29466Y-8390534D01*
X-7500Y-8337500D02*
G75*
G03*
X-7500Y-8337500I-75000J0D01*
G01*
D11*
X354881Y-8427976D02*
X240595Y-8427976D01*
X297738Y-8427976D02*
X297738Y-8227976D01*
X278690Y-8256548D01*
X259643Y-8275595D01*
X240595Y-8285119D01*
X440595Y-8408929D02*
X450119Y-8418452D01*
X440595Y-8427976D01*
X431071Y-8418452D01*
X440595Y-8408929D01*
X440595Y-8427976D01*
X631071Y-8227976D02*
X535833Y-8227976D01*
X526310Y-8323214D01*
X535833Y-8313690D01*
X554881Y-8304167D01*
X602500Y-8304167D01*
X621548Y-8313690D01*
X631071Y-8323214D01*
X640595Y-8342262D01*
X640595Y-8389881D01*
X631071Y-8408929D01*
X621548Y-8418452D01*
X602500Y-8427976D01*
X554881Y-8427976D01*
X535833Y-8418452D01*
X526310Y-8408929D01*
X764405Y-8227976D02*
X783452Y-8227976D01*
X802500Y-8237500D01*
X812024Y-8247024D01*
X821548Y-8266071D01*
X831071Y-8304167D01*
X831071Y-8351786D01*
X821548Y-8389881D01*
X812024Y-8408929D01*
X802500Y-8418452D01*
X783452Y-8427976D01*
X764405Y-8427976D01*
X745357Y-8418452D01*
X735833Y-8408929D01*
X726309Y-8389881D01*
X716786Y-8351786D01*
X716786Y-8304167D01*
X726309Y-8266071D01*
X735833Y-8247024D01*
X745357Y-8237500D01*
X764405Y-8227976D01*
X954881Y-8227976D02*
X973928Y-8227976D01*
X992976Y-8237500D01*
X1002500Y-8247024D01*
X1012024Y-8266071D01*
X1021548Y-8304167D01*
X1021548Y-8351786D01*
X1012024Y-8389881D01*
X1002500Y-8408929D01*
X992976Y-8418452D01*
X973928Y-8427976D01*
X954881Y-8427976D01*
X935833Y-8418452D01*
X926309Y-8408929D01*
X916786Y-8389881D01*
X907262Y-8351786D01*
X907262Y-8304167D01*
X916786Y-8266071D01*
X926309Y-8247024D01*
X935833Y-8237500D01*
X954881Y-8227976D01*
X1107262Y-8427976D02*
X1107262Y-8294643D01*
X1107262Y-8313690D02*
X1116786Y-8304167D01*
X1135833Y-8294643D01*
X1164405Y-8294643D01*
X1183452Y-8304167D01*
X1192976Y-8323214D01*
X1192976Y-8427976D01*
X1192976Y-8323214D02*
X1202500Y-8304167D01*
X1221548Y-8294643D01*
X1250119Y-8294643D01*
X1269167Y-8304167D01*
X1278690Y-8323214D01*
X1278690Y-8427976D01*
X1373929Y-8427976D02*
X1373929Y-8294643D01*
X1373929Y-8313690D02*
X1383452Y-8304167D01*
X1402500Y-8294643D01*
X1431071Y-8294643D01*
X1450119Y-8304167D01*
X1459643Y-8323214D01*
X1459643Y-8427976D01*
X1459643Y-8323214D02*
X1469167Y-8304167D01*
X1488214Y-8294643D01*
X1516786Y-8294643D01*
X1535833Y-8304167D01*
X1545357Y-8323214D01*
X1545357Y-8427976D01*
X1935833Y-8218452D02*
X1764405Y-8475595D01*
X2192976Y-8227976D02*
X2212024Y-8227976D01*
X2231071Y-8237500D01*
X2240595Y-8247024D01*
X2250119Y-8266071D01*
X2259643Y-8304167D01*
X2259643Y-8351786D01*
X2250119Y-8389881D01*
X2240595Y-8408929D01*
X2231071Y-8418452D01*
X2212024Y-8427976D01*
X2192976Y-8427976D01*
X2173929Y-8418452D01*
X2164405Y-8408929D01*
X2154881Y-8389881D01*
X2145357Y-8351786D01*
X2145357Y-8304167D01*
X2154881Y-8266071D01*
X2164405Y-8247024D01*
X2173929Y-8237500D01*
X2192976Y-8227976D01*
X2345357Y-8408929D02*
X2354881Y-8418452D01*
X2345357Y-8427976D01*
X2335833Y-8418452D01*
X2345357Y-8408929D01*
X2345357Y-8427976D01*
X2478690Y-8227976D02*
X2497738Y-8227976D01*
X2516786Y-8237500D01*
X2526310Y-8247024D01*
X2535833Y-8266071D01*
X2545357Y-8304167D01*
X2545357Y-8351786D01*
X2535833Y-8389881D01*
X2526310Y-8408929D01*
X2516786Y-8418452D01*
X2497738Y-8427976D01*
X2478690Y-8427976D01*
X2459643Y-8418452D01*
X2450119Y-8408929D01*
X2440595Y-8389881D01*
X2431071Y-8351786D01*
X2431071Y-8304167D01*
X2440595Y-8266071D01*
X2450119Y-8247024D01*
X2459643Y-8237500D01*
X2478690Y-8227976D01*
X2726310Y-8227976D02*
X2631071Y-8227976D01*
X2621548Y-8323214D01*
X2631071Y-8313690D01*
X2650119Y-8304167D01*
X2697738Y-8304167D01*
X2716786Y-8313690D01*
X2726310Y-8323214D01*
X2735833Y-8342262D01*
X2735833Y-8389881D01*
X2726310Y-8408929D01*
X2716786Y-8418452D01*
X2697738Y-8427976D01*
X2650119Y-8427976D01*
X2631071Y-8418452D01*
X2621548Y-8408929D01*
X2831071Y-8427976D02*
X2869167Y-8427976D01*
X2888214Y-8418452D01*
X2897738Y-8408929D01*
X2916786Y-8380357D01*
X2926309Y-8342262D01*
X2926309Y-8266071D01*
X2916786Y-8247024D01*
X2907262Y-8237500D01*
X2888214Y-8227976D01*
X2850119Y-8227976D01*
X2831071Y-8237500D01*
X2821548Y-8247024D01*
X2812024Y-8266071D01*
X2812024Y-8313690D01*
X2821548Y-8332738D01*
X2831071Y-8342262D01*
X2850119Y-8351786D01*
X2888214Y-8351786D01*
X2907262Y-8342262D01*
X2916786Y-8332738D01*
X2926309Y-8313690D01*
X3116786Y-8427976D02*
X3002500Y-8427976D01*
X3059643Y-8427976D02*
X3059643Y-8227976D01*
X3040595Y-8256548D01*
X3021548Y-8275595D01*
X3002500Y-8285119D01*
X3192976Y-8227976D02*
X3192976Y-8266071D01*
X3269167Y-8227976D02*
X3269167Y-8266071D01*
X3564405Y-8504167D02*
X3554881Y-8494643D01*
X3535833Y-8466071D01*
X3526309Y-8447024D01*
X3516786Y-8418452D01*
X3507262Y-8370833D01*
X3507262Y-8332738D01*
X3516786Y-8285119D01*
X3526309Y-8256548D01*
X3535833Y-8237500D01*
X3554881Y-8208928D01*
X3564405Y-8199405D01*
X3678690Y-8227976D02*
X3697738Y-8227976D01*
X3716786Y-8237500D01*
X3726309Y-8247024D01*
X3735833Y-8266071D01*
X3745357Y-8304167D01*
X3745357Y-8351786D01*
X3735833Y-8389881D01*
X3726309Y-8408929D01*
X3716786Y-8418452D01*
X3697738Y-8427976D01*
X3678690Y-8427976D01*
X3659643Y-8418452D01*
X3650119Y-8408929D01*
X3640595Y-8389881D01*
X3631071Y-8351786D01*
X3631071Y-8304167D01*
X3640595Y-8266071D01*
X3650119Y-8247024D01*
X3659643Y-8237500D01*
X3678690Y-8227976D01*
X3983452Y-8427976D02*
X3983452Y-8227976D01*
X4069167Y-8427976D02*
X4069167Y-8323214D01*
X4059643Y-8304167D01*
X4040595Y-8294643D01*
X4012024Y-8294643D01*
X3992976Y-8304167D01*
X3983452Y-8313690D01*
X4192976Y-8427976D02*
X4173928Y-8418452D01*
X4164405Y-8408929D01*
X4154881Y-8389881D01*
X4154881Y-8332738D01*
X4164405Y-8313690D01*
X4173928Y-8304167D01*
X4192976Y-8294643D01*
X4221548Y-8294643D01*
X4240595Y-8304167D01*
X4250119Y-8313690D01*
X4259643Y-8332738D01*
X4259643Y-8389881D01*
X4250119Y-8408929D01*
X4240595Y-8418452D01*
X4221548Y-8427976D01*
X4192976Y-8427976D01*
X4373929Y-8427976D02*
X4354881Y-8418452D01*
X4345357Y-8399405D01*
X4345357Y-8227976D01*
X4526310Y-8418452D02*
X4507262Y-8427976D01*
X4469167Y-8427976D01*
X4450119Y-8418452D01*
X4440595Y-8399405D01*
X4440595Y-8323214D01*
X4450119Y-8304167D01*
X4469167Y-8294643D01*
X4507262Y-8294643D01*
X4526310Y-8304167D01*
X4535833Y-8323214D01*
X4535833Y-8342262D01*
X4440595Y-8361309D01*
X4612024Y-8418452D02*
X4631071Y-8427976D01*
X4669167Y-8427976D01*
X4688214Y-8418452D01*
X4697738Y-8399405D01*
X4697738Y-8389881D01*
X4688214Y-8370833D01*
X4669167Y-8361309D01*
X4640595Y-8361309D01*
X4621548Y-8351786D01*
X4612024Y-8332738D01*
X4612024Y-8323214D01*
X4621548Y-8304167D01*
X4640595Y-8294643D01*
X4669167Y-8294643D01*
X4688214Y-8304167D01*
X4935833Y-8351786D02*
X5088214Y-8351786D01*
X5012024Y-8427976D02*
X5012024Y-8275595D01*
X5326310Y-8247024D02*
X5335833Y-8237500D01*
X5354881Y-8227976D01*
X5402500Y-8227976D01*
X5421548Y-8237500D01*
X5431071Y-8247024D01*
X5440595Y-8266071D01*
X5440595Y-8285119D01*
X5431071Y-8313690D01*
X5316786Y-8427976D01*
X5440595Y-8427976D01*
X5669167Y-8418452D02*
X5688214Y-8427976D01*
X5726309Y-8427976D01*
X5745357Y-8418452D01*
X5754881Y-8399405D01*
X5754881Y-8389881D01*
X5745357Y-8370833D01*
X5726309Y-8361309D01*
X5697738Y-8361309D01*
X5678690Y-8351786D01*
X5669167Y-8332738D01*
X5669167Y-8323214D01*
X5678690Y-8304167D01*
X5697738Y-8294643D01*
X5726309Y-8294643D01*
X5745357Y-8304167D01*
X5869167Y-8427976D02*
X5850119Y-8418452D01*
X5840595Y-8399405D01*
X5840595Y-8227976D01*
X5973928Y-8427976D02*
X5954881Y-8418452D01*
X5945357Y-8408929D01*
X5935833Y-8389881D01*
X5935833Y-8332738D01*
X5945357Y-8313690D01*
X5954881Y-8304167D01*
X5973928Y-8294643D01*
X6002500Y-8294643D01*
X6021548Y-8304167D01*
X6031071Y-8313690D01*
X6040595Y-8332738D01*
X6040595Y-8389881D01*
X6031071Y-8408929D01*
X6021548Y-8418452D01*
X6002500Y-8427976D01*
X5973928Y-8427976D01*
X6097738Y-8294643D02*
X6173928Y-8294643D01*
X6126309Y-8227976D02*
X6126309Y-8399405D01*
X6135833Y-8418452D01*
X6154881Y-8427976D01*
X6173928Y-8427976D01*
X6231071Y-8418452D02*
X6250119Y-8427976D01*
X6288214Y-8427976D01*
X6307262Y-8418452D01*
X6316786Y-8399405D01*
X6316786Y-8389881D01*
X6307262Y-8370833D01*
X6288214Y-8361309D01*
X6259643Y-8361309D01*
X6240595Y-8351786D01*
X6231071Y-8332738D01*
X6231071Y-8323214D01*
X6240595Y-8304167D01*
X6259643Y-8294643D01*
X6288214Y-8294643D01*
X6307262Y-8304167D01*
X6383452Y-8504167D02*
X6392976Y-8494643D01*
X6412024Y-8466071D01*
X6421548Y-8447024D01*
X6431071Y-8418452D01*
X6440595Y-8370833D01*
X6440595Y-8332738D01*
X6431071Y-8285119D01*
X6421548Y-8256548D01*
X6412024Y-8237500D01*
X6392976Y-8208928D01*
X6383452Y-8199405D01*
M02*
