M48
; DRILL file {KiCad (6.0.0)} date Mon Dec 27 13:21:01 2021
; FORMAT={-:-/ absolute / metric / decimal}
; #@! TF.CreationDate,2021-12-27T13:21:01-08:00
; #@! TF.GenerationSoftware,Kicad,Pcbnew,(6.0.0)
; #@! TF.FileFunction,Plated,1,2,PTH
FMAT,2
METRIC
; #@! TA.AperFunction,Plated,PTH,ViaDrill
T1C0.305
; #@! TA.AperFunction,Plated,PTH,ComponentDrill
T2C0.350
; #@! TA.AperFunction,Plated,PTH,ViaDrill
T3C0.400
; #@! TA.AperFunction,Plated,PTH,ComponentDrill
T4C0.600
; #@! TA.AperFunction,Plated,PTH,ComponentDrill
T5C0.800
; #@! TA.AperFunction,Plated,PTH,ComponentDrill
T6C0.889
; #@! TA.AperFunction,Plated,PTH,ComponentDrill
T7C0.899
; #@! TA.AperFunction,Plated,PTH,ComponentDrill
T8C1.000
; #@! TA.AperFunction,Plated,PTH,ComponentDrill
T9C1.200
; #@! TA.AperFunction,Plated,PTH,ComponentDrill
T10C1.397
; #@! TA.AperFunction,Plated,PTH,ComponentDrill
T11C1.500
%
G90
G05
T1
X15.24Y-6.35
X19.558Y-14.478
X20.699Y-35.685
X21.59Y-30.48
X22.352Y-41.656
X22.86Y-7.62
X24.41Y-30.13
X27.94Y-1.27
X27.94Y-34.29
X30.353Y-35.814
X30.861Y-37.403
X32.385Y-30.861
X33.823Y-39.411
X34.036Y-30.226
X34.29Y-21.59
X35.56Y-26.67
X35.56Y-33.02
X36.703Y-36.957
X36.83Y-30.48
X36.83Y-41.91
X38.1Y-28.192
X38.1Y-22.86
X38.1Y-26.67
X38.1Y-30.48
X38.1Y-41.91
X38.608Y-31.242
X39.116Y-32.004
X39.37Y-27.94
X40.516Y-43.18
X41.148Y-37.846
X41.51Y-43.23
X41.91Y-30.226
X43.18Y-1.27
X43.18Y-30.226
X43.18Y-41.91
X43.81Y-38.83
X44.71Y-39.13
X44.742Y-38.215
X46.635Y-35.56
X46.99Y-44.45
X47.143Y-33.782
X47.498Y-9.652
X49.81Y-38.862
X53.848Y-11.43
X59.182Y-9.906
T2
X37.841Y-35.809
X37.841Y-37.084
X37.841Y-38.359
X39.116Y-35.809
X39.116Y-37.084
X39.116Y-38.359
X40.391Y-35.809
X40.391Y-37.084
X40.391Y-38.359
T3
X30.48Y-40.64
X31.75Y-41.91
X35.56Y-45.72
X36.83Y-45.72
X38.1Y-45.72
X40.64Y-48.26
X52.07Y-10.16
X53.34Y-48.26
X55.88Y-10.16
X57.15Y-12.7
T5
X20.066Y-39.656
X20.066Y-41.656
T6
X24.34Y-11.684
X24.34Y-14.224
X24.34Y-16.764
X31.96Y-24.384
X34.5Y-24.384
X37.04Y-24.384
T7
X31.325Y-1.524
X31.325Y-6.604
X37.675Y-1.524
X37.675Y-6.604
T8
X1.51Y-11.764
X1.51Y-16.764
X16.01Y-11.764
X16.01Y-14.264
X16.01Y-16.764
X33.655Y-48.33
X36.195Y-48.33
X38.735Y-48.33
T9
X4.5Y-36.8
X9.5Y-38.9
X54.5Y-36.8
X59.5Y-38.9
T10
X26.88Y-7.556
X26.88Y-20.892
X42.12Y-7.556
X42.12Y-20.892
T4
X49.274Y-2.968G85X49.274Y-3.568
G05
X49.274Y-6.898G85X49.274Y-7.998
G05
X57.914Y-2.968G85X57.914Y-3.568
G05
X57.914Y-6.898G85X57.914Y-7.998
G05
T11
X9.16Y-8.664G85X7.86Y-8.664
G05
X9.16Y-19.864G85X7.86Y-19.864
G05
T0
M30
